<svg width="92" height="51" viewBox="0 0 92 51" fill="none" xmlns="http://www.w3.org/2000/svg">
<path d="M87.6256 5.43905C87.2133 3.5957 82.6566 3.74693 75.1842 6.54661C67.6749 9.36032 63.8798 8.24996 61.695 6.68379C59.4003 5.03896 56.0647 -0.747425 53.9057 1.13034C51.7468 3.0081 55.3315 11.3683 55.3315 11.3683L67.922 20.5087L78.9993 16.8772L85.6576 13.8453L87.6256 11.3685V5.43905Z" fill="#4D93A6"/>
<path d="M89.9938 38.4762C89.9134 39.3593 89.8375 40.1435 89.777 40.7608C89.6905 41.6448 89.6331 42.1863 89.6331 42.1863C89.6331 42.1863 87.7051 44.5882 81.5049 45.1534C75.3048 45.7194 65.5426 45.4591 60.7107 46.4058C55.8786 47.3526 42.3106 50.6284 36.876 50.6181C31.4423 50.6078 24.8907 51.4333 12.7345 48.5959C11.1005 48.215 3.14661 45.8285 1.77634 44.3352C1.20399 43.7115 0.932639 42.8655 0.836812 41.8836C0.768974 41.1951 0.786765 40.4408 0.84725 39.6484C0.906549 38.8641 1.00783 38.0419 1.10888 37.2123C1.45518 34.347 0.787714 32.6882 5.0641 31.2863C9.34025 29.8848 69.7438 23.5625 69.7438 23.5625L87.046 24.4125C87.046 24.4125 90.1867 24.0246 90.561 26.9247C90.8019 28.7941 90.3473 34.5891 89.9938 38.4762Z" fill="#1E3940"/>
<path d="M90.973 18.1861C90.3057 23.1026 87.9373 27.3661 87.9373 27.3661C87.9373 27.3661 84.4062 29.4897 75.7662 30.2978C74.5859 30.4076 73.3112 30.494 71.9357 30.546C65.1273 30.8066 58.8423 33.1692 53.5991 35.3262C50.0327 36.7926 46.9484 38.1657 44.5098 38.7158C38.486 40.0748 27.4714 40.6748 16.5716 38.1284C5.67179 35.5821 4.40137 32.9655 4.40137 32.9655C4.40137 32.9655 1.61362 29.4764 10.7119 25.9144C15.5536 24.0184 20.4324 22.5211 24.5693 21.1865C28.2062 20.0133 31.2698 18.9678 33.2307 17.8898C33.7884 17.5836 34.5638 17.0613 35.4891 16.3875C36.533 15.6267 37.7673 14.6717 39.0944 13.6143C45.4349 8.55831 53.9061 1.13037 53.9061 1.13037C53.9061 1.13037 56.0401 1.56089 56.1509 5.039C56.1921 6.33782 57.7747 7.30421 58.8174 8.41926C60.442 10.1561 62.4482 11.6675 64.7089 12.4882C71.9165 15.1053 79.0112 12.5503 83.9456 10.1151C86.1707 9.01715 86.9091 7.95829 87.6259 5.43908C87.6259 5.43908 89.0111 8.14137 90.0192 11.3683C90.7265 13.6342 91.2479 16.1581 90.973 18.1861Z" fill="url(#paint0_linear_98_725)"/>
<path d="M53.5994 35.3277C50.0329 36.7942 46.9487 38.1672 44.5101 38.7174C38.4863 40.0763 27.4717 40.6763 16.5718 38.13C5.67203 35.5836 4.40162 32.967 4.40162 32.967C4.40162 32.967 1.61387 29.4779 10.7122 25.916C15.5538 24.02 20.4327 22.5226 24.5696 21.188C24.7119 22.0483 25.2536 22.9002 25.9923 23.4073C27.2881 24.2957 28.9463 24.4245 30.5172 24.5706C35.2519 25.0107 40.0029 25.8816 44.3205 27.8504C47.988 29.5229 51.341 32.0467 53.5994 35.3277Z" fill="#4D93A6"/>
<path d="M90.9729 18.1867C90.3057 23.1032 87.9373 27.3667 87.9373 27.3667C87.9373 27.3667 84.4062 29.4903 75.7661 30.2984C78.6952 22.8883 83.669 16.2673 90.0189 11.3687C90.7265 13.6348 91.2478 16.1587 90.9729 18.1867Z" fill="#4D93A6"/>
<path d="M58.8175 8.42079C55.2325 10.3489 51.8513 12.6438 48.7476 15.2609C46.9279 16.7943 45.0932 18.6496 44.8576 20.9995C44.7637 21.9413 44.9366 22.926 44.6126 23.8165C44.2886 24.7071 43.1866 25.3604 42.2575 25.1238C40.8618 24.7674 39.9624 23.4284 39.4403 22.1024C38.9192 20.7753 38.626 19.3355 37.8044 18.1661C37.2399 17.3608 36.4137 16.7346 35.4891 16.3888C36.533 15.628 37.7674 14.673 39.0945 13.6156C39.696 14.6262 40.1379 15.8003 41.2487 15.9864C42.2935 16.162 43.1814 15.288 43.8941 14.5141C47.2248 10.8997 51.143 7.81164 55.4519 5.40503C55.6768 5.27908 55.9102 5.15547 56.1507 5.04053C56.8805 6.12233 57.7748 7.30574 58.8175 8.42079Z" fill="#4D93A6"/>
<path d="M44.1213 18.8634C44.0193 18.8634 43.9163 18.8365 43.8229 18.7803C42.3347 17.8835 40.7026 15.5988 39.6653 12.9597C39.5508 12.6683 39.6973 12.3403 39.9926 12.2272C40.2877 12.1146 40.62 12.2588 40.7348 12.5503C41.6722 14.9351 43.1535 17.0505 44.4208 17.8142C44.6912 17.9771 44.7766 18.3255 44.6115 18.5923C44.5031 18.767 44.3146 18.8634 44.1213 18.8634Z" fill="#1E3940"/>
<path d="M47.0263 16.4249C46.8854 16.4249 46.7441 16.3739 46.6333 16.2711C44.7761 14.546 43.5225 12.2286 43.1031 9.74564C43.051 9.43732 43.2621 9.14563 43.5744 9.09436C43.8861 9.04239 44.1824 9.25121 44.2343 9.55953C44.6126 11.7997 45.7438 13.8905 47.4191 15.4468C47.6497 15.661 47.6608 16.0192 47.4436 16.247C47.3314 16.365 47.1791 16.4249 47.0263 16.4249Z" fill="#1E3940"/>
<path d="M50.4917 13.0499C50.3655 13.0499 50.2386 13.0091 50.1328 12.9248C48.1119 11.3212 46.8197 8.8383 46.6762 6.28303C46.6586 5.97097 46.9008 5.70385 47.217 5.68652C47.5329 5.66826 47.8038 5.90823 47.8214 6.22029C47.9473 8.46022 49.0802 10.6369 50.8515 12.0427C51.0984 12.2387 51.1376 12.595 50.9391 12.8385C50.8259 12.9775 50.6596 13.0499 50.4917 13.0499Z" fill="#1E3940"/>
<path d="M53.7075 10.4724C53.5821 10.4724 53.4556 10.4319 53.3498 10.3486C51.3074 8.73748 49.9565 6.34398 49.6439 3.78169C49.6062 3.47127 49.8303 3.1894 50.1449 3.15195C50.4594 3.11519 50.745 3.33595 50.7829 3.64638C51.0597 5.91627 52.2564 8.03657 54.0659 9.46392C54.3133 9.65916 54.3536 10.0152 54.1558 10.2594C54.0427 10.3996 53.8757 10.4724 53.7075 10.4724Z" fill="#1E3940"/>
<path d="M56.5394 8.41374C56.3933 8.41374 56.2471 8.35896 56.1352 8.2494C54.2604 6.41167 52.9217 3.99522 52.3659 1.44581C52.2993 1.14007 52.4964 0.839019 52.8059 0.77347C53.1162 0.70792 53.4207 0.901989 53.4871 1.20773C53.9966 3.54575 55.2241 5.76109 56.9433 7.44641C57.1682 7.66671 57.1694 8.02513 56.9462 8.24682C56.834 8.35802 56.6867 8.41374 56.5394 8.41374Z" fill="#1E3940"/>
<path d="M89.9938 38.4771C89.9134 39.3601 89.8374 40.1443 89.777 40.7617C87.971 41.7281 85.5528 42.6902 82.482 43.243C79.4998 43.7791 76.0806 43.8748 72.1226 43.986C66.0153 44.1569 59.0937 44.3515 51.2855 46.2121C43.7965 47.9967 37.8102 48.6986 31.78 48.6986C27.3682 48.6986 22.9324 48.3228 17.8669 47.7209C9.51572 46.73 3.63257 43.6548 0.836997 41.8847C0.769159 41.1962 0.786946 40.4419 0.847431 39.6495C2.78175 40.9967 8.9296 44.7942 18.091 45.882C29.8582 47.2797 38.1544 47.436 50.8455 44.4114C58.8444 42.5053 65.8703 42.3089 72.0692 42.135C75.9514 42.0259 79.3036 41.9322 82.1452 41.4207C85.6842 40.7844 88.2848 39.5474 89.9938 38.4771Z" fill="url(#paint1_linear_98_725)"/>
<defs>
<linearGradient id="paint0_linear_98_725" x1="3.99895" y1="20.5085" x2="91.0476" y2="20.5085" gradientUnits="userSpaceOnUse">
<stop offset="0.0126" stop-color="#77E3FF"/>
<stop offset="0.6737" stop-color="#66C4DC"/>
<stop offset="1" stop-color="#5DB3C9"/>
</linearGradient>
<linearGradient id="paint1_linear_98_725" x1="0.793376" y1="43.5879" x2="89.9938" y2="43.5879" gradientUnits="userSpaceOnUse">
<stop offset="0.0126" stop-color="#77E3FF"/>
<stop offset="0.6737" stop-color="#66C4DC"/>
<stop offset="1" stop-color="#5DB3C9"/>
</linearGradient>
</defs>
</svg>
