<svg width="110" height="110" viewBox="0 0 110 110" fill="none" xmlns="http://www.w3.org/2000/svg">
<rect width="110" height="110" fill="#A9BF52" fill-opacity="0.1"/>
<path d="M63.2095 85.0605H46.7895V101.774H63.2095V85.0605Z" fill="#FDCC9B"/>
<path d="M28.5765 59.4025C28.6005 63.2345 25.5105 66.3585 21.6805 66.3805C17.8465 66.4055 14.7215 63.3175 14.6985 59.4845C14.6765 55.6525 17.7645 52.5255 21.5975 52.5055C25.4305 52.4825 28.5535 55.5725 28.5765 59.4025Z" fill="#FDCC9B"/>
<path d="M25.6685 59.4185C25.6825 61.6465 23.8875 63.4615 21.6615 63.4755C19.4365 63.4875 17.6215 61.6945 17.6075 59.4675C17.5935 57.2395 19.3885 55.4265 21.6135 55.4145C23.8415 55.3985 25.6555 57.1935 25.6685 59.4185Z" fill="#F4B882"/>
<path d="M95.3015 59.0105C95.3245 62.8425 92.2355 65.9675 88.4035 65.9895C84.5705 66.0145 81.4445 62.9245 81.4225 59.0925C81.3995 55.2595 84.4885 52.1355 88.3215 52.1135C92.1535 52.0895 95.2765 55.1785 95.3015 59.0105Z" fill="#FDCC9B"/>
<path d="M92.3905 59.0276C92.4055 61.2546 90.6105 63.0686 88.3845 63.0826C86.1595 63.0946 84.3445 61.3016 84.3305 59.0726C84.3165 56.8476 86.1095 55.0326 88.3395 55.0186C90.5645 55.0076 92.3775 56.8006 92.3905 59.0276Z" fill="#F4B882"/>
<path d="M88.2015 61.4836C88.2905 76.3196 76.2235 88.5286 61.3875 88.6156L48.6145 88.6876C33.7785 88.7776 21.5685 76.7106 21.4795 61.8766L21.4135 50.2676C21.3245 35.4296 33.3925 23.2206 48.2265 23.1336L61.0015 23.0576C75.8375 22.9706 88.0495 35.0376 88.1365 49.8726L88.2015 61.4836Z" fill="#FDCC9B"/>
<path d="M58.7195 68.8346C58.7255 70.1266 57.0715 71.1846 55.0245 71.1986C52.9745 71.2106 51.3075 70.1726 51.2995 68.8776C51.2915 67.5866 52.9475 66.5296 54.9965 66.5186C57.0415 66.5046 58.7095 67.5446 58.7195 68.8346Z" fill="#F4B882"/>
<path d="M55.0065 73.5396H43.5725C43.5725 73.5396 44.5845 82.3856 55.0065 82.3856C65.4325 82.3856 66.4435 73.5396 66.4435 73.5396H55.0065Z" fill="white"/>
<path d="M71.0395 61.7216C71.0765 60.5956 71.5555 58.9876 72.9115 58.9036C74.2585 58.8196 74.7515 60.7276 74.7835 61.7216C74.8095 62.5256 76.0595 62.5286 76.0335 61.7216C75.9725 59.8446 75.0065 57.7836 72.9115 57.6536C70.8235 57.5226 69.8445 60.0516 69.7895 61.7216C69.7635 62.5276 71.0135 62.5246 71.0395 61.7216Z" fill="#352215"/>
<path d="M34.8465 61.7216C34.8835 60.5946 35.3635 58.9876 36.7195 58.9036C38.0665 58.8196 38.5595 60.7286 38.5915 61.7216C38.6175 62.5256 39.8675 62.5286 39.8415 61.7216C39.7805 59.8446 38.8145 57.7836 36.7195 57.6536C34.6315 57.5226 33.6515 60.0506 33.5965 61.7216C33.5705 62.5276 34.8205 62.5246 34.8465 61.7216Z" fill="#352215"/>
<path d="M68.2865 53.2875C71.0775 50.8945 74.7705 51.2586 77.5145 53.5156C78.1845 54.0646 79.0105 53.0095 78.3445 52.4605C75.1645 49.8455 70.7315 49.4295 67.4755 52.2185C66.8235 52.7775 67.6275 53.8525 68.2865 53.2875Z" fill="#63453D"/>
<path d="M41.3445 53.2875C38.5535 50.8945 34.8615 51.2586 32.1165 53.5156C31.4465 54.0646 30.6205 53.0095 31.2865 52.4605C34.4665 49.8455 38.8985 49.4295 42.1545 52.2185C42.8085 52.7775 42.0025 53.8525 41.3445 53.2875Z" fill="#63453D"/>
<path d="M63.2095 93.4166C60.4395 97.9816 49.5595 97.9816 46.7895 93.4166C46.7895 93.4166 20.6995 92.8125 14.6985 108.133H54.8165H54.9995H95.1175C89.1175 92.8125 63.2095 93.4166 63.2095 93.4166Z" fill="#A9BF52"/>
<path d="M23.4235 57.6476C23.4235 57.6476 23.9895 52.8745 26.3535 49.0515C27.6505 46.9575 30.0815 41.8775 33.5195 39.0805C39.3765 34.3175 58.1935 40.7395 76.1725 35.5435C76.1725 35.5435 75.6095 39.1066 78.7935 42.6696C81.9775 46.2336 88.6835 50.8105 88.4965 56.5995C88.4965 56.5995 90.4695 52.5766 92.9065 54.0746C92.9065 54.0746 97.5215 33.4655 84.7865 29.3095C84.7865 29.3095 85.1985 19.0976 75.2365 13.8686C63.4895 7.70356 57.6805 2.70554 57.6805 2.70554C57.6805 2.70554 59.1925 6.83855 61.4325 8.26355C61.4325 8.26355 54.8985 7.85655 50.7395 1.86755C50.7395 1.86755 47.2615 6.35255 52.6665 8.97055C52.6665 8.97055 48.4895 9.00054 46.9215 6.46054C46.9215 6.46054 45.4215 10.8376 52.9475 12.0135C52.9475 12.0135 43.8515 12.4065 44.6715 6.13754C44.6715 6.13754 37.5905 9.93456 31.5025 17.5066C31.5025 17.5066 33.7495 13.0516 34.9685 12.0876C34.9685 12.0876 29.8075 14.4605 26.5395 22.9985C26.5395 22.9985 21.4815 29.7536 19.6085 37.1776C17.7385 44.6006 17.1035 49.2445 18.2265 53.4016C18.2265 53.4016 22.4215 52.9326 23.4235 57.6476Z" fill="#63453D"/>
</svg>
