<svg width="110" height="110" viewBox="0 0 110 110" fill="none" xmlns="http://www.w3.org/2000/svg">
<rect width="110" height="110" fill="#059D86" fill-opacity="0.1"/>
<path d="M86.223 87.0286C86.223 87.0286 71.79 93.7556 63.208 95.5536C61.905 91.1936 62.302 85.1126 62.152 80.6926C65.68 77.5706 80.063 72.7546 82.529 67.2986C83.759 64.5766 84.896 61.3416 85.675 58.0736C86.95 58.3006 88.655 57.0486 90.039 54.5536C90.039 54.0906 88.069 83.5706 91.062 91.7806C91.064 91.7816 87.845 91.1336 86.223 87.0286Z" fill="#DC5C05"/>
<path d="M24.706 87.0286C24.706 87.0286 37.582 93.2556 46.165 95.0536C47.465 90.6936 47.24 83.7236 47.391 79.3036C43.864 76.1816 29.842 72.7546 27.378 67.2986C26.148 64.5766 24.857 61.2116 24.081 57.9436C22.814 58.9796 21.254 57.5116 19.866 55.0176C19.866 55.0246 22.859 83.5716 19.866 91.7816C19.866 91.7816 23.086 91.1336 24.706 87.0286Z" fill="#DC5C05"/>
<path d="M63.209 77.1566H46.79V93.8696H63.209V77.1566Z" fill="#FDCC9B"/>
<path d="M28.577 51.4987C28.599 55.3307 25.511 58.4547 21.679 58.4767C17.845 58.5017 14.721 55.4137 14.698 51.5807C14.677 47.7487 17.764 44.6217 21.597 44.6017C25.429 44.5787 28.554 47.6687 28.577 51.4987Z" fill="#FDCC9B"/>
<path d="M25.668 51.5147C25.683 53.7427 23.887 55.5577 21.661 55.5717C19.436 55.5837 17.621 53.7907 17.607 51.5637C17.593 49.3357 19.388 47.5227 21.613 47.5107C23.841 47.4947 25.654 49.2897 25.668 51.5147Z" fill="#F4B882"/>
<path d="M95.302 51.1066C95.325 54.9386 92.236 58.0636 88.403 58.0856C84.57 58.1106 81.445 55.0206 81.422 51.1886C81.399 47.3556 84.488 44.2316 88.321 44.2096C92.153 44.1856 95.276 47.2746 95.302 51.1066Z" fill="#FDCC9B"/>
<path d="M92.39 51.1236C92.406 53.3506 90.61 55.1645 88.384 55.1785C86.159 55.1905 84.344 53.3975 84.33 51.1685C84.316 48.9435 86.109 47.1286 88.339 47.1146C90.563 47.1036 92.377 48.8966 92.39 51.1236Z" fill="#F4B882"/>
<path d="M88.201 53.5797C88.29 68.4157 76.224 80.6246 61.387 80.7116L48.614 80.7837C33.778 80.8737 21.568 68.8067 21.479 53.9727L21.413 42.3637C21.324 27.5257 33.391 15.3167 48.225 15.2297L61.001 15.1537C75.837 15.0667 88.048 27.1337 88.135 41.9687L88.201 53.5797Z" fill="#FDCC9B"/>
<path d="M58.719 60.9307C58.726 62.2227 57.071 63.2806 55.024 63.2946C52.974 63.3066 51.307 62.2687 51.299 60.9737C51.291 59.6827 52.947 58.6256 54.996 58.6146C57.042 58.6006 58.709 59.6407 58.719 60.9307Z" fill="#F4B882"/>
<path d="M55.008 67.6356H45.824C45.824 67.6356 46.637 73.8956 55.008 73.8956C63.382 73.8956 64.194 67.6356 64.194 67.6356H55.008Z" fill="white"/>
<path d="M75.409 53.8176C75.409 55.7126 74.285 57.2616 72.911 57.2616C71.537 57.2616 70.414 55.7116 70.414 53.8176C70.414 51.9226 71.537 50.3746 72.911 50.3746C74.285 50.3746 75.409 51.9226 75.409 53.8176Z" fill="#352215"/>
<path d="M39.216 53.8176C39.216 55.7126 38.093 57.2616 36.719 57.2616C35.345 57.2616 34.221 55.7116 34.221 53.8176C34.221 51.9226 35.345 50.3746 36.719 50.3746C38.093 50.3736 39.216 51.9226 39.216 53.8176Z" fill="#352215"/>
<path d="M63.209 85.5126C61.778 87.8716 58.183 92.9476 54.659 92.8686C51.362 92.7956 48.129 87.7196 46.79 85.5126C46.79 85.5126 20.699 84.9086 14.698 100.229H54.816H54.999H95.118C89.116 84.9086 63.209 85.5126 63.209 85.5126Z" fill="#059D86"/>
<path d="M69.029 45.7856C71.403 44.5316 74.384 44.5886 76.509 46.2896C77.106 46.7646 77.955 45.9246 77.354 45.4436C74.787 43.3926 71.321 43.2266 68.428 44.7546C67.747 45.1136 68.35 46.1436 69.029 45.7856Z" fill="#6D4D42"/>
<path d="M40.584 45.7856C38.209 44.5316 35.229 44.5886 33.104 46.2896C32.509 46.7646 31.66 45.9246 32.259 45.4436C34.826 43.3926 38.292 43.2266 41.186 44.7546C41.865 45.1136 41.263 46.1436 40.584 45.7856Z" fill="#6D4D42"/>
<path d="M23.483 47.5136C23.483 47.5136 25.764 40.1426 27.438 38.8026C27.438 38.8026 69.735 44.8026 72.512 24.4216C72.512 24.4216 75.945 34.8636 84.611 39.9506C86.541 41.0826 87.435 47.5116 87.435 47.5116C87.435 47.5116 90.631 43.6216 92.557 45.6256C92.557 45.6256 94.433 37.2716 87.771 24.3746C80.935 11.1416 69.341 7.98362 56.977 10.6326C56.977 10.6326 46.736 8.06759 37.407 12.6596C28.076 17.2516 24.808 22.1416 21.936 27.9846C19.066 33.8276 18.605 45.3246 19.146 45.2866C22.053 45.0836 23.483 47.5136 23.483 47.5136Z" fill="#DC5C05"/>
</svg>
