<svg width="110" height="110" viewBox="0 0 110 110" fill="none" xmlns="http://www.w3.org/2000/svg">
<rect width="110" height="110" fill="#00ACC2" fill-opacity="0.1"/>
<path d="M63.2094 77.679H46.7894V94.391H63.2094V77.679Z" fill="#FDCC9B"/>
<path d="M28.5764 52.021C28.5994 55.853 25.5104 58.977 21.6804 59C17.8454 59.026 14.7214 55.936 14.6994 52.104C14.6774 48.271 17.7654 45.145 21.5984 45.125C25.4304 45.101 28.5534 48.19 28.5764 52.021Z" fill="#FDCC9B"/>
<path d="M25.6674 52.0371C25.6824 54.2641 23.8864 56.0791 21.6614 56.0941C19.4364 56.1051 17.6204 54.3121 17.6064 52.0851C17.5934 49.8571 19.3874 48.0441 21.6134 48.0331C23.8414 48.0171 25.6534 49.8121 25.6674 52.0371Z" fill="#F4B882"/>
<path d="M95.3014 51.628C95.3254 55.46 92.2354 58.586 88.4034 58.607C84.5704 58.632 81.4444 55.543 81.4214 51.711C81.3994 47.878 84.4874 44.755 88.3214 44.732C92.1524 44.707 95.2754 47.797 95.3014 51.628Z" fill="#FDCC9B"/>
<path d="M92.3894 51.646C92.4044 53.873 90.6085 55.687 88.3835 55.701C86.1585 55.712 84.3425 53.919 84.3285 51.692C84.3145 49.467 86.1075 47.652 88.3385 47.638C90.5635 47.626 92.3764 49.419 92.3894 51.646Z" fill="#F4B882"/>
<path d="M88.2014 54.102C88.2904 68.938 76.2224 81.147 61.3874 81.234L48.6134 81.306C33.7764 81.396 21.5674 69.328 21.4784 54.494L21.4124 42.885C21.3234 28.048 33.3914 15.839 48.2254 15.752L61.0004 15.676C75.8364 15.59 88.0484 27.655 88.1344 42.492L88.2014 54.102Z" fill="#FDCC9B"/>
<path d="M58.7184 61.453C58.7254 62.745 57.0704 63.804 55.0234 63.817C52.9744 63.829 51.3074 62.791 51.2984 61.496C51.2914 60.204 52.9464 59.147 54.9954 59.137C57.0414 59.123 58.7094 60.163 58.7184 61.453Z" fill="#F4B882"/>
<path d="M75.4084 54.339C75.4084 56.233 74.2844 57.783 72.9114 57.783C71.5374 57.783 70.4134 56.233 70.4134 54.339C70.4134 52.445 71.5374 50.895 72.9114 50.895C74.2844 50.896 75.4084 52.445 75.4084 54.339Z" fill="#352215"/>
<path d="M39.2164 54.339C39.2164 56.233 38.0924 57.783 36.7184 57.783C35.3454 57.783 34.2214 56.233 34.2214 54.339C34.2214 52.445 35.3454 50.895 36.7184 50.895C38.0924 50.896 39.2164 52.445 39.2164 54.339Z" fill="#352215"/>
<path d="M68.2854 45.9049C71.0764 43.5119 74.7684 43.8759 77.5134 46.1339C78.1834 46.6839 79.0094 45.6279 78.3434 45.0799C75.1634 42.4649 70.7314 42.0479 67.4754 44.8379C66.8214 45.3959 67.6274 46.4709 68.2854 45.9049Z" fill="#2D2C2B"/>
<path d="M41.3444 45.9049C38.5534 43.5119 34.8614 43.8759 32.1164 46.1339C31.4464 46.6839 30.6204 45.6279 31.2864 45.0799C34.4664 42.4649 38.8984 42.0479 42.1544 44.8379C42.8074 45.3959 42.0024 46.4709 41.3444 45.9049Z" fill="#2D2C2B"/>
<path d="M46.2624 67.9951C48.7634 73.7871 61.1324 73.851 63.3704 67.813C63.7154 66.885 62.2354 66.49 61.8954 67.406C60.0954 72.259 49.5204 71.709 47.5834 67.223C47.1914 66.319 45.8734 67.0991 46.2624 67.9951Z" fill="#F1A58D"/>
<path d="M63.2094 86.035C60.4394 90.6 49.5594 90.6 46.7894 86.035C46.7894 86.035 20.6984 85.431 14.6984 100.75H54.8154H54.9994H95.1174C89.1164 85.431 63.2094 86.035 63.2094 86.035Z" fill="#00ACC2"/>
<path d="M21.5984 45.124C21.5984 45.124 32.9864 35.251 36.7184 30.917C36.7184 30.917 57.6184 33.916 68.9514 26.583C68.9514 26.583 81.0114 41.564 88.1474 44.74C88.1474 44.74 95.3004 9.25 54.8064 9.25C14.6984 9.251 21.5984 45.124 21.5984 45.124Z" fill="#2D2C2B"/>
</svg>
