<svg width="110" height="110" viewBox="0 0 110 110" fill="none" xmlns="http://www.w3.org/2000/svg">
<rect width="110" height="110" fill="#C83432" fill-opacity="0.1"/>
<path d="M63.123 75.114H46.7031V101.019H63.123V75.114Z" fill="#FDCC9B"/>
<path d="M28.49 49.4561C28.513 53.2891 25.424 56.4121 21.594 56.4351C17.76 56.4601 14.6351 53.3711 14.6131 49.5391C14.5911 45.7061 17.679 42.5801 21.512 42.5591C25.343 42.5361 28.466 45.6251 28.49 49.4561Z" fill="#FDCC9B"/>
<path d="M25.581 49.4721C25.595 51.6991 23.8001 53.5151 21.5741 53.5291C19.3491 53.5401 17.534 51.7471 17.52 49.5201C17.506 47.2921 19.3011 45.4791 21.5261 45.4681C23.7541 45.4521 25.568 47.2471 25.581 49.4721Z" fill="#F4B882"/>
<path d="M95.214 49.0631C95.237 52.8951 92.1481 56.0211 88.3161 56.0421C84.4831 56.0671 81.357 52.9781 81.334 49.1461C81.312 45.3131 84.4001 42.1901 88.2331 42.1671C92.0661 42.1431 95.189 45.2321 95.214 49.0631Z" fill="#FDCC9B"/>
<path d="M92.3031 49.0812C92.3181 51.3082 90.523 53.1212 88.297 53.1362C86.072 53.1472 84.2571 51.3542 84.2431 49.1272C84.2291 46.9022 86.022 45.0862 88.252 45.0732C90.477 45.0612 92.2901 46.8542 92.3031 49.0812Z" fill="#F4B882"/>
<path d="M88.1151 51.5371C88.204 66.3731 76.1371 78.5821 61.3011 78.6691L48.528 78.7411C33.692 78.8311 21.4821 66.7631 21.3931 51.9291L21.3271 40.3201C21.2381 25.4831 33.305 13.2741 48.14 13.1871L60.9151 13.1111C75.7511 13.0241 87.9631 25.0901 88.05 39.9271L88.1151 51.5371Z" fill="#FDCC9B"/>
<path d="M58.632 58.888C58.638 60.179 56.9841 61.2381 54.9371 61.2511C52.8871 61.2631 51.2201 60.226 51.2121 58.931C51.2041 57.64 52.8601 56.582 54.9091 56.572C56.9551 56.558 58.623 57.597 58.632 58.888Z" fill="#F4B882"/>
<path d="M54.9191 63.592H43.485C43.485 63.592 44.4971 72.439 54.9191 72.439C65.3451 72.439 66.356 63.592 66.356 63.592H54.9191Z" fill="white"/>
<path d="M70.9531 51.774C70.9901 50.648 71.4691 49.04 72.8251 48.955C74.1721 48.871 74.6651 50.78 74.6971 51.774C74.7231 52.578 75.9731 52.581 75.9471 51.774C75.8861 49.897 74.9201 47.836 72.8251 47.705C70.7371 47.575 69.7581 50.103 69.7031 51.774C69.6761 52.581 70.9261 52.578 70.9531 51.774Z" fill="#352215"/>
<path d="M34.7591 51.774C34.7961 50.648 35.2761 49.04 36.6321 48.955C37.9791 48.871 38.4721 50.781 38.5041 51.774C38.5301 52.578 39.7801 52.581 39.7541 51.774C39.6931 49.898 38.7271 47.836 36.6321 47.705C34.5441 47.575 33.5641 50.103 33.5091 51.774C33.4831 52.581 34.7331 52.578 34.7591 51.774Z" fill="#352215"/>
<path d="M68.1991 43.3401C70.9901 40.9471 74.6831 41.3111 77.4271 43.5691C78.0971 44.1191 78.9231 43.0631 78.2571 42.5151C75.0771 39.9001 70.6441 39.4831 67.3881 42.2731C66.7361 42.8311 67.5401 43.9061 68.1991 43.3401Z" fill="#895837"/>
<path d="M41.257 43.3401C38.466 40.9471 34.774 41.3111 32.029 43.5691C31.359 44.1191 30.5331 43.0631 31.1991 42.5151C34.3791 39.9001 38.811 39.4831 42.067 42.2731C42.721 42.8311 41.915 43.9061 41.257 43.3401Z" fill="#895837"/>
<path d="M63.4771 87.8801C62.0471 90.2381 54.9281 100.019 54.9281 100.019C54.9281 100.019 48.3971 90.0871 47.0591 87.8801C47.0591 87.8801 20.9671 87.2761 14.9671 102.595H55.084H55.2681H95.3871C89.3851 87.2771 63.4771 87.8801 63.4771 87.8801Z" fill="#C83432"/>
<path d="M21.5511 42.561C21.5511 42.561 53.5901 34.685 66.3561 24.185C66.3561 24.185 79.7541 38.433 88.0631 42.559C88.0631 42.559 93.9881 7.40503 55.1771 7.40503C16.5411 7.40503 21.5511 42.561 21.5511 42.561Z" fill="#895837"/>
</svg>
