<svg width="110" height="110" viewBox="0 0 110 110" fill="none" xmlns="http://www.w3.org/2000/svg">
<rect width="110" height="110" fill="#EB82A0" fill-opacity="0.1"/>
<path d="M87.6134 59.7772C85.6484 56.6062 84.0694 53.6492 82.7924 50.9662C82.0274 51.7912 81.2544 52.1662 80.6154 51.7542C79.9394 54.7812 79.0384 57.6292 77.9774 60.1552C76.6834 63.2342 59.1484 67.2802 46.7244 70.4762C46.7484 70.2592 46.7884 70.0332 46.7944 69.8262C43.7094 66.8922 32.3174 65.2842 30.1634 60.1552C29.0884 57.5972 28.1764 54.7052 27.4974 51.6342C26.8854 52.1722 26.1294 51.9052 25.3684 51.1672C24.2084 53.8322 22.8884 56.7292 21.4074 59.7772C12.1144 78.8962 13.4964 91.6682 20.1454 99.8312C22.1164 98.9932 80.2824 96.2752 89.4244 100.044C96.7014 90.9032 98.1554 76.7832 87.6134 59.7772Z" fill="#966544"/>
<path d="M63.2084 78.7672H46.7894V95.4792H63.2084V78.7672Z" fill="#FDCC9B"/>
<path d="M28.5774 53.1093C28.5994 56.9413 25.5114 60.0653 21.6804 60.0883C17.8464 60.1143 14.7224 57.0243 14.7004 53.1923C14.6784 49.3593 17.7664 46.2333 21.5984 46.2133C25.4294 46.1893 28.5534 49.2783 28.5774 53.1093Z" fill="#FDCC9B"/>
<path d="M25.6674 53.1253C25.6824 55.3523 23.8864 57.1673 21.6614 57.1823C19.4364 57.1933 17.6204 55.4003 17.6064 53.1733C17.5924 50.9453 19.3874 49.1323 21.6124 49.1213C23.8414 49.1053 25.6544 50.9003 25.6674 53.1253Z" fill="#F4B882"/>
<path d="M95.3014 52.7162C95.3254 56.5482 92.2354 59.6742 88.4024 59.6952C84.5704 59.7202 81.4444 56.6312 81.4224 52.7992C81.3994 48.9662 84.4884 45.8432 88.3204 45.8202C92.1534 45.7952 95.2764 48.8852 95.3014 52.7162Z" fill="#FDCC9B"/>
<path d="M92.3894 52.7343C92.4054 54.9613 90.6094 56.7753 88.3844 56.7893C86.1594 56.8003 84.3434 55.0073 84.3294 52.7803C84.3154 50.5553 86.1084 48.7403 88.3394 48.7263C90.5644 48.7143 92.3764 50.5073 92.3894 52.7343Z" fill="#F4B882"/>
<path d="M88.2014 55.1902C88.2914 70.0262 76.2234 82.2353 61.3874 82.3223L48.6144 82.3943C33.7784 82.4843 21.5694 70.4163 21.4794 55.5823L21.4134 43.9733C21.3254 29.1363 33.3924 16.9272 48.2264 16.8402L61.0024 16.7643C75.8384 16.6783 88.0504 28.7432 88.1364 43.5802L88.2014 55.1902Z" fill="#FDCC9B"/>
<path d="M58.7184 62.5412C58.7254 63.8332 57.0704 64.8922 55.0234 64.9052C52.9744 64.9172 51.3064 63.8792 51.2984 62.5842C51.2904 61.2922 52.9464 60.2352 54.9954 60.2252C57.0414 60.2112 58.7084 61.2512 58.7184 62.5412Z" fill="#F4B882"/>
<path d="M75.4094 55.4273C75.4094 57.3213 74.2854 58.8713 72.9124 58.8713C71.5374 58.8713 70.4144 57.3213 70.4144 55.4273C70.4144 53.5333 71.5374 51.9833 72.9124 51.9833C74.2854 51.9843 75.4094 53.5333 75.4094 55.4273Z" fill="#352215"/>
<path d="M39.2164 55.4273C39.2164 57.3213 38.0924 58.8713 36.7184 58.8713C35.3454 58.8713 34.2204 57.3213 34.2204 55.4273C34.2204 53.5333 35.3454 51.9833 36.7184 51.9833C38.0924 51.9843 39.2164 53.5333 39.2164 55.4273Z" fill="#352215"/>
<path d="M46.5264 70.0832C49.0274 75.8752 61.3964 75.9392 63.6344 69.9012C63.9794 68.9732 62.4994 68.5782 62.1594 69.4942C60.3594 74.3472 49.7844 73.7972 47.8464 69.3112C47.4554 68.4072 46.1374 69.1872 46.5264 70.0832Z" fill="#F1A58D"/>
<path d="M63.2084 87.1232C61.7774 89.4812 58.1824 94.5582 54.6584 94.4792C51.3614 94.4062 48.1284 89.3302 46.7894 87.1232C46.7894 87.1232 20.6984 86.5192 14.6984 101.838H54.8154H54.9994H95.1174C89.1174 86.5192 63.2084 87.1232 63.2084 87.1232Z" fill="#FDCC9B"/>
<path d="M69.0294 47.3962C71.4034 46.1432 74.3834 46.2002 76.5084 47.9002C77.1054 48.3752 77.9544 47.5362 77.3534 47.0542C74.7864 45.0032 71.3204 44.8372 68.4274 46.3652C67.7464 46.7242 68.3504 47.7532 69.0294 47.3962Z" fill="#966544"/>
<path d="M40.5834 47.3962C38.2084 46.1432 35.2284 46.2002 33.1034 47.9002C32.5084 48.3752 31.6594 47.5362 32.2584 47.0542C34.8254 45.0032 38.2914 44.8372 41.1854 46.3652C41.8654 46.7242 41.2624 47.7532 40.5834 47.3962Z" fill="#966544"/>
<path d="M81.0734 90.0452C81.0734 90.0452 76.7244 88.0832 70.4334 87.6072C70.4334 87.6072 68.1824 92.6592 54.9994 92.7512C41.8164 92.6592 39.5654 87.6072 39.5654 87.6072C33.2744 88.0842 28.9254 90.0452 28.9254 90.0452C29.9874 97.8362 23.1134 101.838 23.1134 101.838H54.6394H55.3564H86.8825C86.8844 101.838 80.0114 97.8362 81.0734 90.0452Z" fill="#EB82A0"/>
<path d="M23.1104 51.1932C23.1104 51.1932 24.7034 41.9732 26.3804 40.4782C26.3804 40.4782 37.5054 37.8682 44.9314 38.9352C44.9314 38.9352 46.4634 31.9562 46.2174 27.4572C46.2174 27.4572 49.9784 32.6302 50.2324 38.9022C50.2324 38.9022 64.9334 39.3552 70.9224 38.7142C70.9224 38.7142 72.2214 30.6622 70.2694 28.1382C70.2694 28.1382 75.2524 34.6372 75.2644 38.9022C75.2644 38.9022 82.1954 40.0502 83.6314 41.7572C85.0704 43.4652 86.5934 51.9832 86.5934 51.9832C86.5934 51.9832 88.0574 45.3482 91.8514 46.8472C91.8514 46.8472 94.7034 38.4702 86.7974 24.3832C78.8934 10.2962 68.3424 6.10024 55.9614 9.05424C55.9614 9.05424 45.7044 6.19423 36.3624 11.3162C27.0184 16.4392 23.7444 21.8942 20.8704 28.4102C17.9954 34.9272 16.7464 47.3452 18.3624 46.9562C21.4534 46.2122 23.1104 51.1932 23.1104 51.1932Z" fill="#966544"/>
</svg>
