<svg width="110" height="110" viewBox="0 0 110 110" fill="none" xmlns="http://www.w3.org/2000/svg">
<rect width="110" height="110" fill="#00ACC2" fill-opacity="0.1"/>
<path d="M63.2089 80.764H46.7899V97.477H63.2089V80.764Z" fill="#BF8158"/>
<path d="M28.5769 55.106C28.5999 58.938 25.5109 62.062 21.6809 62.084C17.8459 62.11 14.7219 59.021 14.6999 55.188C14.6769 51.356 17.7659 48.229 21.5989 48.209C25.4309 48.186 28.5539 51.276 28.5769 55.106Z" fill="#BF8158"/>
<path d="M25.6679 55.122C25.6829 57.349 23.8869 59.164 21.6619 59.179C19.4369 59.19 17.6209 57.397 17.6069 55.17C17.5939 52.943 19.3879 51.129 21.6139 51.118C23.8419 51.102 25.6539 52.897 25.6679 55.122Z" fill="#AA6944"/>
<path d="M95.3009 54.713C95.3249 58.545 92.2349 61.671 88.4029 61.692C84.5709 61.717 81.4449 58.628 81.4229 54.796C81.3999 50.964 84.4889 47.84 88.3209 47.817C92.1519 47.793 95.2759 50.882 95.3009 54.713Z" fill="#BF8158"/>
<path d="M92.3899 54.731C92.4039 56.958 90.6089 58.771 88.3839 58.785C86.1589 58.797 84.3429 57.004 84.3289 54.776C84.3149 52.551 86.1079 50.736 88.3389 50.722C90.5639 50.711 92.3769 52.504 92.3899 54.731Z" fill="#AA6944"/>
<path d="M88.2009 57.188C88.2909 72.024 76.2239 84.233 61.3869 84.32L48.6139 84.392C33.7779 84.482 21.5689 72.415 21.4799 57.581L21.4139 45.972C21.3249 31.135 33.3929 18.926 48.2259 18.839L61.0019 18.763C75.8379 18.677 88.0499 30.742 88.1359 45.579L88.2009 57.188Z" fill="#BF8158"/>
<path d="M58.7189 64.5371C58.7259 65.8301 57.0709 66.8891 55.0239 66.9021C52.9749 66.9141 51.3069 65.8751 51.2989 64.5811C51.2909 63.2891 52.9469 62.2321 54.9959 62.2221C57.0419 62.2071 58.7089 63.2481 58.7189 64.5371Z" fill="#AA6944"/>
<path d="M75.4089 57.424C75.4089 59.319 74.2849 60.869 72.9119 60.869C71.5369 60.869 70.4139 59.318 70.4139 57.424C70.4139 55.531 71.5369 53.981 72.9119 53.981C74.2849 53.981 75.4089 55.531 75.4089 57.424Z" fill="#352215"/>
<path d="M39.2169 57.424C39.2169 59.319 38.0929 60.869 36.7189 60.869C35.3459 60.869 34.2219 59.318 34.2219 57.424C34.2219 55.531 35.3459 53.981 36.7189 53.981C38.0929 53.981 39.2169 55.531 39.2169 57.424Z" fill="#352215"/>
<path d="M68.2859 48.99C71.0769 46.597 74.7689 46.961 77.5129 49.219C78.1829 49.769 79.0089 48.713 78.3429 48.165C75.1629 45.55 70.7309 45.133 67.4749 47.923C66.8219 48.482 67.6279 49.556 68.2859 48.99Z" fill="#350304"/>
<path d="M41.3449 48.99C38.5539 46.597 34.8619 46.961 32.1169 49.219C31.4469 49.769 30.6209 48.713 31.2869 48.165C34.4669 45.55 38.8989 45.133 42.1549 47.923C42.8079 48.482 42.0029 49.556 41.3449 48.99Z" fill="#350304"/>
<path d="M63.2089 89.12C60.4389 93.685 49.5589 93.685 46.7899 89.12C46.7899 89.12 20.6989 88.5161 14.6989 103.836H54.8159H54.9999H95.1169C89.1169 88.5161 63.2089 89.12 63.2089 89.12Z" fill="#00ACC2"/>
<path d="M55.2629 70.8521H46.0789C46.0789 70.8521 46.8919 77.1121 55.2629 77.1121C63.6369 77.1121 64.4489 70.8521 64.4489 70.8521H55.2629Z" fill="white"/>
<path d="M87.9839 22.9581C86.1189 6.16405 54.5659 6.16406 54.5659 6.16406C54.5659 6.16406 26.1819 6.16405 21.1489 22.9581C19.8879 27.1631 15.0029 40.7461 19.4199 47.9301C23.3639 58.7851 22.2229 55.0701 22.9569 59.1791C22.9569 59.1791 25.9019 54.8871 25.4449 51.0441C24.9299 46.7171 26.9099 43.0261 26.3339 38.4321C25.7589 33.8391 27.2939 30.6711 35.3599 29.3791C43.4249 28.0871 47.8429 30.2411 54.5649 30.2411C61.2869 30.2411 65.7049 28.0881 73.7709 29.3791C81.8359 30.6711 83.3729 33.8391 82.7959 38.4321C82.2199 43.0261 84.1989 46.7171 83.6839 51.0441C83.2279 54.8871 86.9559 59.1791 86.9559 59.1791C86.7059 56.6861 89.7099 47.9301 89.7099 47.9301C94.1299 40.7461 88.4609 27.2521 87.9839 22.9581Z" fill="#350304"/>
</svg>
