<svg width="110" height="110" viewBox="0 0 110 110" fill="none" xmlns="http://www.w3.org/2000/svg">
<rect width="110" height="110" fill="#FCB316" fill-opacity="0.1"/>
<path d="M63.2094 78.0425H46.7894V94.7555H63.2094V78.0425Z" fill="#BF8158"/>
<path d="M28.5764 52.3844C28.5994 56.2164 25.5104 59.3404 21.6804 59.3624C17.8454 59.3874 14.7214 56.2994 14.6994 52.4664C14.6774 48.6344 17.7654 45.5074 21.5984 45.4874C25.4304 45.4644 28.5534 48.5544 28.5764 52.3844Z" fill="#BF8158"/>
<path d="M25.6674 52.4005C25.6824 54.6285 23.8864 56.4435 21.6614 56.4575C19.4364 56.4695 17.6204 54.6765 17.6064 52.4495C17.5934 50.2215 19.3874 48.4085 21.6134 48.3965C23.8414 48.3805 25.6534 50.1755 25.6674 52.4005Z" fill="#AA6944"/>
<path d="M95.3014 51.9925C95.3254 55.8245 92.2354 58.9495 88.4034 58.9715C84.5704 58.9965 81.4444 55.9065 81.4214 52.0745C81.3994 48.2415 84.4874 45.1175 88.3214 45.0955C92.1524 45.0715 95.2754 48.1605 95.3014 51.9925Z" fill="#BF8158"/>
<path d="M92.3894 52.0095C92.4044 54.2365 90.6085 56.0505 88.3835 56.0645C86.1585 56.0765 84.3425 54.2835 84.3285 52.0545C84.3145 49.8295 86.1075 48.0145 88.3385 48.0005C90.5635 47.9895 92.3764 49.7825 92.3894 52.0095Z" fill="#AA6944"/>
<path d="M88.2014 54.4655C88.2904 69.3015 76.2224 81.5105 61.3874 81.5975L48.6134 81.6695C33.7764 81.7595 21.5674 69.6925 21.4784 54.8585L21.4124 43.2495C21.3234 28.4115 33.3914 16.2025 48.2254 16.1155L61.0004 16.0395C75.8364 15.9525 88.0484 28.0195 88.1344 42.8545L88.2014 54.4655Z" fill="#BF8158"/>
<path d="M58.7184 61.8165C58.7254 63.1085 57.0704 64.1665 55.0234 64.1805C52.9744 64.1925 51.3074 63.1545 51.2984 61.8595C51.2914 60.5685 52.9464 59.5115 54.9954 59.5005C57.0414 59.4865 58.7094 60.5265 58.7184 61.8165Z" fill="#AA6944"/>
<path d="M75.4084 54.7035C75.4084 56.5985 74.2844 58.1475 72.9114 58.1475C71.5374 58.1475 70.4134 56.5975 70.4134 54.7035C70.4134 52.8085 71.5374 51.2605 72.9114 51.2605C74.2844 51.2595 75.4084 52.8085 75.4084 54.7035Z" fill="#352215"/>
<path d="M39.2164 54.7035C39.2164 56.5985 38.0924 58.1475 36.7184 58.1475C35.3454 58.1475 34.2214 56.5975 34.2214 54.7035C34.2214 52.8085 35.3454 51.2605 36.7184 51.2605C38.0924 51.2595 39.2164 52.8085 39.2164 54.7035Z" fill="#352215"/>
<path d="M68.2854 46.2695C71.0764 43.8765 74.7684 44.2405 77.5134 46.4975C78.1834 47.0465 79.0094 45.9915 78.3434 45.4425C75.1634 42.8275 70.7314 42.4115 67.4754 45.2005C66.8214 45.7595 67.6274 46.8345 68.2854 46.2695Z" fill="#2D2C2B"/>
<path d="M41.3444 46.2695C38.5534 43.8765 34.8614 44.2405 32.1164 46.4975C31.4464 47.0465 30.6204 45.9915 31.2864 45.4425C34.4664 42.8275 38.8984 42.4115 42.1544 45.2005C42.8074 45.7595 42.0024 46.8345 41.3444 46.2695Z" fill="#2D2C2B"/>
<path d="M46.2624 68.3585C48.7634 74.1505 61.1324 74.2144 63.3704 68.1754C63.7154 67.2474 62.2354 66.8534 61.8954 67.7694C60.0954 72.6224 49.5204 72.0725 47.5834 67.5855C47.1914 66.6835 45.8734 67.4625 46.2624 68.3585Z" fill="#A9703B"/>
<path d="M63.2094 86.3985C60.4394 90.9635 49.5594 90.9635 46.7894 86.3985C46.7894 86.3985 20.6984 85.7945 14.6984 101.114H54.8154H54.9994H95.1174C89.1164 85.7945 63.2094 86.3985 63.2094 86.3985Z" fill="#FCB316"/>
<path d="M55.2664 8.88945C55.2664 8.88945 16.0074 7.70945 18.3464 46.7515C18.3464 46.7515 22.2564 47.0574 23.2634 52.0344C23.2634 52.0344 23.0754 33.5254 28.1534 31.2234C33.2304 28.9204 45.9454 33.7564 55.2664 33.7564C64.5874 33.7564 77.3054 28.9204 82.3814 31.2234C87.4584 33.5264 87.2694 52.0344 87.2694 52.0344C88.2764 47.0564 92.1884 46.7515 92.1884 46.7515C94.5274 7.71045 55.2664 8.88945 55.2664 8.88945Z" fill="#350304"/>
</svg>
