<svg width="110" height="110" viewBox="0 0 110 110" fill="none" xmlns="http://www.w3.org/2000/svg">
<rect width="110" height="110" fill="#FCB316" fill-opacity="0.1"/>
<path d="M40.953 65.8786C38.242 65.8786 35.721 66.6685 33.585 68.0135C33.716 67.3215 33.791 66.6095 33.791 65.8795C33.791 59.5555 28.663 54.4305 22.34 54.4305C16.016 54.4305 10.89 59.5555 10.89 65.8795C10.89 69.2475 12.353 72.2676 14.668 74.3616C12.961 76.3616 11.925 78.9505 11.925 81.7865C11.925 88.1105 17.051 93.2366 23.375 93.2366C26.549 93.2366 29.421 91.9435 31.495 89.8575C33.973 92.1745 37.292 93.6035 40.953 93.6035C48.609 93.6035 54.817 87.3976 54.817 79.7406C54.817 72.0836 48.61 65.8786 40.953 65.8786Z" fill="#350304"/>
<path d="M69.047 65.8786C71.758 65.8786 74.279 66.6685 76.415 68.0135C76.284 67.3215 76.209 66.6095 76.209 65.8795C76.209 59.5555 81.337 54.4305 87.66 54.4305C93.984 54.4305 99.11 59.5555 99.11 65.8795C99.11 69.2475 97.647 72.2676 95.332 74.3616C97.039 76.3616 98.075 78.9505 98.075 81.7865C98.075 88.1105 92.949 93.2366 86.625 93.2366C83.451 93.2366 80.579 91.9435 78.505 89.8575C76.027 92.1745 72.708 93.6035 69.047 93.6035C61.391 93.6035 55.183 87.3976 55.183 79.7406C55.183 72.0836 61.391 65.8786 69.047 65.8786Z" fill="#350304"/>
<path d="M62.947 79.7405H46.528V96.4535H62.947V79.7405Z" fill="#BF8158"/>
<path d="M28.315 54.0824C28.337 57.9144 25.249 61.0384 21.418 61.0604C17.584 61.0864 14.46 57.9974 14.438 54.1644C14.416 50.3324 17.504 47.2054 21.336 47.1854C25.167 47.1624 28.291 50.2524 28.315 54.0824Z" fill="#BF8158"/>
<path d="M25.406 54.0985C25.421 56.3255 23.625 58.1405 21.4 58.1555C19.175 58.1665 17.359 56.3735 17.345 54.1465C17.331 51.9195 19.126 50.1055 21.351 50.0945C23.58 50.0785 25.392 51.8735 25.406 54.0985Z" fill="#AA6944"/>
<path d="M95.039 53.6895C95.062 57.5215 91.973 60.6475 88.139 60.6685C84.307 60.6935 81.181 57.6045 81.159 53.7725C81.136 49.9405 84.225 46.8165 88.057 46.7935C91.891 46.7695 95.014 49.8585 95.039 53.6895Z" fill="#BF8158"/>
<path d="M92.127 53.7075C92.143 55.9345 90.347 57.7475 88.122 57.7615C85.897 57.7735 84.081 55.9805 84.067 53.7525C84.053 51.5275 85.846 49.7125 88.077 49.6985C90.302 49.6875 92.115 51.4805 92.127 53.7075Z" fill="#AA6944"/>
<path d="M87.939 56.1645C88.029 71.0005 75.961 83.2095 61.124 83.2965L48.351 83.3685C33.515 83.4585 21.306 71.3915 21.216 56.5575L21.15 44.9485C21.062 30.1115 33.129 17.9025 47.963 17.8155L60.739 17.7395C75.575 17.6535 87.787 29.7185 87.873 44.5555L87.939 56.1645Z" fill="#BF8158"/>
<path d="M58.456 63.5134C58.463 64.8064 56.808 65.8654 54.761 65.8784C52.712 65.8904 51.044 64.8514 51.036 63.5574C51.028 62.2654 52.684 61.2084 54.733 61.1984C56.78 61.1834 58.447 62.2244 58.456 63.5134Z" fill="#AA6944"/>
<path d="M54.745 70.2185H45.561C45.561 70.2185 46.374 76.4785 54.745 76.4785C63.119 76.4785 63.931 70.2185 63.931 70.2185H54.745Z" fill="white"/>
<path d="M75.147 56.4005C75.147 58.2955 74.023 59.8455 72.65 59.8455C71.275 59.8455 70.152 58.2945 70.152 56.4005C70.152 54.5075 71.275 52.9575 72.65 52.9575C74.023 52.9575 75.147 54.5075 75.147 56.4005Z" fill="#352215"/>
<path d="M38.955 56.4005C38.955 58.2955 37.831 59.8455 36.457 59.8455C35.084 59.8455 33.959 58.2945 33.959 56.4005C33.959 54.5075 35.084 52.9575 36.457 52.9575C37.831 52.9575 38.955 54.5075 38.955 56.4005Z" fill="#352215"/>
<path d="M62.947 88.0965C61.516 90.4545 57.921 95.5315 54.397 95.4535C51.1 95.3805 47.867 90.3045 46.528 88.0965C46.528 88.0965 20.437 87.4925 14.437 102.812H54.554H54.738H94.856C88.855 87.4925 62.947 88.0965 62.947 88.0965Z" fill="#FCB316"/>
<path d="M68.767 48.3695C71.141 47.1165 74.121 47.1735 76.246 48.8735C76.843 49.3485 77.692 48.5095 77.091 48.0275C74.524 45.9765 71.058 45.8105 68.165 47.3385C67.485 47.6975 68.088 48.7265 68.767 48.3695Z" fill="#350304"/>
<path d="M40.322 48.3695C37.947 47.1165 34.967 47.1735 32.842 48.8735C32.247 49.3485 31.398 48.5095 31.997 48.0275C34.564 45.9765 38.03 45.8105 40.924 47.3385C41.603 47.6975 41 48.7265 40.322 48.3695Z" fill="#350304"/>
<path d="M89.566 34.2715C90.329 32.7385 90.768 31.0165 90.768 29.1865C90.768 22.8625 85.64 17.7375 79.317 17.7375C77.459 17.7375 75.711 18.1895 74.159 18.9745C72.276 15.2295 68.409 12.6545 63.931 12.6545C61.328 12.6545 58.937 13.5325 57.014 14.9945C54.293 10.3305 49.249 7.1875 43.46 7.1875C35.704 7.1875 29.279 12.8175 28.011 20.2115C21.828 20.3745 16.865 25.4245 16.865 31.6455C16.865 34.1045 17.647 36.3765 18.965 38.2415C16.63 39.1935 14.984 41.4835 14.984 44.1605C14.984 47.6905 17.845 50.5525 21.376 50.5525C24.907 50.5525 27.769 47.6905 27.769 44.1605C27.769 43.7855 27.73 43.4205 27.668 43.0635C27.884 43.0755 28.097 43.0965 28.315 43.0965C32.453 43.0965 36.068 40.8945 38.08 37.6045C39.761 38.2185 41.567 38.5715 43.461 38.5715C48.576 38.5715 53.107 36.1135 55.972 32.3245C58.033 34.3205 60.836 35.5535 63.932 35.5535C65.79 35.5535 67.539 35.1005 69.091 34.3155C70.973 38.0605 74.84 40.6365 79.318 40.6365C79.326 40.6365 79.333 40.6355 79.34 40.6355C79.331 40.7835 79.318 40.9295 79.318 41.0795C79.318 45.1585 82.625 48.4645 86.703 48.4645C90.782 48.4645 94.089 45.1585 94.089 41.0795C94.087 38.0165 92.222 35.3895 89.566 34.2715Z" fill="#350304"/>
</svg>
