<svg width="224" height="177" viewBox="0 0 224 177" fill="none" xmlns="http://www.w3.org/2000/svg">
<path d="M112.903 156.622L24.5364 41.8955L37.5108 35.3242L124.197 113.531L112.903 156.622Z" fill="#ED7A77"/>
<path d="M129.473 92.1319L204.565 92.1319L204.565 37.5951C204.565 16.8923 187.723 0.0488281 167.019 0.0488281C146.315 0.0488281 129.473 16.8909 129.473 37.5951L129.473 92.1319ZM194.76 82.3262L139.28 82.3262L139.28 37.5951C139.28 22.2995 151.724 9.85459 167.021 9.85459C182.316 9.85459 194.761 22.2995 194.761 37.5951L194.76 82.3262Z" fill="#ED7A77"/>
<path d="M110.042 167.061L224 167.061L209.99 46.0898L124.05 46.0898L110.042 167.061Z" fill="#DA564C"/>
<path d="M142.7 94.0756C139.578 91.0779 139.478 86.1161 142.476 82.9937C145.474 79.8713 150.436 79.7718 153.558 82.7696C156.681 85.7687 166.287 99.861 163.288 102.982C160.29 106.105 145.821 97.0734 142.7 94.0756Z" fill="#F9B050"/>
<path d="M180.484 130.364C183.606 133.364 188.568 133.263 191.566 130.14C194.564 127.018 194.464 122.058 191.342 119.058C188.219 116.059 173.752 107.03 170.752 110.151C167.755 113.274 177.362 127.367 180.484 130.364Z" fill="#F9B050"/>
<path d="M154.529 130.888C151.531 134.011 146.569 134.11 143.447 131.112C140.324 128.113 140.225 123.153 143.223 120.03C146.22 116.908 160.314 107.301 163.435 110.3C166.558 113.298 157.526 127.766 154.529 130.888Z" fill="#F9B050"/>
<path d="M190.817 93.1049C193.816 89.9825 193.715 85.0208 190.593 82.023C187.47 79.0239 182.509 79.1247 179.511 82.2472C176.513 85.3696 167.482 99.8373 170.603 102.836C173.724 105.836 187.819 96.2274 190.817 93.1049Z" fill="#F9B050"/>
<path d="M140.99 114.931C136.662 115.018 133.083 111.58 132.996 107.253C132.909 102.925 136.346 99.3454 140.674 99.2586C145.002 99.1717 161.759 102.343 161.847 106.67C161.935 110.999 145.319 114.844 140.99 114.931Z" fill="#F9B050"/>
<path d="M193.367 113.875C197.694 113.788 201.132 110.209 201.045 105.881C200.958 101.554 197.379 98.1159 193.051 98.2028C188.722 98.2896 172.107 102.135 172.194 106.463C172.282 110.791 189.04 113.963 193.367 113.875Z" fill="#F9B050"/>
<path d="M175.384 132.598C175.471 136.926 172.033 140.506 167.706 140.593C163.378 140.68 159.799 137.242 159.712 132.915C159.625 128.588 162.796 111.83 167.123 111.742C171.452 111.653 175.297 128.27 175.384 132.598Z" fill="#F9B050"/>
<path d="M174.328 80.2215C174.241 75.8944 170.662 72.4568 166.334 72.5436C162.005 72.6305 158.568 76.2096 158.656 80.5381C158.743 84.8652 162.588 101.482 166.915 101.395C171.244 101.307 174.415 84.5486 174.328 80.2215Z" fill="#F9B050"/>
<path d="M158.844 115.08C154.142 110.564 153.992 103.09 158.508 98.3893C163.024 93.6867 170.498 93.5368 175.199 98.0531C179.901 102.569 180.051 110.043 175.535 114.744C171.019 119.446 163.545 119.596 158.844 115.08Z" fill="white"/>
<path d="M0.474319 45.7422L14.1604 48.4318L32.3431 52.0179L32.6933 52.0879C38.3666 53.1946 43.8718 49.5104 44.9785 43.8371L45.2727 42.3242L48.8027 24.4217L51.3242 11.6182L0.474319 45.7422Z" fill="#3173B2"/>
<path d="M0.474319 45.7422L14.1604 48.4318L48.8027 24.4217L51.3242 11.6182L0.474319 45.7422Z" fill="#6BB3EA"/>
<path d="M119.979 177.001L214.062 177.001C219.55 177.001 224 172.552 224 167.063L110.041 167.063C110.041 172.551 114.49 177.001 119.979 177.001Z" fill="#ED7A77"/>
</svg>
