<svg width="80" height="80" viewBox="0 0 80 80" fill="none" xmlns="http://www.w3.org/2000/svg">
<path d="M30.1842 29.1334C32.2863 27.41 35.728 27.5769 37.0264 30.1527C38.7875 33.6461 36.6021 40.5394 32.2891 41.2774C25.9386 42.3644 26.8998 31.8256 30.1842 29.1334Z" fill="#663428"/>
<path d="M36.4615 37.0658C38.83 36.0182 39.01 36.3741 40.7344 37.7554C42.4993 39.1682 44.9552 39.9995 45.8404 42.3231C47.6146 46.9781 41.4054 50.4191 37.4735 49.1973C34.9969 48.4282 33.8968 45.6959 33.2997 43.3776C32.4681 40.1484 33.5571 38.3504 36.4615 37.0658Z" fill="#663428"/>
<path d="M52.4966 35.6291C53.576 34.8454 55.6878 34.2729 57.058 34.5956C58.9684 35.0455 59.299 37.1054 59.6445 38.7642C60.0737 40.8242 60.4219 43.2548 58.7618 44.8829C56.6479 46.9539 50.4477 44.7543 49.9322 41.9222C49.4599 39.3264 50.418 37.1386 52.4966 35.6291Z" fill="#7F4432"/>
<path d="M33.3191 56.4519C33.0154 55.1535 33.3063 52.9847 34.1355 51.8463C35.2909 50.26 37.3177 50.7541 38.981 51.0789C41.0464 51.4818 43.4218 52.104 44.2787 54.2645C45.3681 57.0165 40.9365 61.8789 38.1258 61.2559C35.5497 60.6851 33.9044 58.9524 33.3191 56.4519Z" fill="#663428"/>
<path d="M21.6031 51.6316C19.9623 49.8771 19.1096 47.2488 21.392 45.4373C23.4571 43.7979 27.3811 44.0041 29.4856 45.4149C31.8645 47.0087 31.5549 51.3421 29.7821 53.4774C29.1087 54.2886 27.8558 55.1286 26.7647 55.1607C24.7725 55.2201 23.5121 53.3412 22.1528 52.161C21.9628 51.9955 21.7787 51.8186 21.6031 51.6316Z" fill="#663428"/>
<path d="M22.3083 40.5644C23.5611 35.6374 28.6536 37.3895 30.9723 40.3902C32.5326 42.409 33.8832 48.1421 32.1598 50.3302C28.751 54.6581 22.2136 47.6459 22.0391 43.9424C21.9749 42.5908 22.0778 41.4724 22.3083 40.5644Z" fill="#A05D44"/>
<path d="M26.754 40.1021C28.277 40.2217 29.9918 42.5459 28.9494 43.9159C26.622 46.9764 23.3131 39.8333 26.754 40.1021Z" fill="#BF735C"/>
<path d="M38.1058 39.768C38.179 39.8744 38.2516 39.9809 38.3252 40.0869C37.3947 39.4429 36.6059 37.6407 36.4107 36.5423C35.843 33.3488 36.9832 30.7153 40.0437 29.4445C41.4759 28.8499 44.1384 27.9595 45.0858 29.8574C45.5422 30.7723 44.638 32.1917 45.1542 33.0613C45.6379 33.8753 47.4422 33.8176 48.1625 34.4492C50.114 36.1609 49.1376 40.1415 47.2355 41.5446C44.7458 43.3796 39.852 42.3044 38.1058 39.768Z" fill="#A05D44"/>
<path d="M44.9873 35.0873C45.68 35.2864 46.4374 35.4356 46.9142 36.0347C47.6788 36.9953 47.0621 38.0166 46.1769 38.6098C45.0958 39.3344 43.295 39.1706 42.1862 38.5234C41.1445 37.9157 40.6491 36.4569 41.14 35.3206C41.8404 33.7005 43.8143 34.7512 44.9873 35.0873Z" fill="#BF735C"/>
<path d="M40.2549 30.9144C40.5935 30.1402 42.1096 29.9847 42.7888 30.2044C43.4146 30.4069 44.0931 31.137 43.7483 31.8822C43.0898 33.3064 39.426 32.8106 40.2549 30.9144Z" fill="#BF735C"/>
<path d="M44.2351 45.1732C47.7997 44.2648 52.0847 45.9101 53.7698 49.2526C56.5259 54.7213 50.7752 58.3786 45.9063 58.2601C38.123 58.0711 36.0765 47.2521 44.2351 45.1732Z" fill="#A05D44"/>
<path d="M42.5839 49.1946C43.6225 47.796 46.1516 46.8089 47.7444 46.944C50.683 47.1921 51.5164 51.069 49.1299 52.4808C47.6055 53.3829 44.934 53.5792 43.4463 52.5071C41.8604 51.3645 41.8538 50.178 42.5839 49.1946Z" fill="#BF735C"/>
<g filter="url(#filter0_i_136_22)">
<path d="M0 10C0 4.47715 4.47715 0 10 0H70C75.5229 0 80 4.47715 80 10V50C80 66.5685 66.5685 80 50 80H30C13.4315 80 0 66.5685 0 50V10Z" fill="#E7E6EC" fill-opacity="0.5"/>
</g>
<rect y="10" width="80" height="5" fill="black" fill-opacity="0.02"/>
<defs>
<filter id="filter0_i_136_22" x="0" y="0" width="80" height="80" filterUnits="userSpaceOnUse" color-interpolation-filters="sRGB">
<feFlood flood-opacity="0" result="BackgroundImageFix"/>
<feBlend mode="normal" in="SourceGraphic" in2="BackgroundImageFix" result="shape"/>
<feColorMatrix in="SourceAlpha" type="matrix" values="0 0 0 0 0 0 0 0 0 0 0 0 0 0 0 0 0 0 127 0" result="hardAlpha"/>
<feOffset dy="-5"/>
<feComposite in2="hardAlpha" operator="arithmetic" k2="-1" k3="1"/>
<feColorMatrix type="matrix" values="0 0 0 0 0 0 0 0 0 0 0 0 0 0 0 0 0 0 0.02 0"/>
<feBlend mode="normal" in2="shape" result="effect1_innerShadow_136_22"/>
</filter>
</defs>
</svg>
