<svg width="80" height="80" viewBox="0 0 80 80" fill="none" xmlns="http://www.w3.org/2000/svg">
<path d="M39.6107 50.2201C41.5137 48.414 43.8355 47.0398 45.8352 46.4234C48.395 45.6338 52.4315 47.1817 52.0711 50.7232C51.6706 54.6595 48.5966 58.6765 45.4239 60.7741C42.2647 62.8626 37.0705 63.8328 35.9897 58.9657C35.2865 55.7961 37.0773 52.6249 39.6107 50.2201Z" fill="#CEAD84"/>
<path d="M23.0465 44.0012C22.2921 41.4888 22.1119 38.7966 22.4623 36.7342C22.9115 34.0929 26.1121 31.1873 29.1114 33.1055C32.4448 35.2364 34.6454 39.7909 35.088 43.5689C35.5287 47.3303 34.0539 52.4048 29.2224 51.1759C26.075 50.3748 24.0515 47.3471 23.0465 44.0012Z" fill="#D8BA87"/>
<path d="M23.7462 34.4116C23.7462 34.4116 27.9786 37.2747 30.2197 45.865C30.2197 45.865 29.2235 37.8972 25.6136 32.6689C25.6136 32.6689 24.1196 33.042 23.7462 34.4116Z" fill="#8B995E"/>
<path d="M31.4711 48.2752C33.5791 43.1142 42.2807 37.3232 44.8455 44.7111C46.3861 49.1486 40.9459 54.3229 37.1481 55.712C32.5814 57.3819 30.4378 53.679 31.0645 49.6868C31.1364 49.2293 31.2753 48.7549 31.4711 48.2752Z" fill="#EFD6A3"/>
<path d="M42.0497 41.5928C42.0497 41.5928 41.3098 45.8826 35.6924 51.4861C35.6924 51.4861 42.1904 48.3364 43.697 42.6774C43.697 42.6774 43.1128 41.3659 42.0497 41.5928Z" fill="#575E38"/>
<path d="M39.2052 38.7157C35.3003 34.7373 33.4265 24.4542 41.226 25.0227C45.9106 25.3647 48.5094 32.4086 48.2814 36.4455C48.0078 41.3 43.7586 41.8031 40.3403 39.648C39.9486 39.4009 39.5683 39.0857 39.2052 38.7157Z" fill="#EFD6A3"/>
<path d="M37.2556 26.3559C37.2556 26.3559 40.9019 28.7332 43.8244 36.11C43.8244 36.11 43.5042 28.8958 38.9034 25.2725C38.9034 25.2725 37.4684 25.2901 37.2556 26.3559Z" fill="#AAB579"/>
<path d="M47.3525 50.396C47.0537 44.4248 52.523 34.4481 58.0653 40.1094C61.3941 43.5097 59.9969 52.1004 57.1181 55.3775C53.6562 59.3188 48.7409 56.0409 47.5897 51.9416C47.4577 51.4715 47.3804 50.9508 47.3525 50.396Z" fill="#EFD6A3"/>
<path d="M52.0084 39.332C52.0084 39.332 54.608 44.1727 54.6975 51.7924C54.6975 51.7924 56.3904 44.657 55.3249 38.5251C55.3249 38.5251 54.0705 37.8977 52.0084 39.332Z" fill="#AAB579"/>
<path d="M26.6037 63.8815C21.8051 61.948 16.3917 53.8983 23.2366 51.4854C27.3478 50.0358 32.1743 55.0624 33.48 58.5798C35.0501 62.8107 31.623 64.8169 27.9155 64.2534C27.4905 64.1887 27.0497 64.0617 26.6037 63.8815Z" fill="#EFD6A3"/>
<g filter="url(#filter0_i_136_21)">
<path d="M0 10C0 4.47715 4.47715 0 10 0H70C75.5229 0 80 4.47715 80 10V50C80 66.5685 66.5685 80 50 80H30C13.4315 80 0 66.5685 0 50V10Z" fill="#E7E6EC" fill-opacity="0.5"/>
</g>
<rect y="10" width="80" height="5" fill="black" fill-opacity="0.02"/>
<defs>
<filter id="filter0_i_136_21" x="0" y="0" width="80" height="80" filterUnits="userSpaceOnUse" color-interpolation-filters="sRGB">
<feFlood flood-opacity="0" result="BackgroundImageFix"/>
<feBlend mode="normal" in="SourceGraphic" in2="BackgroundImageFix" result="shape"/>
<feColorMatrix in="SourceAlpha" type="matrix" values="0 0 0 0 0 0 0 0 0 0 0 0 0 0 0 0 0 0 127 0" result="hardAlpha"/>
<feOffset dy="-5"/>
<feComposite in2="hardAlpha" operator="arithmetic" k2="-1" k3="1"/>
<feColorMatrix type="matrix" values="0 0 0 0 0 0 0 0 0 0 0 0 0 0 0 0 0 0 0.02 0"/>
<feBlend mode="normal" in2="shape" result="effect1_innerShadow_136_21"/>
</filter>
</defs>
</svg>
