<svg width="80" height="80" viewBox="0 0 80 80" fill="none" xmlns="http://www.w3.org/2000/svg">
<path d="M58.4943 53.1656C58.4519 54.564 57.755 56.2696 56.3201 58.0545C54.3198 60.5458 52.8898 65.8493 48.7125 65.4226C40.3091 64.5633 46.0016 52.3732 50.8306 50.5299C55.7751 48.6421 58.5827 50.2252 58.4943 53.1656Z" fill="#D8BC8B"/>
<path d="M35.2195 24.2264C36.539 24.6913 37.9524 25.8734 39.2175 27.7828C40.9837 30.4451 45.6027 33.4179 43.927 37.2687C40.5566 45.0145 30.671 35.8889 30.3813 30.7278C30.0845 25.443 32.4455 23.2485 35.2195 24.2264Z" fill="#D8BC8B"/>
<path d="M31.7813 38.5186C33.1805 38.5248 34.9031 39.1777 36.7249 40.5666C39.2669 42.5021 48.1898 46.0585 46.2253 49.7698C42.4895 56.8261 28.684 52.4744 26.7165 47.6944C24.7017 42.7997 28.84 38.5061 31.7813 38.5186Z" fill="#D8BC8B"/>
<mask id="mask0_136_20" style="mask-type:luminance" maskUnits="userSpaceOnUse" x="20" y="44" width="18" height="20">
<path d="M27.154 62.8549C23.549 61.3112 20.7169 57.8283 20.0864 53.956C19.5921 50.9243 21.1835 43.4042 25.7747 44.0854C28.8351 44.5399 28.811 48.8019 30.0928 50.8803C31.7436 53.5571 35.5519 53.8419 37.1873 56.4274C39.4869 60.0618 36.3468 63.3713 32.707 63.7274C30.7544 63.9188 28.86 63.5855 27.154 62.8549Z" fill="white"/>
</mask>
<g mask="url(#mask0_136_20)">
<path d="M27.154 62.8549C23.549 61.3112 20.7169 57.8283 20.0864 53.956C19.5921 50.9243 21.1835 43.4042 25.7747 44.0854C28.8351 44.5399 28.811 48.8019 30.0928 50.8803C31.7436 53.5571 35.5519 53.8419 37.1873 56.4274C39.4869 60.0618 36.3468 63.3713 32.707 63.7274C30.7544 63.9188 28.86 63.5855 27.154 62.8549Z" fill="#EFD6A3"/>
</g>
<mask id="mask1_136_20" style="mask-type:luminance" maskUnits="userSpaceOnUse" x="20" y="44" width="18" height="20">
<path d="M27.154 62.8549C23.549 61.3112 20.7169 57.8283 20.0864 53.956C19.5921 50.9243 21.1835 43.4042 25.7747 44.0854C28.8351 44.5399 28.811 48.8019 30.0928 50.8803C31.7436 53.5571 35.5519 53.8419 37.1873 56.4274C39.4869 60.0618 36.3468 63.3713 32.707 63.7274C30.7544 63.9188 28.86 63.5855 27.154 62.8549Z" fill="white"/>
</mask>
<g mask="url(#mask1_136_20)">
<path d="M30.0372 59.3156C35.3457 61.6127 39.4097 56.9617 36.9927 52.9338C35.6719 50.7338 33.1984 48.978 30.8698 47.9985C22.4852 44.4723 24.1688 56.7766 30.0372 59.3156Z" fill="#F9EBD4"/>
</g>
<mask id="mask2_136_20" style="mask-type:luminance" maskUnits="userSpaceOnUse" x="41" y="28" width="19" height="13">
<path d="M46.6836 28.7678C49.8681 27.6134 53.7097 28.1381 56.3936 30.2077C58.4939 31.8273 61.9295 37.509 58.6329 39.7898C56.4351 41.3094 53.9346 38.6073 51.8991 38.054C49.2783 37.34 46.7089 39.4088 44.1512 38.7438C40.5553 37.8095 40.5823 33.8687 42.6673 31.4957C43.7855 30.2226 45.1768 29.3144 46.6836 28.7678Z" fill="white"/>
</mask>
<g mask="url(#mask2_136_20)">
<path d="M46.6836 28.7678C49.8681 27.6134 53.7097 28.1381 56.3936 30.2077C58.4939 31.8273 61.9295 37.509 58.6329 39.7898C56.4351 41.3094 53.9346 38.6073 51.8991 38.054C49.2783 37.34 46.7089 39.4088 44.1512 38.7438C40.5553 37.8095 40.5823 33.8687 42.6673 31.4957C43.7855 30.2226 45.1768 29.3144 46.6836 28.7678Z" fill="#EFD6A3"/>
</g>
<mask id="mask3_136_20" style="mask-type:luminance" maskUnits="userSpaceOnUse" x="41" y="28" width="19" height="13">
<path d="M46.6836 28.7678C49.8681 27.6134 53.7097 28.1381 56.3936 30.2077C58.4939 31.8273 61.9295 37.509 58.6329 39.7898C56.4351 41.3094 53.9346 38.6073 51.8991 38.054C49.2783 37.34 46.7089 39.4088 44.1512 38.7438C40.5553 37.8095 40.5823 33.8687 42.6673 31.4957C43.7855 30.2226 45.1768 29.3144 46.6836 28.7678Z" fill="white"/>
</mask>
<g mask="url(#mask3_136_20)">
<path d="M43.2907 28.2476C39.8356 31.8568 42.3821 36.5447 46.3698 35.7971C48.5482 35.3883 50.7128 33.9131 52.2054 32.3208C57.5791 26.5894 47.1095 24.2579 43.2907 28.2476Z" fill="#F4E1BA"/>
</g>
<mask id="mask4_136_20" style="mask-type:luminance" maskUnits="userSpaceOnUse" x="40" y="41" width="14" height="19">
<path d="M48.8892 41.2706C48.9013 41.2698 48.9129 41.2698 48.9249 41.2694C50.4051 41.225 52.7449 41.9991 53.0517 43.625C53.4767 45.8768 50.7692 47.3155 50.3715 49.366C49.8784 51.9067 52.4988 53.4088 52.6312 55.7047C52.7902 58.4454 49.5247 60.0182 47.1243 59.711C39.3914 58.721 38.54 48.9011 43.1844 43.9977C44.5894 42.5138 46.8134 41.3458 48.8892 41.2706Z" fill="white"/>
</mask>
<g mask="url(#mask4_136_20)">
<path d="M48.8892 41.2706C48.9013 41.2698 48.9129 41.2698 48.9249 41.2694C50.4051 41.225 52.7449 41.9991 53.0517 43.625C53.4767 45.8768 50.7692 47.3155 50.3715 49.366C49.8784 51.9067 52.4988 53.4088 52.6312 55.7047C52.7902 58.4454 49.5247 60.0182 47.1243 59.711C39.3914 58.721 38.54 48.9011 43.1844 43.9977C44.5894 42.5138 46.8134 41.3458 48.8892 41.2706Z" fill="#F4E0B3"/>
</g>
<mask id="mask5_136_20" style="mask-type:luminance" maskUnits="userSpaceOnUse" x="40" y="41" width="14" height="19">
<path d="M48.8892 41.2706C48.9013 41.2698 48.9129 41.2698 48.9249 41.2694C50.4051 41.225 52.7449 41.9991 53.0517 43.625C53.4767 45.8768 50.7692 47.3155 50.3715 49.366C49.8784 51.9067 52.4988 53.4088 52.6312 55.7047C52.7902 58.4454 49.5247 60.0182 47.1243 59.711C39.3914 58.721 38.54 48.9011 43.1844 43.9977C44.5894 42.5138 46.8134 41.3458 48.8892 41.2706Z" fill="white"/>
</mask>
<g mask="url(#mask5_136_20)">
<path d="M55.0075 44.0247C53.3472 42.3801 50.8895 41.9206 47.9732 43.9765C45.9874 45.3758 44.7895 47.6039 44.7364 50.0222C44.582 57.1686 53.2044 61.5199 56.5973 53.7708C58.021 50.5207 57.2232 46.2184 55.0075 44.0247Z" fill="#F9E9C7"/>
</g>
<mask id="mask6_136_20" style="mask-type:luminance" maskUnits="userSpaceOnUse" x="22" y="31" width="19" height="19">
<path d="M30.8893 44.3151C30.8279 44.2009 30.7627 44.0868 30.6934 43.9747C28.7541 40.8226 24.3103 40.2008 22.8292 36.6257C21.848 34.256 23.4477 32.3089 25.7273 31.7904C30.3501 30.7403 35.2925 32.9406 38.2516 36.4916C39.7102 38.2416 40.7674 40.5188 40.647 42.8411C40.5088 45.4819 38.5832 49.1952 35.6619 49.394C31.8838 49.651 32.2126 46.7811 30.8893 44.3151Z" fill="white"/>
</mask>
<g mask="url(#mask6_136_20)">
<path d="M30.8893 44.3151C30.8279 44.2009 30.7627 44.0868 30.6934 43.9747C28.7541 40.8226 24.3103 40.2008 22.8292 36.6257C21.848 34.256 23.4477 32.3089 25.7273 31.7904C30.3501 30.7403 35.2925 32.9406 38.2516 36.4916C39.7102 38.2416 40.7674 40.5188 40.647 42.8411C40.5088 45.4819 38.5832 49.1952 35.6619 49.394C31.8838 49.651 32.2126 46.7811 30.8893 44.3151Z" fill="#F4E0B3"/>
</g>
<mask id="mask7_136_20" style="mask-type:luminance" maskUnits="userSpaceOnUse" x="22" y="31" width="19" height="19">
<path d="M30.8893 44.3151C30.8279 44.2009 30.7627 44.0868 30.6934 43.9747C28.7541 40.8226 24.3103 40.2008 22.8292 36.6257C21.848 34.256 23.4477 32.3089 25.7273 31.7904C30.3501 30.7403 35.2925 32.9406 38.2516 36.4916C39.7102 38.2416 40.7674 40.5188 40.647 42.8411C40.5088 45.4819 38.5832 49.1952 35.6619 49.394C31.8838 49.651 32.2126 46.7811 30.8893 44.3151Z" fill="white"/>
</mask>
<g mask="url(#mask7_136_20)">
<path d="M25.0039 41.8512C25.0927 41.6142 24.7283 41.3697 24.4842 41.1517C23.9683 40.6918 23.632 40.3087 23.3548 39.6512C21.9833 36.3908 28.0419 35.4041 30.0127 36.1475C33.2864 37.382 35.6715 40.7794 36.7602 43.9535C37.5937 46.3838 37.9901 49.8527 34.6396 50.4226C33.142 50.677 32.3512 49.3475 31.1035 49.1528L25.0039 41.8512Z" fill="#F9EBD4"/>
</g>
<g filter="url(#filter0_i_136_20)">
<path d="M0 10C0 4.47715 4.47715 0 10 0H70C75.5229 0 80 4.47715 80 10V50C80 66.5685 66.5685 80 50 80H30C13.4315 80 0 66.5685 0 50V10Z" fill="#E7E6EC" fill-opacity="0.5"/>
</g>
<rect y="10" width="80" height="5" fill="black" fill-opacity="0.02"/>
<defs>
<filter id="filter0_i_136_20" x="0" y="0" width="80" height="80" filterUnits="userSpaceOnUse" color-interpolation-filters="sRGB">
<feFlood flood-opacity="0" result="BackgroundImageFix"/>
<feBlend mode="normal" in="SourceGraphic" in2="BackgroundImageFix" result="shape"/>
<feColorMatrix in="SourceAlpha" type="matrix" values="0 0 0 0 0 0 0 0 0 0 0 0 0 0 0 0 0 0 127 0" result="hardAlpha"/>
<feOffset dy="-5"/>
<feComposite in2="hardAlpha" operator="arithmetic" k2="-1" k3="1"/>
<feColorMatrix type="matrix" values="0 0 0 0 0 0 0 0 0 0 0 0 0 0 0 0 0 0 0.02 0"/>
<feBlend mode="normal" in2="shape" result="effect1_innerShadow_136_20"/>
</filter>
</defs>
</svg>
