<svg width="247" height="389" viewBox="0 0 247 389" fill="none" xmlns="http://www.w3.org/2000/svg">
<path d="M69.3101 388.759H247C247 388.759 238.486 357.672 220.513 367.95C217.675 330.928 186.515 326.198 176.554 351.739C160.918 323.36 77.0254 328.99 69.3101 373.945" fill="#FABB50"/>
<path d="M32.0292 127.931L63.4114 175.282V191.958L25.0543 132.491C24.3698 131.429 24.2041 130.114 24.6033 128.914C25.7029 125.622 30.1114 125.037 32.0292 127.931Z" fill="#853866"/>
<path d="M193.348 71.705V196.535C193.348 236.149 161.257 268.24 121.643 268.24C82.0486 268.24 49.938 236.149 49.938 196.535V71.705C49.938 64.1014 51.1154 56.7772 53.3107 49.9121C62.5308 20.9547 89.6322 0 121.643 0C141.44 0 159.381 8.02264 172.353 20.9946C178.899 27.5404 184.188 35.3436 187.82 44.0248C191.372 52.5464 193.348 61.8842 193.348 71.705Z" fill="#F99D46"/>
<path d="M139.283 388.756H107.064V86.3143C107.064 77.4175 114.277 70.2051 123.174 70.2051C132.07 70.2051 139.283 77.4175 139.283 86.3143V388.756Z" fill="#853866"/>
<path d="M86.6884 123.769L118.071 171.121V187.797L79.7135 128.329C79.029 127.267 78.8633 125.952 79.2624 124.753C80.3621 121.458 84.7706 120.873 86.6884 123.769Z" fill="#853866"/>
<path d="M95.7528 189.642L135.822 250.1L131.472 278.548L80.5417 199.589C79.0469 197.272 78.6857 194.404 79.5578 191.79C81.9507 184.603 91.5679 183.328 95.7528 189.642Z" fill="#853866"/>
<path d="M156.031 79.8515L124.648 127.203V143.879L163.006 84.4116C163.69 83.3499 163.856 82.0348 163.457 80.8354C162.359 77.5425 157.95 76.9577 156.031 79.8515Z" fill="#853866"/>
<path d="M167.204 239.668L135.822 287.02V303.695L174.179 244.228C174.864 243.166 175.03 241.851 174.63 240.652C173.531 237.359 169.122 236.774 167.204 239.668Z" fill="#853866"/>
<path d="M34.4263 143.882C52.6223 143.882 67.3731 129.131 67.3731 110.935C67.3731 92.7391 52.6223 77.9883 34.4263 77.9883C16.2303 77.9883 1.47949 92.7391 1.47949 110.935C1.47949 129.131 16.2303 143.882 34.4263 143.882Z" fill="#FABB50"/>
<path d="M191.356 255.139C214.447 255.139 233.166 236.42 233.166 213.329C233.166 190.238 214.447 171.52 191.356 171.52C168.266 171.52 149.547 190.238 149.547 213.329C149.547 236.42 168.266 255.139 191.356 255.139Z" fill="#FABB50"/>
<path d="M178.047 205.984C183.621 205.984 188.139 201.466 188.139 195.892C188.139 190.318 183.621 185.8 178.047 185.8C172.474 185.8 167.955 190.318 167.955 195.892C167.955 201.466 172.474 205.984 178.047 205.984Z" fill="#FFDD3A"/>
<path d="M209.902 222.119C218.118 222.119 224.778 215.459 224.778 207.243C224.778 199.027 218.118 192.367 209.902 192.367C201.686 192.367 195.026 199.027 195.026 207.243C195.026 215.459 201.686 222.119 209.902 222.119Z" fill="#FFDD3A"/>
<path d="M17.7256 107.659C17.7256 109.467 16.2588 110.934 14.4507 110.934C12.6426 110.934 11.1758 109.469 11.1758 107.659C11.1758 105.851 12.6426 104.384 14.4507 104.384C16.2588 104.384 17.7256 105.851 17.7256 107.659Z" fill="#FFDD3A"/>
<path d="M24.9718 97.0959C27.4154 97.0959 29.3962 95.1151 29.3962 92.6715C29.3962 90.228 27.4154 88.2471 24.9718 88.2471C22.5283 88.2471 20.5474 90.228 20.5474 92.6715C20.5474 95.1151 22.5283 97.0959 24.9718 97.0959Z" fill="#FFDD3A"/>
<path d="M48.2673 113.754C54.0891 113.754 58.8085 109.035 58.8085 103.213C58.8085 97.3914 54.0891 92.6719 48.2673 92.6719C42.4455 92.6719 37.7261 97.3914 37.7261 103.213C37.7261 109.035 42.4455 113.754 48.2673 113.754Z" fill="#FFDD3A"/>
<path d="M200.145 167.721C200.145 167.721 196.06 153.665 211.898 152.103C214.719 167.721 200.145 167.721 200.145 167.721Z" fill="#F99D46"/>
<path d="M69.3101 217.567C69.3101 217.567 78.117 205.876 88.8558 217.621C78.0432 229.237 69.3101 217.567 69.3101 217.567Z" fill="#F17A40"/>
<path d="M60.7788 197.406C60.7788 197.406 74.1619 191.481 77.826 206.968C62.7266 211.853 60.7788 197.406 60.7788 197.406Z" fill="#F17A40"/>
<path d="M168.214 88.2058C168.214 88.2058 165.648 73.7949 181.561 73.9287C182.707 89.7564 168.214 88.2058 168.214 88.2058Z" fill="#F17A40"/>
<path d="M155.332 103.386C155.332 103.386 165.939 83.2755 185.317 98.6243C171.617 119.118 155.332 103.386 155.332 103.386Z" fill="#F17A40"/>
<path d="M172.2 256.062C172.2 256.062 185.873 261.286 177.561 274.857C163.403 267.684 172.2 256.062 172.2 256.062Z" fill="#F99D46"/>
<path d="M183.481 259.64C183.481 259.64 201.498 254.044 203.885 274.416C183.827 278.423 183.481 259.64 183.481 259.64Z" fill="#F99D46"/>
<path d="M27.9897 173.366C27.9897 173.366 18.7057 162.05 32.6516 154.385C41.3907 167.632 27.9897 173.366 27.9897 173.366Z" fill="#F99D46"/>
<path d="M0 149.224C0 149.224 13.415 132.229 28.9035 149.959C12.5229 166.776 0 149.224 0 149.224Z" fill="#F99D46"/>
<path d="M117.949 113.756C119.992 113.756 121.647 108.046 121.647 101.001C121.647 93.9574 119.992 88.2471 117.949 88.2471C115.907 88.2471 114.251 93.9574 114.251 101.001C114.251 108.046 115.907 113.756 117.949 113.756Z" fill="#6C2950"/>
<path d="M130.931 285.588C130.931 309.676 128.853 329.204 126.289 329.204C123.724 329.204 121.647 309.676 121.647 285.588C121.647 261.5 123.724 241.973 126.289 241.973C128.853 241.971 130.931 261.498 130.931 285.588Z" fill="#6C2950"/>
<path d="M117.949 219.999C119.992 219.999 121.647 214.289 121.647 207.245C121.647 200.201 119.992 194.49 117.949 194.49C115.907 194.49 114.251 200.201 114.251 207.245C114.251 214.289 115.907 219.999 117.949 219.999Z" fill="#6C2950"/>
<path d="M127.233 179.016C130.318 179.016 132.819 165.831 132.819 149.566C132.819 133.301 130.318 120.115 127.233 120.115C124.148 120.115 121.647 133.301 121.647 149.566C121.647 165.831 124.148 179.016 127.233 179.016Z" fill="#6C2950"/>
<path d="M187.82 44.0248C128.009 -6.54586 74.3251 30.7136 53.3105 49.9121C62.5306 20.9547 89.632 0 121.643 0C141.44 0 159.381 8.02264 172.353 20.9946C178.899 27.5404 184.188 35.3436 187.82 44.0248Z" fill="#FABB50"/>
<path d="M163.673 388.76H14.4551C14.4551 388.76 15.7722 350.623 53.3111 360.362C63.4292 325.837 99.6509 346.472 89.0538 373.753C113.86 355.033 156.847 369.382 163.673 388.76Z" fill="#F17A40"/>
<path d="M83.6055 388.761H28.5645C33.9528 380.858 43.2727 372.516 58.5396 376.128C65.325 363.773 86.0602 371.039 83.6055 388.761Z" fill="#F99D46"/>
</svg>
