<svg width="244" height="241" viewBox="0 0 244 241" fill="none" xmlns="http://www.w3.org/2000/svg">
<path d="M127.573 48.2344H119.556V163.965H127.573V48.2344Z" fill="#77C267"/>
<path d="M119.585 149.381C119.495 148.671 117.523 131.874 128.435 119.498C135.719 111.238 146.806 107.051 161.382 107.051V115.069C149.239 115.069 140.191 118.328 134.495 124.752C125.968 134.367 127.525 148.25 127.541 148.391L119.585 149.381Z" fill="#77C267"/>
<path d="M127.531 119.54L119.595 118.391L123.562 118.966L119.593 118.403C119.611 118.275 121.287 105.4 113.354 96.2941C107.801 89.9179 98.7351 86.6868 86.4077 86.6868V78.6689C101.203 78.6689 112.323 82.8522 119.463 91.1006C129.784 103.023 127.627 118.872 127.531 119.54Z" fill="#77C267"/>
<path d="M137.69 13.9169L123.771 0L109.854 13.9169C100.948 22.8227 100.948 37.2608 109.854 46.1665L123.771 60.0855L137.69 46.1665C146.594 37.2608 146.594 22.8227 137.69 13.9169Z" fill="#5FA26B"/>
<path d="M217.401 111.058L203.49 124.969C194.57 133.889 180.138 133.889 171.238 124.969L157.307 111.058L171.238 97.1469C180.138 88.2271 194.57 88.2271 203.49 97.1469L217.401 111.058Z" fill="#5FA26B"/>
<path d="M91.9018 82.6726L77.9709 96.6036C69.0711 105.503 54.6391 105.503 45.7192 96.6036L31.8083 82.6726L45.7192 68.7617C54.6391 59.862 69.0711 59.862 77.9709 68.7617L91.9018 82.6726Z" fill="#5FA26B"/>
<path opacity="0.12" d="M91.9018 82.6738L77.9709 96.6048C69.0711 105.505 54.6391 105.505 45.7192 96.6048L31.8083 82.6738H91.9018Z" fill="#3C4870"/>
<path opacity="0.12" d="M217.401 111.057L203.49 124.968C194.57 133.887 180.138 133.887 171.238 124.968L157.307 111.057H217.401Z" fill="#3C4870"/>
<path d="M244 240.549H0C0 240.549 1.65568 212.268 31.4479 218.889C33.9314 181.648 62.0679 190.752 62.0679 190.752C62.0679 190.752 83.4233 146.663 135.242 152.403C190.69 158.545 192.822 213.924 192.822 213.924C192.822 213.924 234.763 198.488 244 240.549Z" fill="#B76933"/>
<path d="M157.766 214.403C167.28 214.403 174.993 206.69 174.993 197.177C174.993 187.663 167.28 179.95 157.766 179.95C148.253 179.95 140.54 187.663 140.54 197.177C140.54 206.69 148.253 214.403 157.766 214.403Z" fill="#A65A2C"/>
<path d="M126.764 211.71C126.764 215.783 123.462 219.083 119.391 219.083C115.318 219.083 112.019 215.781 112.019 211.71C112.019 207.637 115.32 204.338 119.391 204.338C123.462 204.336 126.764 207.637 126.764 211.71Z" fill="#A65A2C"/>
<path d="M123.563 178.009C123.563 183.518 119.099 187.981 113.591 187.981C108.082 187.981 103.618 183.518 103.618 178.009C103.618 172.503 108.082 168.037 113.591 168.037C119.099 168.037 123.563 172.503 123.563 178.009Z" fill="#A65A2C"/>
<path d="M86.408 217.098C86.408 224.148 80.6933 229.861 73.6456 229.861C66.596 229.861 60.8833 224.146 60.8833 217.098C60.8833 210.049 66.598 204.336 73.6456 204.336C80.6933 204.336 86.408 210.051 86.408 217.098Z" fill="#A65A2C"/>
</svg>
