<svg width="310" height="415" viewBox="0 0 310 415" fill="none" xmlns="http://www.w3.org/2000/svg">
<path d="M218.661 344.891C218.693 344.441 212.524 338.524 220.567 333.474C225.883 340.218 218.661 344.891 218.661 344.891Z" fill="#E23A68"/>
<path d="M213.186 349.598C213.053 349.166 205.155 345.899 210.812 338.269C218.215 342.619 213.186 349.598 213.186 349.598Z" fill="#E23A68"/>
<path d="M208.729 355.553C208.405 355.237 199.903 356.132 201.238 346.728C209.822 347.021 208.729 355.553 208.729 355.553Z" fill="#E23A68"/>
<path d="M204.51 365.665C204.254 365.293 195.741 364.518 198.876 355.553C207.238 357.507 204.51 365.665 204.51 365.665Z" fill="#E23A68"/>
<path d="M217.604 345.956C218.007 346.158 225.825 342.7 227.44 352.059C219.178 354.411 217.604 345.956 217.604 345.956Z" fill="#E23A68"/>
<path d="M210.421 353.925C210.873 353.913 216.148 347.187 221.972 354.693C215.787 360.648 210.421 353.925 210.421 353.925Z" fill="#E23A68"/>
<path d="M203.636 369.535C204.015 369.291 205.041 360.804 213.91 364.201C211.709 372.502 203.636 369.535 203.636 369.535Z" fill="#E23A68"/>
<path d="M203.444 394.284C203.346 393.855 193.982 351.184 226.347 340.498L226.974 342.395C196.34 352.509 205.299 393.427 205.393 393.839L203.444 394.284Z" fill="#A62658"/>
<path d="M223.831 342.336C224.242 342.153 226.539 333.917 234.792 338.615C231.363 346.489 223.831 342.336 223.831 342.336Z" fill="#E23A68"/>
<path d="M143.849 175.624C143.849 215.353 111.653 247.548 71.9243 247.548C32.215 247.548 0 215.353 0 175.624C0 160.655 4.57644 146.746 12.4104 135.235C25.3603 116.19 47.1834 103.699 71.9243 103.699C107.876 103.699 137.673 130.079 143.009 164.532C143.549 168.149 143.849 171.846 143.849 175.624Z" fill="#BB3A68"/>
<path d="M310 90.1701C310 100.422 308.281 110.295 305.124 119.467C292.973 154.9 259.379 180.36 219.83 180.36C170.008 180.36 129.64 139.972 129.64 90.1701C129.64 52.6592 152.542 20.5041 185.117 6.93463C195.808 2.4581 207.539 0 219.83 0C269.631 0 310 40.3687 310 90.1701Z" fill="#BB3A68"/>
<path d="M298.717 240.698C304.379 216.722 289.532 192.697 265.556 187.035C241.58 181.374 217.555 196.221 211.893 220.196C206.232 244.172 221.079 268.198 245.055 273.859C269.03 279.521 293.056 264.674 298.717 240.698Z" fill="#BB3A68"/>
<path d="M192.866 414.899H168.885V193.556C168.885 191.918 169.22 190.293 169.874 188.788L208.82 98.9277L230.825 108.462L192.868 196.041V414.899H192.866Z" fill="#6C2950"/>
<path d="M180.868 277.702C178.414 277.702 175.938 276.952 173.806 275.393L77.0609 204.72C71.713 200.815 70.5439 193.313 74.4509 187.965C78.3579 182.617 85.8581 181.448 91.2059 185.355L187.951 256.028C193.299 259.933 194.468 267.436 190.561 272.784C188.211 275.997 184.566 277.702 180.868 277.702Z" fill="#6C2950"/>
<path d="M180.884 306.911C177.452 306.911 174.047 305.449 171.677 302.611C167.43 297.529 168.107 289.967 173.19 285.72L234.75 234.282C239.832 230.037 247.394 230.714 251.639 235.795C255.885 240.877 255.208 248.439 250.126 252.685L188.566 304.124C186.321 305.996 183.593 306.911 180.884 306.911Z" fill="#6C2950"/>
<path d="M180.87 205.55C179.279 205.55 177.662 205.23 176.107 204.557C170.03 201.925 167.24 194.862 169.872 188.787L208.818 98.9266C211.452 92.8493 218.512 90.0575 224.588 92.6934C230.663 95.3254 233.455 102.388 230.823 108.463L191.877 198.324C189.919 202.848 185.504 205.55 180.87 205.55Z" fill="#6C2950"/>
<path d="M206.266 138.977C205.105 138.977 203.95 138.472 203.16 137.5L177.772 106.219C176.381 104.504 176.643 101.988 178.357 100.597C180.07 99.2061 182.588 99.4699 183.979 101.181L209.367 132.462C210.758 134.177 210.497 136.693 208.782 138.086C208.042 138.684 207.151 138.977 206.266 138.977Z" fill="#6C2950"/>
<path d="M107.688 216.242C105.482 216.242 103.691 214.452 103.691 212.246V175.622C103.691 173.416 105.482 171.625 107.688 171.625C109.896 171.625 111.685 173.416 111.685 175.622V212.246C111.685 214.452 109.896 216.242 107.688 216.242Z" fill="#6C2950"/>
<path d="M184.249 189.763C182.456 189.763 180.826 188.55 180.374 186.732L166.72 131.904C166.187 129.762 167.492 127.593 169.634 127.06C171.785 126.514 173.947 127.831 174.479 129.972L188.132 184.799C188.666 186.941 187.361 189.11 185.22 189.643C184.894 189.725 184.569 189.763 184.249 189.763Z" fill="#6C2950"/>
<path d="M222.268 264.336C222.144 264.336 222.02 264.33 221.894 264.318C219.696 264.114 218.079 262.169 218.281 259.971L221.814 221.741C222.018 219.54 223.962 217.912 226.163 218.128C228.361 218.331 229.978 220.276 229.776 222.474L226.242 260.705C226.051 262.781 224.308 264.336 222.268 264.336Z" fill="#6C2950"/>
<path d="M118.367 226.105C118.287 226.105 118.205 226.103 118.125 226.097L52.088 222.154C49.8857 222.024 48.205 220.13 48.3369 217.928C48.4687 215.721 50.3573 214.009 52.5656 214.176L118.602 218.119C120.807 218.249 122.485 220.144 122.356 222.346C122.226 224.47 120.465 226.105 118.367 226.105Z" fill="#6C2950"/>
<path d="M242.43 414.901H132.495C108.614 399.553 127.239 358.844 148.722 377.61C168.687 344.176 206.258 384.185 206.258 384.185C206.258 384.185 226.262 360.383 224.024 403.37C230.999 391.859 242.43 414.901 242.43 414.901Z" fill="#BB3A68"/>
<path d="M48.6161 230.883C55.639 230.883 61.3322 225.19 61.3322 218.167C61.3322 211.144 55.639 205.451 48.6161 205.451C41.5931 205.451 35.8999 211.144 35.8999 218.167C35.8999 225.19 41.5931 230.883 48.6161 230.883Z" fill="#A62658"/>
<path d="M116.408 177.302C125.267 173.632 129.474 163.476 125.804 154.616C122.135 145.757 111.978 141.55 103.118 145.22C94.259 148.889 90.0521 159.046 93.7218 167.906C97.3915 176.765 107.548 180.972 116.408 177.302Z" fill="#A62658"/>
<path d="M194.2 99.3153C195.83 89.2736 189.01 79.812 178.969 78.1823C168.927 76.5526 159.465 83.3719 157.836 93.4136C156.206 103.455 163.025 112.917 173.067 114.547C183.109 116.176 192.57 109.357 194.2 99.3153Z" fill="#A62658"/>
<path d="M258.194 208.391C258.194 213.79 253.817 218.167 248.418 218.167C243.018 218.167 238.641 213.79 238.641 208.391C238.641 202.991 243.018 198.614 248.418 198.614C253.817 198.614 258.194 202.991 258.194 208.391Z" fill="#A62658"/>
<path d="M257.27 269.199C260.004 269.199 262.221 266.983 262.221 264.249C262.221 261.515 260.004 259.299 257.27 259.299C254.537 259.299 252.32 261.515 252.32 264.249C252.32 266.983 254.537 269.199 257.27 269.199Z" fill="#A62658"/>
<path d="M273.243 249.545C280.168 249.545 285.781 243.932 285.781 237.007C285.781 230.082 280.168 224.469 273.243 224.469C266.318 224.469 260.705 230.082 260.705 237.007C260.705 243.932 266.318 249.545 273.243 249.545Z" fill="#A62658"/>
<path d="M84.6626 164.308C84.6626 170.555 79.5966 175.622 73.3494 175.622C67.1002 175.622 62.0361 170.555 62.0361 164.308C62.0361 158.059 67.1022 152.995 73.3494 152.995C79.5986 152.993 84.6626 158.059 84.6626 164.308Z" fill="#A62658"/>
<path d="M84.1312 141.527C84.1312 144.093 82.0508 146.174 79.4848 146.174C76.9188 146.174 74.8384 144.093 74.8384 141.527C74.8384 138.961 76.9188 136.881 79.4848 136.881C82.0508 136.881 84.1312 138.961 84.1312 141.527Z" fill="#A62658"/>
<path d="M221.55 76.6562C229.358 68.8487 229.358 56.1903 221.55 48.3828C213.743 40.5753 201.084 40.5753 193.277 48.3828C185.469 56.1903 185.469 68.8487 193.277 76.6562C201.084 84.4637 213.743 84.4637 221.55 76.6562Z" fill="#A62658"/>
<path d="M255.654 154.38C256.989 146.158 251.405 138.411 243.183 137.076C234.96 135.742 227.213 141.326 225.879 149.548C224.544 157.77 230.128 165.517 238.35 166.852C246.572 168.186 254.32 162.602 255.654 154.38Z" fill="#A62658"/>
<path d="M265.297 121.623C265.297 124.239 263.176 126.357 260.562 126.357C257.946 126.357 255.828 124.237 255.828 121.623C255.828 119.009 257.948 116.887 260.562 116.887C263.178 116.889 265.297 119.009 265.297 121.623Z" fill="#A62658"/>
<path d="M101.156 267.89C101.156 267.89 93.9677 246.286 118.493 242.913C123.815 267.02 101.156 267.89 101.156 267.89Z" fill="#E23A68"/>
<path d="M123.007 108.18C123.007 108.18 96.803 113.424 96.4253 84.3706C125.275 81.6647 123.007 108.18 123.007 108.18Z" fill="#E23A68"/>
<path d="M120.561 84.1747C120.561 84.1747 108.21 77.2741 118.049 65.4492C130.593 74.2824 120.561 84.1747 120.561 84.1747Z" fill="#E23A68"/>
<path d="M243.987 287.09C243.987 287.09 230.273 290.567 229.292 275.215C244.474 273.009 243.987 287.09 243.987 287.09Z" fill="#E23A68"/>
<path d="M194.866 414.901H136.492C134.913 408.246 133.634 394.876 149.541 397.434C154.238 378.709 202.86 379.328 194.866 414.901Z" fill="#A62658"/>
<path d="M309.999 90.1701C309.999 100.422 308.281 110.295 305.123 119.467C293.992 40.5886 224.666 15.0883 185.116 6.93463C195.808 2.4581 207.539 0 219.829 0C269.631 0 309.999 40.3687 309.999 90.1701Z" fill="#E23A68"/>
<path d="M143.009 164.532C101.781 105.398 41.2683 122.325 12.4106 135.235C25.3606 116.19 47.1837 103.699 71.9245 103.699C107.877 103.699 137.674 130.079 143.009 164.532Z" fill="#E23A68"/>
<path d="M179.976 345.496C187.946 345.496 194.407 344.59 194.407 343.472C194.407 342.354 187.946 341.447 179.976 341.447C172.006 341.447 165.545 342.354 165.545 343.472C165.545 344.59 172.006 345.496 179.976 345.496Z" fill="#853866"/>
<path d="M187.864 324.747C192.221 324.747 195.752 324.153 195.752 323.42C195.752 322.687 192.221 322.093 187.864 322.093C183.508 322.093 179.977 322.687 179.977 323.42C179.977 324.153 183.508 324.747 187.864 324.747Z" fill="#853866"/>
<path d="M185.782 285.851C185.782 286.723 181.771 287.428 176.825 287.428C171.879 287.428 167.868 286.723 167.868 285.851C167.868 284.98 171.879 284.274 176.825 284.274C181.773 284.274 185.782 284.982 185.782 285.851Z" fill="#853866"/>
<path d="M195.753 254.412C195.753 254.958 191.65 255.401 186.59 255.401C181.53 255.401 177.427 254.958 177.427 254.412C177.427 253.866 181.53 253.423 186.59 253.423C191.65 253.423 195.753 253.866 195.753 254.412Z" fill="#853866"/>
<path d="M194.407 230.369C194.407 231.194 187.946 231.862 179.976 231.862C172.006 231.862 165.545 231.194 165.545 230.369C165.545 229.545 172.006 228.876 179.976 228.876C187.946 228.876 194.407 229.545 194.407 230.369Z" fill="#853866"/>
<path d="M178.192 212.247C182.384 212.247 185.782 211.737 185.782 211.108C185.782 210.479 182.384 209.969 178.192 209.969C174 209.969 170.602 210.479 170.602 211.108C170.602 211.737 174 212.247 178.192 212.247Z" fill="#853866"/>
<path d="M190.758 264.978C190.758 265.382 188.769 265.708 186.315 265.708C183.861 265.708 181.871 265.38 181.871 264.978C181.871 264.577 183.861 264.249 186.315 264.249C188.769 264.249 190.758 264.577 190.758 264.978Z" fill="#853866"/>
<path d="M181.871 310.316C181.871 310.958 179.925 311.478 177.525 311.478C175.123 311.478 173.178 310.958 173.178 310.316C173.178 309.675 175.125 309.155 177.525 309.155C179.925 309.155 181.871 309.675 181.871 310.316Z" fill="#853866"/>
<path d="M190.759 356.353C190.759 356.795 187.945 357.152 184.475 357.152C181.006 357.152 178.192 356.795 178.192 356.353C178.192 355.911 181.006 355.554 184.475 355.554C187.947 355.554 190.759 355.911 190.759 356.353Z" fill="#853866"/>
<path d="M186.316 182.227C186.316 183.258 182.482 184.093 177.756 184.093C173.03 184.093 169.197 183.258 169.197 182.227C169.197 181.196 173.03 180.36 177.756 180.36C182.482 180.36 186.316 181.196 186.316 182.227Z" fill="#853866"/>
<path d="M196.73 158.352C200.028 158.352 202.701 157.728 202.701 156.957C202.701 156.187 200.028 155.562 196.73 155.562C193.432 155.562 190.758 156.187 190.758 156.957C190.758 157.728 193.432 158.352 196.73 158.352Z" fill="#853866"/>
<path d="M219.82 141.767C219.82 142.942 212.319 143.893 203.066 143.893C193.814 143.893 186.313 142.94 186.313 141.767C186.313 140.592 193.814 139.641 203.066 139.641C212.319 139.641 219.82 140.592 219.82 141.767Z" fill="#853866"/>
<path d="M222.262 123.002C222.262 123.763 219.22 124.381 215.467 124.381C211.714 124.381 208.672 123.763 208.672 123.002C208.672 122.241 211.714 121.623 215.467 121.623C219.22 121.623 222.262 122.241 222.262 123.002Z" fill="#853866"/>
<path d="M215.467 107.168C215.467 107.929 212.425 108.547 208.672 108.547C204.919 108.547 201.877 107.929 201.877 107.168C201.877 106.407 204.919 105.789 208.672 105.789C212.425 105.789 215.467 106.407 215.467 107.168Z" fill="#853866"/>
<path d="M140.335 230.369C140.335 231.194 136.994 231.862 132.871 231.862C128.748 231.862 125.407 231.194 125.407 230.369C125.407 229.545 128.748 228.876 132.871 228.876C136.994 228.876 140.335 229.545 140.335 230.369Z" fill="#853866"/>
<path d="M92.3759 205.451C96.4982 205.451 99.8401 204.782 99.8401 203.958C99.8401 203.133 96.4982 202.465 92.3759 202.465C88.2535 202.465 84.9116 203.133 84.9116 203.958C84.9116 204.782 88.2535 205.451 92.3759 205.451Z" fill="#853866"/>
<path d="M226.66 273.101C226.66 274.138 221.506 274.98 215.149 274.98C208.792 274.98 203.638 274.138 203.638 273.101C203.638 272.064 208.792 271.223 215.149 271.223C221.506 271.223 226.66 272.064 226.66 273.101Z" fill="#853866"/>
<path d="M157.578 249.545C157.578 250.582 152.424 251.423 146.067 251.423C139.71 251.423 134.556 250.582 134.556 249.545C134.556 248.507 139.71 247.666 146.067 247.666C152.424 247.664 157.578 248.505 157.578 249.545Z" fill="#853866"/>
</svg>
