<svg width="356" height="431" viewBox="0 0 356 431" fill="none" xmlns="http://www.w3.org/2000/svg">
<path d="M160.38 430.234H55.7164C55.7164 430.234 51.0823 388.173 87.1232 392.827C86.0938 358.352 128.311 366.551 122.133 392.827C148.905 367.103 161.832 400.088 161.832 400.088C161.832 400.088 183.289 359.313 217.067 392.298C243.122 362.471 269.895 402.751 245.697 430.234H160.38Z" fill="#25A977"/>
<path d="M305.092 182.543L294.288 195.47L258.004 184.731L252.861 199.731L297.142 204.504L310.187 187.271" fill="#853866"/>
<path d="M244.754 159.253C245.366 158.437 295.918 123.581 295.918 123.581L298.856 132.598L257.188 179.84" fill="#853866"/>
<path d="M29.0356 115.835L33.6597 152.458L69.2517 182.544L79.196 164.437L41.3977 147.898L36.7198 115.835" fill="#853866"/>
<path d="M179.85 327.147C180.667 325.599 226.06 270.924 226.06 270.924L211.617 266.797L179.85 308.32" fill="#853866"/>
<path d="M149.718 320.852L108.452 268.755L100.716 272.641L149.718 335.055" fill="#853866"/>
<path d="M181.581 275.105H139.178V430.236H181.581V275.105Z" fill="#853866"/>
<path d="M243.633 82.2274C243.633 115.475 223.906 144.097 195.525 157.044C185.142 161.8 173.59 164.437 161.405 164.437C116.011 164.437 79.1958 127.642 79.1958 82.2274C79.1958 36.8128 116.011 0 161.405 0C192.535 0 219.635 17.3112 233.585 42.8313C239.992 54.5151 243.633 67.9443 243.633 82.2274Z" fill="#36CD88"/>
<path d="M243.633 82.2286C243.633 115.477 223.906 144.099 195.525 157.045C174.276 147.683 159.437 126.434 159.437 101.712C159.437 68.3345 186.499 41.2725 219.876 41.2725C224.594 41.2725 229.182 41.8111 233.583 42.8324C239.992 54.5162 243.633 67.9455 243.633 82.2286Z" fill="#25A977"/>
<path d="M271.104 187.264C271.104 199.949 268.949 212.134 264.994 223.464C257.545 244.751 243.727 263.046 225.821 276.048C223.11 278.035 220.285 279.892 217.389 281.602C201.007 291.373 181.857 296.962 161.405 296.962C148.906 296.962 136.887 294.864 125.688 291.018C115.676 287.563 106.314 282.715 97.8438 276.679C69.928 256.804 51.7051 224.151 51.7051 187.262C51.7051 184.716 51.7988 182.191 51.9644 179.701C55.8464 122.661 103.377 77.5615 161.403 77.5615C221.995 77.5655 271.104 126.695 271.104 187.264Z" fill="#36CD88"/>
<path d="M57.2321 104.532C60.416 90.3202 51.4757 76.2178 37.2634 73.034C23.0511 69.8501 8.94874 78.7904 5.76488 93.0027C2.58103 107.215 11.5213 121.317 25.7336 124.501C39.9459 127.685 54.0483 118.745 57.2321 104.532Z" fill="#36CD88"/>
<path d="M331.136 137.6C344.868 123.868 344.868 101.604 331.136 87.8725C317.404 74.1406 295.14 74.1406 281.408 87.8725C267.676 101.604 267.676 123.868 281.408 137.6C295.14 151.332 317.404 151.332 331.136 137.6Z" fill="#36CD88"/>
<path d="M106.832 430.234H218.837C218.837 430.234 213.163 420.411 200.267 425.323C200.783 403.659 172.929 402.111 170.865 419.133C161.064 404.173 160.378 423.775 160.378 423.775C160.378 423.775 143.527 407.784 130.116 421.195C119.284 411.397 105.907 416.887 106.832 430.234Z" fill="#36CD88"/>
<path d="M154.102 397.598C154.102 400.233 151.965 402.369 149.33 402.369C146.695 402.369 144.559 400.233 144.559 397.598C144.559 394.963 146.695 392.826 149.33 392.826C151.965 392.826 154.102 394.963 154.102 397.598Z" fill="#6C2950"/>
<path d="M178.302 364.018C178.302 370.285 173.221 375.366 166.953 375.366C160.685 375.366 155.604 370.285 155.604 364.018C155.604 357.75 160.685 352.669 166.953 352.669C173.221 352.669 178.302 357.75 178.302 364.018Z" fill="#6C2950"/>
<path d="M152.468 334.624C154.201 334.624 155.606 333.22 155.606 331.487C155.606 329.754 154.201 328.349 152.468 328.349C150.735 328.349 149.331 329.754 149.331 331.487C149.331 333.22 150.735 334.624 152.468 334.624Z" fill="#6C2950"/>
<path d="M173.06 308.815C173.06 311.556 170.837 313.78 168.095 313.78C165.352 313.78 163.129 311.558 163.129 308.815C163.129 306.072 165.352 303.85 168.095 303.85C170.837 303.85 173.06 306.072 173.06 308.815Z" fill="#6C2950"/>
<path d="M173.059 387.572C173.059 388.943 171.948 390.054 170.577 390.054C169.207 390.054 168.096 388.943 168.096 387.572C168.096 386.202 169.207 385.091 170.577 385.091C171.948 385.089 173.059 386.202 173.059 387.572Z" fill="#6C2950"/>
<path d="M152.469 347.262C152.469 349.447 150.699 351.216 148.515 351.216C146.33 351.216 144.561 349.447 144.561 347.262C144.561 345.078 146.33 343.309 148.515 343.309C150.699 343.309 152.469 345.08 152.469 347.262Z" fill="#6C2950"/>
<path d="M26.9469 129.902C26.9469 129.902 20.7708 123.57 13.8208 129.902C21.852 136.387 26.9469 129.902 26.9469 129.902Z" fill="#25A977"/>
<path d="M28.898 118.343C28.898 118.343 27.3999 109.625 18.0859 110.902C21.0243 120.795 28.898 118.343 28.898 118.343Z" fill="#25A977"/>
<path d="M31.806 118.613C31.806 118.613 39.6218 114.472 35.5064 106.02C27.0203 111.894 31.806 118.613 31.806 118.613Z" fill="#25A977"/>
<path d="M286.803 127.919C286.803 127.919 294.619 123.777 290.503 115.325C282.017 121.202 286.803 127.919 286.803 127.919Z" fill="#25A977"/>
<path d="M294.772 185.761C294.772 185.761 297.822 177.459 289.114 173.918C286.723 183.958 294.772 185.761 294.772 185.761Z" fill="#25A977"/>
<path d="M318.94 195.289C318.94 195.289 323.532 202.849 331.729 198.245C325.365 190.116 318.94 195.289 318.94 195.289Z" fill="#25A977"/>
<path d="M184.056 221.655C184.056 221.655 186.436 230.175 195.57 227.957C191.641 218.411 184.056 221.655 184.056 221.655Z" fill="#25A977"/>
<path d="M299.109 139.566C299.109 139.566 315.381 148.721 325.695 131.77C305.579 123.402 299.109 139.566 299.109 139.566Z" fill="#25A977"/>
<path d="M163.001 64.5925C163.001 64.5925 180.669 58.5641 174.906 39.5771C155.261 48.9968 163.001 64.5925 163.001 64.5925Z" fill="#25A977"/>
<path d="M293.98 128.162C293.98 128.162 306.502 132.285 311.335 119.135C296.258 116.083 293.98 128.162 293.98 128.162Z" fill="#25A977"/>
<path d="M270.998 135.725C270.998 135.725 272.981 122.693 259.208 120.113C258.708 135.49 270.998 135.725 270.998 135.725Z" fill="#25A977"/>
<path d="M155.825 72.3958C155.825 72.3958 157.808 59.3635 144.036 56.7842C143.535 72.1604 155.825 72.3958 155.825 72.3958Z" fill="#25A977"/>
<path d="M319.609 212.31C319.609 212.31 321.591 199.278 307.819 196.698C307.318 212.072 319.609 212.31 319.609 212.31Z" fill="#25A977"/>
<path d="M26.7296 109.637C26.7296 109.637 40.1568 102.434 32.9934 87.9111C18.427 98.1068 26.7296 109.637 26.7296 109.637Z" fill="#25A977"/>
<path d="M203.255 231.888C203.255 231.888 216.682 224.685 209.519 210.162C194.952 220.358 203.255 231.888 203.255 231.888Z" fill="#25A977"/>
<path d="M325.333 179.839C325.333 186.978 319.546 192.765 312.406 192.765C305.267 192.765 299.479 186.978 299.479 179.839C299.479 172.699 305.267 166.912 312.406 166.912C319.546 166.912 325.333 172.699 325.333 179.839Z" fill="#36CD88"/>
<path d="M155.926 235.149C155.926 258.535 143.889 279.113 125.688 291.021C115.676 287.565 106.314 282.718 97.8438 276.682C69.928 256.807 51.7051 224.153 51.7051 187.265C51.7051 184.719 51.7988 182.194 51.9644 179.704C62.5889 172.553 75.3679 168.392 89.1503 168.392C123.234 168.392 151.355 193.932 155.423 226.9C155.758 229.615 155.926 232.364 155.926 235.149Z" fill="#25A977"/>
<path d="M225.821 276.05C223.11 278.037 220.285 279.894 217.389 281.604C201.007 291.374 181.857 296.964 161.405 296.964C148.906 296.964 136.887 294.865 125.688 291.019C115.676 287.564 106.314 282.717 97.8438 276.68C104.457 249.952 127.357 229.65 155.423 226.901C157.559 226.698 159.732 226.586 161.924 226.586C179.644 226.586 195.729 233.57 207.58 244.937C216.292 253.295 222.719 263.995 225.821 276.05Z" fill="#25A977"/>
<path d="M264.993 223.466C257.544 244.753 243.726 263.048 225.82 276.05C223.109 278.037 220.284 279.894 217.388 281.604C210.516 274.77 206.263 265.296 206.263 254.839C206.263 251.422 206.728 248.097 207.581 244.939C211.928 228.89 226.582 217.097 244.005 217.097C251.767 217.095 258.992 219.455 264.993 223.466Z" fill="#25A977"/>
<path d="M105.524 239.379C117.887 234.259 123.757 220.086 118.636 207.724C113.516 195.362 99.343 189.491 86.9808 194.612C74.6187 199.733 68.7483 213.905 73.869 226.267C78.9897 238.63 93.1623 244.5 105.524 239.379Z" fill="#1B8D67"/>
<path d="M130.154 262.442C130.154 268.09 125.576 272.668 119.928 272.668C114.281 272.668 109.703 268.09 109.703 262.442C109.703 256.795 114.281 252.217 119.928 252.217C125.576 252.217 130.154 256.795 130.154 262.442Z" fill="#1B8D67"/>
</svg>
