<svg width="84" height="72" viewBox="0 0 84 72" fill="none" xmlns="http://www.w3.org/2000/svg">
<path d="M56.1978 69.4914H28.387C28.387 69.4914 32.8168 68.0415 32.8168 56.4351C32.8168 52.6221 51.8811 51.8044 51.8811 56.2348C51.8804 68.2892 56.1978 69.4914 56.1978 69.4914Z" fill="#CCCCCC"/>
<path d="M55.9544 71.1345C55.9544 71.3822 55.7534 71.5831 55.5058 71.5831H27.7961C27.5484 71.5831 27.3475 71.3822 27.3475 71.1345V69.9379C27.3475 69.6902 27.5484 69.4893 27.7961 69.4893H55.5058C55.7527 69.4893 55.9544 69.6902 55.9544 69.9379V71.1345Z" fill="white"/>
<path d="M83.165 56.387C83.165 57.8738 82.3557 59.722 80.8689 59.722H3.71511C2.22829 59.722 0.834961 57.8738 0.834961 56.387V49.2563H83.165V56.387Z" fill="white"/>
<path d="M83.165 2.55849C83.165 1.07236 82.3557 0.416504 80.8689 0.416504H3.71511C2.22829 0.416504 0.834961 1.07236 0.834961 2.55849V49.2564H83.165V2.55849Z" fill="#4D4D4D"/>
<path d="M78.9788 4.60352H5.0213V45.7685H78.9788V4.60352Z" fill="#CCCCCC"/>
<path d="M45.6609 54.3983C45.6609 56.2598 44.1518 57.7676 42.2917 57.7676C40.4316 57.7676 38.9224 56.2598 38.9224 54.3983C38.9224 52.5375 40.4309 51.0298 42.2917 51.0298C44.1518 51.0298 45.6609 52.5375 45.6609 54.3983Z" fill="#4D4D4D"/>
</svg>
