<svg width="56" height="46" viewBox="0 0 56 46" fill="none" xmlns="http://www.w3.org/2000/svg">
<path d="M40.7499 25.9846H15.2501C15.0486 27.3698 14.939 28.8074 14.939 30.2846C14.939 36.3958 16.758 41.8597 19.6169 45.5001H25.9823V42.2638C25.9823 41.1494 26.8857 40.2462 28 40.2462C29.1145 40.2462 30.0179 41.1494 30.0179 42.2638V45.5001H36.3833C39.242 41.8595 41.061 36.3958 41.061 30.2846C41.0608 28.8076 40.9512 27.37 40.7499 25.9846Z" fill="#546E7A"/>
<path d="M54.1229 27.4634C58.2624 20.6701 49.4035 19.1075 53.2286 5.36532C54.6511 0.254827 40.396 -3.08842 33.945 7.23912C29.7859 13.8977 29.5758 20.3573 32.2827 24.8592C35.4209 30.0774 50.0316 34.1774 54.1229 27.4634Z" fill="#B0BEC5"/>
<path d="M1.87705 27.4634C-2.26244 20.6701 6.59665 19.1075 2.77121 5.36532C1.34871 0.254827 15.604 -3.08842 22.055 7.23912C26.2141 13.8977 26.4242 20.3573 23.717 24.8592C20.5791 30.0774 5.96837 34.1774 1.87705 27.4634Z" fill="#B0BEC5"/>
<path d="M52.981 3.37936C51.1092 0.0393163 42.0577 -1.3284 36.1327 4.50067C34.6986 5.91173 32.7355 6.6299 30.7318 6.4489C29.8525 6.36944 28.9385 6.33413 28 6.33413C26.7228 6.33413 25.4907 6.39955 24.3307 6.55265C22.8827 6.74368 21.4425 6.21113 20.4653 5.12594C14.5716 -1.4195 4.95503 -0.075054 3.01923 3.37957C7.15831 1.82463 14.2819 2.58513 18.5905 8.596C16.672 10.0181 15.5073 12.235 15.5073 15.5899C15.5073 19.729 17.2764 24.5861 20.0519 28.0443C19.9951 28.1071 19.9392 28.1703 19.8796 28.2327C19.9542 28.1902 20.0275 28.147 20.1007 28.1039C22.2534 30.7621 25.0035 32.5793 28 32.5793C30.9969 32.5793 33.747 30.7621 35.8995 28.1039C35.9728 28.147 36.0462 28.1902 36.1209 28.2327C36.0611 28.1703 36.0053 28.1071 35.9485 28.0443C38.7241 24.5861 40.4931 19.729 40.4931 15.5899C40.4931 12.235 39.3283 10.0181 37.4099 8.596C41.7184 2.58493 48.8419 1.82442 52.981 3.37936Z" fill="#78909C"/>
<path d="M25.6827 18.2295C25.6827 20.1567 24.1206 21.7191 22.1932 21.7191C20.266 21.7191 18.7039 20.1567 18.7039 18.2295C18.7039 16.3026 20.266 14.74 22.1932 14.74C24.1204 14.74 25.6827 16.3024 25.6827 18.2295Z" fill="white"/>
<path d="M17.4066 17.1445C17.4066 14.8019 19.3054 12.9028 21.648 12.9028" stroke="#B0BEC5" stroke-width="4" stroke-miterlimit="10" stroke-linecap="round" stroke-linejoin="round"/>
<path d="M38.5653 16.9854C38.5653 13.9728 36.1233 11.5308 33.1107 11.5308" stroke="#B0BEC5" stroke-width="4" stroke-miterlimit="10" stroke-linecap="round" stroke-linejoin="round"/>
<path d="M24.4539 19.2196C24.4539 20.0517 23.7792 20.7266 22.9467 20.7266C22.1145 20.7266 21.4397 20.0519 21.4397 19.2196C21.4397 18.3872 22.1143 17.7124 22.9467 17.7124C23.779 17.7124 24.4539 18.387 24.4539 19.2196Z" fill="#424242"/>
<path d="M35.8136 18.2295C35.8136 20.1567 34.2515 21.7191 32.3241 21.7191C30.3969 21.7191 28.8348 20.1567 28.8348 18.2295C28.8348 16.3026 30.3969 14.74 32.3241 14.74C34.2515 14.74 35.8136 16.3024 35.8136 18.2295Z" fill="white"/>
<path d="M34.5847 19.2196C34.5847 20.0517 33.9101 20.7266 33.0775 20.7266C32.2454 20.7266 31.5706 20.0519 31.5706 19.2196C31.5706 18.3872 32.2452 17.7124 33.0775 17.7124C33.9101 17.7124 34.5847 18.387 34.5847 19.2196Z" fill="#424242"/>
<path d="M7.51012 35.8052L7.6883 34.5779C7.76717 34.0349 8.26481 33.6541 8.80961 33.7199C15.9053 34.5757 21.5995 29.2226 24.1985 23.4646C26.5844 24.8917 30.2599 27.1271 32.6458 28.5542C26.8523 36.8183 16.7563 39.7727 8.18875 36.9143C7.72442 36.7591 7.43988 36.2898 7.51012 35.8052Z" fill="#78909C"/>
<path d="M22.286 29.3313C22.2858 29.3297 22.2954 29.3555 22.3112 29.3868C22.3275 29.4216 22.3512 29.4721 22.3817 29.5365C22.4461 29.6682 22.5326 29.8576 22.6498 30.0763C22.7085 30.1845 22.7722 30.3017 22.8396 30.4257C22.9138 30.5455 22.9855 30.6739 23.0677 30.8017C23.1522 30.9283 23.2317 31.063 23.3282 31.1892C23.4159 31.3216 23.516 31.4473 23.6161 31.5733C23.7103 31.7045 23.8274 31.8155 23.9284 31.9381C24.0303 32.0603 24.1501 32.1616 24.2559 32.2714C24.3614 32.3815 24.4792 32.471 24.5831 32.5666C24.6857 32.6641 24.7952 32.7413 24.8932 32.818C24.9941 32.8896 25.076 32.9759 25.1641 33.0273C25.2495 33.0829 25.3216 33.138 25.383 33.1804C25.504 33.2683 25.5726 33.3233 25.5726 33.3233L25.5939 33.3403C25.7051 33.4294 25.7229 33.5917 25.6336 33.7029C25.569 33.7834 25.4657 33.8151 25.3713 33.7922C25.3713 33.7922 25.2814 33.7703 25.1249 33.7232C25.0473 33.6983 24.951 33.6714 24.843 33.6335C24.733 33.6 24.6183 33.541 24.49 33.4812C24.3642 33.4174 24.2187 33.3604 24.0847 33.2675C23.9498 33.1768 23.7967 33.0935 23.6567 32.9819C23.5208 32.8663 23.3693 32.757 23.2353 32.6245C23.1038 32.4901 22.9598 32.3609 22.844 32.208L22.6632 31.9848C22.6056 31.9088 22.5554 31.8277 22.5021 31.75C22.3943 31.5949 22.3076 31.4306 22.2249 31.2721C22.1441 31.1125 22.0781 30.952 22.0213 30.7989C21.9697 30.6434 21.9157 30.4993 21.887 30.3587C21.8156 30.0829 21.7899 29.8448 21.7811 29.6772C21.7763 29.5939 21.7767 29.5263 21.7775 29.4765C21.7773 29.4268 21.7821 29.4087 21.7815 29.4073L21.7887 29.3722C21.8176 29.2315 21.9551 29.141 22.0955 29.1699C22.185 29.1884 22.2548 29.2522 22.286 29.3313Z" fill="#B0BEC5"/>
<path d="M20.0987 31.2855C20.0989 31.2838 20.1013 31.3091 20.1091 31.3386C20.1153 31.3679 20.13 31.4167 20.1428 31.4805C20.1731 31.6071 20.2159 31.7885 20.2789 32.0016C20.3068 32.1086 20.3495 32.2215 20.384 32.3419C20.426 32.4609 20.4717 32.5852 20.5195 32.7126C20.57 32.8392 20.6236 32.9684 20.6846 33.0968C20.7388 33.2283 20.8068 33.3553 20.877 33.4809C20.9362 33.6125 21.0199 33.7301 21.0904 33.8531C21.164 33.9743 21.2465 34.0869 21.3207 34.2009C21.397 34.3133 21.4838 34.4126 21.5571 34.5151C21.6299 34.6185 21.7138 34.7036 21.7844 34.7898C21.8599 34.8711 21.9177 34.9596 21.9843 35.022C22.0487 35.0866 22.1027 35.147 22.1478 35.1964C22.2375 35.2963 22.2877 35.3579 22.2877 35.3579L22.3074 35.382C22.4065 35.5038 22.3878 35.6832 22.266 35.7821C22.1798 35.8521 22.065 35.8632 21.9701 35.8208C21.9701 35.8208 21.893 35.7861 21.7604 35.7177C21.6945 35.683 21.6135 35.6414 21.523 35.5889C21.4289 35.5413 21.338 35.4665 21.2332 35.391C21.1303 35.3132 21.0119 35.2349 20.9087 35.1274C20.8032 35.0232 20.68 34.9217 20.578 34.7945C20.4777 34.6662 20.3569 34.5448 20.2662 34.3983C20.1753 34.2525 20.07 34.1114 19.9933 33.9541C19.9131 33.7988 19.8364 33.6418 19.7754 33.4811C19.7048 33.3244 19.6638 33.1594 19.6165 33.0041C19.5701 32.848 19.5446 32.6917 19.5184 32.5458C19.4967 32.3985 19.4794 32.2593 19.4754 32.1292C19.4648 32.0004 19.4692 31.8808 19.4718 31.7757C19.4752 31.6701 19.4852 31.5782 19.4943 31.5022C19.5029 31.4267 19.5155 31.3659 19.524 31.3208C19.532 31.275 19.5376 31.2608 19.5374 31.2592L19.5495 31.2234C19.6 31.0758 19.7608 30.9967 19.9084 31.0473C20.016 31.0848 20.087 31.1797 20.0987 31.2855Z" fill="#B0BEC5"/>
<path d="M17.4735 33.1796C17.4737 33.1778 17.4761 33.1996 17.4835 33.2191C17.4901 33.2389 17.502 33.2745 17.5138 33.3226C17.527 33.37 17.5431 33.4276 17.5618 33.4938C17.5834 33.5596 17.6001 33.6341 17.6284 33.7143C17.6523 33.7944 17.681 33.8807 17.7117 33.971C17.7456 34.0601 17.7747 34.1562 17.815 34.2511C17.8557 34.346 17.888 34.4473 17.9376 34.5433C17.9811 34.642 18.0267 34.7409 18.0787 34.8372C18.1242 34.9374 18.1904 35.0249 18.2406 35.1208C18.2928 35.2155 18.3618 35.297 18.4166 35.3848C18.4724 35.4725 18.541 35.5462 18.5982 35.6232C18.6526 35.7031 18.718 35.7669 18.7736 35.8307C18.8316 35.8925 18.8761 35.9595 18.9287 36.0049C18.978 36.0551 19.021 36.0988 19.0565 36.1347C19.1263 36.2106 19.1663 36.2539 19.1663 36.2539L19.1932 36.2832C19.3174 36.4185 19.3085 36.6288 19.1733 36.7532C19.0681 36.8497 18.9166 36.8653 18.7962 36.8041C18.7962 36.8041 18.736 36.7732 18.6307 36.7191C18.5783 36.6902 18.5151 36.6548 18.4425 36.6145C18.3688 36.575 18.2958 36.5154 18.2115 36.4556C18.1302 36.3924 18.0359 36.3298 17.9512 36.2459C17.867 36.1622 17.77 36.0803 17.6842 35.9818C17.6011 35.8813 17.509 35.781 17.4307 35.6678C17.3529 35.5544 17.2692 35.4408 17.206 35.3156C17.1384 35.1932 17.0687 35.071 17.0202 34.9418C16.9646 34.8156 16.9208 34.6873 16.8827 34.5621C16.8474 34.4363 16.8189 34.3131 16.7974 34.1957C16.7822 34.0765 16.7617 33.966 16.7593 33.861C16.7455 33.6531 16.7577 33.4779 16.774 33.3547C16.7816 33.2937 16.791 33.2438 16.7988 33.2052C16.8061 33.1663 16.8109 33.1571 16.8107 33.1553L16.8362 33.0945C16.907 32.9249 17.1018 32.8449 17.2714 32.9157C17.385 32.9628 17.4582 33.0662 17.4735 33.1796Z" fill="#B0BEC5"/>
<path d="M14.8499 34.3902C14.8503 34.3884 14.8501 34.4057 14.8551 34.4171C14.8594 34.4287 14.8666 34.4526 14.872 34.4853C14.885 34.5493 14.9037 34.641 14.9262 34.751C14.9481 34.8602 14.9779 34.9852 15.0117 35.1158C15.047 35.246 15.0839 35.3835 15.1319 35.5169C15.1517 35.5855 15.1828 35.6492 15.2063 35.7154C15.2298 35.7816 15.2641 35.8418 15.2888 35.9048C15.3147 35.9676 15.3482 36.0242 15.3755 36.0812C15.4019 36.1384 15.4333 36.1902 15.4609 36.2389C15.4908 36.2861 15.5087 36.3378 15.5366 36.3752C15.5627 36.4137 15.5823 36.451 15.6 36.4803C15.6341 36.5409 15.6526 36.578 15.6526 36.578L15.6747 36.6224C15.7587 36.7917 15.6899 36.997 15.5207 37.0811C15.415 37.1339 15.293 37.1256 15.1975 37.0713C15.1975 37.0713 15.1551 37.047 15.0829 36.9998C15.0476 36.9755 15.0028 36.9473 14.9547 36.9109C14.9047 36.8766 14.8553 36.8293 14.8008 36.7783C14.748 36.7253 14.6834 36.6736 14.6318 36.6041C14.579 36.5361 14.5156 36.4685 14.4643 36.3886C14.4141 36.3081 14.3573 36.2267 14.3135 36.1366C14.2716 36.0457 14.2212 35.956 14.1905 35.8585C14.1165 35.6684 14.0716 35.4682 14.0503 35.2795C14.0308 35.0907 14.0334 34.9135 14.0541 34.7634C14.0712 34.6133 14.1059 34.4899 14.135 34.4036C14.1488 34.3609 14.1639 34.326 14.1749 34.2977C14.1859 34.2688 14.1905 34.2652 14.1907 34.2634L14.2662 34.1763C14.3868 34.0376 14.5967 34.0228 14.7353 34.1432C14.8096 34.2078 14.8485 34.2991 14.8499 34.3902Z" fill="#B0BEC5"/>
<path d="M30.9046 26.8131C31.0531 28.5602 31.0328 32.2185 28.8914 35.5897C28.7242 35.8525 29.0467 36.1465 29.2917 35.9541C30.8033 34.766 33.2963 32.1182 34.5461 26.9698C34.6925 26.3666 34.2342 25.7843 33.6138 25.7816L31.868 25.7744C31.3045 25.7724 30.8571 26.2518 30.9046 26.8131Z" fill="white"/>
</svg>
