<svg width="54" height="22" viewBox="0 0 54 22" fill="none" xmlns="http://www.w3.org/2000/svg">
<path fill-rule="evenodd" clip-rule="evenodd" d="M13.0089 15.6948C13.5536 16.4845 13.7441 17.4379 16.4132 18.8813C19.0823 20.3249 24.4206 20.0797 23.8214 19.671C23.2222 19.2623 21.3972 18.7179 19.5452 17.7919C17.6934 16.8658 13.0089 15.6948 13.0089 15.6948Z" fill="#5596D0"/>
<path fill-rule="evenodd" clip-rule="evenodd" d="M40.2186 9.18322C40.2926 9.17798 49.663 -0.0773039 54 1.28479C44.5126 11.5209 47.2342 8.28924 53.7006 18.0351C46.3524 16.2611 40.7861 9.66764 40.2186 9.18322Z" fill="#5596D0"/>
<path fill-rule="evenodd" clip-rule="evenodd" d="M16.1388 4.41349C16.9168 1.41462 22.8243 -0.987099 21.7791 1.03506C21.5105 1.55473 23.4803 0.710272 23.6591 1.26257C23.8383 1.81457 23.6591 2.44813 23.7756 2.44813C23.8922 2.44813 25.1401 1.93371 25.5342 2.22588C25.928 2.51834 25.8333 3.23754 25.9408 3.31881C26.0483 3.40008 27.2045 2.61038 27.4462 3.25997C27.688 3.90955 27.5896 4.57545 27.5896 4.57545C27.5896 4.57545 29.2278 3.81197 29.5503 4.55914C29.8724 5.30631 29.8011 5.98881 30.1232 6.0861C30.4457 6.1834 31.0193 6.67597 31.1803 7.16301C31.3414 7.65006 30.321 7.9396 30.321 7.9396L16.1388 4.41349Z" fill="#5596D0"/>
<path fill-rule="evenodd" clip-rule="evenodd" d="M11.509 15.1758C11.6724 15.8565 12.6803 17.9268 14.7502 19.6699C16.8201 21.413 18.4272 22.4479 17.9096 21.0861C17.3919 19.7243 14.941 16.2926 14.941 16.2926L11.509 15.1758Z" fill="#5596D0"/>
<path fill-rule="evenodd" clip-rule="evenodd" d="M32.3889 14.0312C33.6003 14.4353 36.5229 15.9919 36.707 15.3397C36.8914 14.6875 34.7708 13.6325 34.7708 13.6325C34.7708 13.6325 37.4842 14.0816 37.6656 13.908C37.8372 13.7443 36.6674 13.0272 35.0385 12.5148C34.4093 12.3167 32.651 13.7327 32.3889 14.0312Z" fill="#5596D0"/>
<path fill-rule="evenodd" clip-rule="evenodd" d="M8.69942 4.87735C-0.887642 9.23511 -4.5795 11.9136 8.26365 15.9352C23.2921 20.641 29.8479 15.955 42.4723 9.28959C35.0088 6.4719 15.9692 1.57321 8.69942 4.87735Z" fill="#82C0F6"/>
<mask id="mask0_82_521" style="mask-type:luminance" maskUnits="userSpaceOnUse" x="0" y="3" width="43" height="15">
<path d="M8.69942 4.87735C-0.887642 9.23511 -4.5795 11.9136 8.26365 15.9352C23.2921 20.641 29.8479 15.955 42.4723 9.28959C35.0088 6.4719 15.9692 1.57321 8.69942 4.87735Z" fill="white"/>
</mask>
<g mask="url(#mask0_82_521)">
<path fill-rule="evenodd" clip-rule="evenodd" d="M-0.0256525 9.17834C-0.0227396 9.12299 0.024741 9.08046 0.0800869 9.08367C0.135433 9.08658 0.177961 9.13406 0.175048 9.18941C0.143879 9.75277 0.571207 10.3598 1.23944 10.9098C1.82523 11.3919 2.59366 11.8274 3.40463 12.153C4.215 12.4784 5.06646 12.6934 5.81799 12.7347C6.64673 12.7805 7.3502 12.6153 7.73063 12.1533C7.76588 12.1105 7.82909 12.1044 7.87191 12.1396C7.91473 12.1749 7.92085 12.2381 7.8856 12.2812C7.45973 12.7985 6.69683 12.9847 5.80663 12.9354C5.03296 12.8929 4.15908 12.6724 3.32976 12.3395C2.50074 12.0065 1.71337 11.5602 1.11185 11.0648C0.396141 10.4758 -0.0606078 9.81248 -0.0256525 9.17834Z" fill="#486686"/>
</g>
<path fill-rule="evenodd" clip-rule="evenodd" d="M7.52466 11.2662C8.92258 11.2662 10.063 10.1599 10.063 8.80302C10.063 7.44647 8.92287 6.33984 7.52466 6.33984C6.12674 6.33984 4.98633 7.44647 4.98633 8.80302C4.98633 10.1599 6.12645 11.2662 7.52466 11.2662Z" fill="#5AA1DF"/>
<path d="M7.37458 10.7662C8.77646 10.7662 9.91291 9.6634 9.91291 8.30302C9.91291 6.94265 8.77646 5.83984 7.37458 5.83984C5.97269 5.83984 4.83624 6.94265 4.83624 8.30302C4.83624 9.6634 5.97269 10.7662 7.37458 10.7662Z" fill="#FFFBD4"/>
<path fill-rule="evenodd" clip-rule="evenodd" d="M7.02129 8.83989C7.51736 8.83989 7.92197 8.4848 7.92197 8.04961C7.92197 7.61441 7.51736 7.25903 7.02129 7.25903C6.52521 7.25903 6.12061 7.61412 6.12061 8.04961C6.12061 8.4848 6.52521 8.83989 7.02129 8.83989Z" fill="#231F20"/>
<path fill-rule="evenodd" clip-rule="evenodd" d="M42.4723 9.2897L13.6969 8.61914L13.9247 10.5507L13.8746 11.7511L13.5078 12.3926L42.4723 9.2897Z" fill="#C2DCF7"/>
<path fill-rule="evenodd" clip-rule="evenodd" d="M15.5384 12.6599C18.2017 12.8699 19.7861 13.6101 22.3681 14.565C21.7791 15.6023 16.913 16.7339 14.412 15.1904C15.1058 14.597 15.5416 13.7418 15.5416 12.7907C15.5416 12.747 15.5405 12.7033 15.5384 12.6599Z" fill="#5596D0"/>
<path fill-rule="evenodd" clip-rule="evenodd" d="M11.8815 6.17163C16.4073 10.5702 12.8975 13.8766 11.8544 13.9885C14.4891 12.3066 14.4591 9.24274 11.8815 6.17163Z" fill="#5AA1DF"/>
<path fill-rule="evenodd" clip-rule="evenodd" d="M14.0954 4.60117L14.5973 6.10716C14.5973 6.10716 19.7357 6.16629 22.6594 6.25484C25.5832 6.3434 34.354 7.43604 34.354 7.43604C34.354 7.43604 23.4273 5.04393 19.6177 4.77827C15.8082 4.51232 14.0954 4.60117 14.0954 4.60117Z" fill="#A4CDEE"/>
<path fill-rule="evenodd" clip-rule="evenodd" d="M0.00193285 10.9214C-0.0755513 12.5046 2.32821 14.0764 8.26361 15.9349C9.72911 16.3937 11.1139 16.7633 12.4314 17.0505C13.056 17.1866 13.6654 17.304 14.2611 17.4039C14.8078 17.4953 15.3432 17.572 15.8681 17.6343C17.1854 17.7904 18.4373 17.8557 19.6413 17.8394C24.4805 17.7732 28.5482 16.3861 32.9814 14.2576C33.9231 13.8055 34.8812 13.3199 35.8666 12.8064C37.5043 11.9532 39.2174 11.0231 41.0563 10.0414C41.5198 9.79383 41.9917 9.54302 42.472 9.28931C42.472 9.28931 41.5626 9.42039 40.6849 9.65692C40.2928 9.76295 39.9069 9.88996 39.6115 10.0359C32.2552 13.6707 13.2203 22.4322 0.00193285 10.9214Z" fill="#73ADE2"/>
<path fill-rule="evenodd" clip-rule="evenodd" d="M41.0566 10.0414C42.9576 11.9919 47.7436 16.597 53.7003 18.0354C53.7003 18.0354 49.9187 15.8833 47.5563 14.0523C45.1939 12.2212 42.4723 9.28931 42.4723 9.28931C41.992 9.54302 41.5204 9.79383 41.0566 10.0414Z" fill="#4A8BC5"/>
</svg>
