<svg width="54" height="36" viewBox="0 0 54 36" fill="none" xmlns="http://www.w3.org/2000/svg">
<path fill-rule="evenodd" clip-rule="evenodd" d="M14.5386 7.44032C17.2508 4.29655 22.1204 0.0433712 23.045 0.783106C23.9695 1.52284 24.0929 3.92688 25.3875 3.80353C26.6822 3.68017 27.2985 3.43385 27.4834 5.09816C27.6682 6.76246 26.7436 9.96772 25.0793 9.84476C23.415 9.72101 14.5386 7.44032 14.5386 7.44032Z" fill="#6B4326"/>
<path fill-rule="evenodd" clip-rule="evenodd" d="M30.319 10.0292C31.6132 8.79645 35.1885 6.02234 35.4967 7.13214C35.8049 8.24154 35.0037 9.16652 36.4213 8.91981C37.8389 8.6731 39.072 9.10464 39.1335 10.5226C39.195 11.9406 37.4073 14.2828 37.4073 14.2828L30.319 10.0292Z" fill="#6B4326"/>
<path fill-rule="evenodd" clip-rule="evenodd" d="M26.374 27.0423C30.0108 28.6451 36.2983 29.5082 36.1135 28.7685C35.9286 28.0287 35.0656 27.289 35.9901 27.1657C36.9147 27.0423 39.1954 26.9189 38.8257 26.0559C38.456 25.1928 35.1274 23.467 34.141 23.7752C33.1541 24.0834 26.374 27.0423 26.374 27.0423Z" fill="#6B4326"/>
<path fill-rule="evenodd" clip-rule="evenodd" d="M13.737 29.1381C14.6001 30.4328 20.3327 36.5969 20.6409 35.056C20.9491 33.5146 20.086 31.6655 20.7643 31.6655C21.4421 31.6655 24.3396 33.2683 23.538 31.8503C22.7368 30.4327 20.086 27.782 19.4696 27.7201C18.8533 27.6586 13.737 29.1381 13.737 29.1381Z" fill="#6B4326"/>
<path fill-rule="evenodd" clip-rule="evenodd" d="M38.8213 17.3432C44.6674 17.8446 49.786 5.47387 51.7593 5.75092C53.7326 6.02797 52.1198 15.5491 50.5549 17.9073C48.9904 20.265 55.5586 30.1087 53.6484 31.264C51.7378 32.4189 44.5811 24.7537 42.6713 22.7648C40.7615 20.776 36.4708 21.354 36.5937 20.6758C36.7171 19.9975 38.8213 17.3432 38.8213 17.3432Z" fill="#6B4326"/>
<path fill-rule="evenodd" clip-rule="evenodd" d="M7.07979 9.41402C-2.51082 16.6066 0.422569 23.8383 0.422569 23.8383L2.88849 25.4411C2.88849 25.4411 0.678064 27.4934 0.985056 27.7002C1.30762 27.9178 2.1268 27.3736 2.46972 27.5657C15.7798 35.0101 43.9723 23.5013 42.6477 19.5236C39.1922 9.14895 16.67 2.22146 7.07979 9.41402Z" fill="#F48120"/>
<path fill-rule="evenodd" clip-rule="evenodd" d="M7.17681 21.7668C9.76967 21.7668 11.8843 19.7221 11.8843 17.2154C11.8843 14.7088 9.76967 12.6641 7.17681 12.6641C4.58394 12.6641 2.46933 14.7084 2.46933 17.2154C2.46933 19.7225 4.58394 21.7668 7.17681 21.7668Z" fill="#6B4326"/>
<path fill-rule="evenodd" clip-rule="evenodd" d="M22.2038 9.56532C22.6629 10.5841 23.3276 12.5087 23.7384 16.2361C24.3049 21.3759 23.9005 24.2498 24.3049 23.5213C24.7097 22.7927 26.3285 16.3982 25.7213 12.8364C25.0658 8.98926 21.1283 7.17765 22.2038 9.56532Z" fill="#A66A44"/>
<path fill-rule="evenodd" clip-rule="evenodd" d="M27.8698 10.739C28.3285 11.7578 28.9936 13.6824 29.4044 17.4098C29.9708 22.5496 29.566 25.4235 29.9708 24.6949C30.3756 23.9664 31.9948 17.5718 31.3876 14.0101C30.7317 10.1629 26.7943 8.3517 27.8698 10.739Z" fill="#A66A44"/>
<path fill-rule="evenodd" clip-rule="evenodd" d="M33.7917 13.3982C34.1118 14.1092 34.5761 15.4525 34.8628 18.0538C35.258 21.6411 34.9757 23.6467 35.2584 23.1381C35.541 22.6295 36.6708 18.1668 36.2472 15.6809C35.7893 12.9962 33.0412 11.7319 33.7917 13.3982Z" fill="#A66A44"/>
<path d="M6.87139 21.4822C9.47125 21.4822 11.5789 19.4444 11.5789 16.9308C11.5789 14.4171 9.47125 12.3794 6.87139 12.3794C4.27152 12.3794 2.16391 14.4171 2.16391 16.9308C2.16391 19.4444 4.27152 21.4822 6.87139 21.4822Z" fill="white"/>
<path fill-rule="evenodd" clip-rule="evenodd" d="M6.08974 18.1791C7.17838 18.1791 8.06622 17.3555 8.06622 16.3455C8.06622 15.3355 7.17838 14.512 6.08974 14.512C5.0011 14.512 4.11285 15.3355 4.11285 16.3455C4.11285 17.3555 5.0011 18.1791 6.08974 18.1791Z" fill="#404041"/>
<path fill-rule="evenodd" clip-rule="evenodd" d="M43.8733 19.128C43.8657 19.9296 43.7835 20.7492 43.6146 21.4674C43.1212 23.5632 42.098 21.4442 38.9726 22.0414C35.1247 22.7768 35.6584 15.581 38.9726 16.2142C42.0976 16.8114 43.1212 14.6924 43.6146 16.7882C43.7839 17.5068 43.8657 18.3264 43.8733 19.128Z" fill="#F48120"/>
<path fill-rule="evenodd" clip-rule="evenodd" d="M13.709 10.6108C21.8226 18.4964 15.5306 24.4239 13.6603 24.6247C18.3834 21.6095 18.3299 16.1167 13.709 10.6108Z" fill="#6B4326"/>
<path fill-rule="evenodd" clip-rule="evenodd" d="M20.3639 19.7388C22.3659 19.7863 30.3018 20.2513 29.7685 21.1336C29.1816 22.1049 25.9844 22.267 26.5916 23.2382C27.1984 24.2095 28.9157 27.4184 26.4989 26.9876C24.332 26.6016 20.0908 25.0974 18.8716 23.8718C19.7846 22.9931 20.3731 21.6167 20.3731 20.0697C20.3735 19.9583 20.3699 19.8482 20.3639 19.7388Z" fill="#6B4326"/>
<path fill-rule="evenodd" clip-rule="evenodd" d="M13.1294 7.76365C13.3318 7.88501 16.8732 11.4061 16.8732 11.4061C22.7284 10.2723 34.4767 14.8536 40.0672 17.2613C36.7877 9.41479 20.7539 6.61513 13.1294 7.76365Z" fill="#F9AB6F"/>
<path fill-rule="evenodd" clip-rule="evenodd" d="M42.6713 22.7644C44.5811 24.7532 51.7378 32.4189 53.648 31.2635C53.7043 31.2292 53.7534 31.1877 53.7957 31.139C52.9066 29.9154 51.519 28.4831 50.2874 27.2515C48.5082 25.4722 45.6526 22.7692 43.6218 21.437C43.6194 21.4474 43.617 21.4574 43.6146 21.4677C43.3424 22.6243 42.9088 22.4973 42.0497 22.2518C42.2757 22.4003 42.4849 22.57 42.6713 22.7644Z" fill="#613C22"/>
<path fill-rule="evenodd" clip-rule="evenodd" d="M36.8332 24.5368C38.5942 23.6825 40.0441 22.8174 41.0609 22.013C41.4425 22.078 41.7687 22.1711 42.0501 22.2513C42.9092 22.4972 43.3428 22.6238 43.615 21.4672C43.6174 21.4569 43.6198 21.4465 43.6222 21.4365C43.1356 21.1171 42.6964 20.8764 42.3304 20.7463C42.209 20.7032 42.0956 20.672 41.991 20.6541C40.8641 20.4624 40.0712 20.6413 39.1511 21.2712C38.8377 21.486 38.5091 21.7531 38.1478 22.0756C37.943 22.2581 37.7279 22.4589 37.4987 22.678C37.0867 23.0721 36.3929 23.5092 35.4955 23.9615C33.5346 24.9495 30.6012 26.0094 27.5129 26.8414C27.3644 26.9719 27.1384 27.041 26.8143 27.025C26.7133 27.051 26.6123 27.0765 26.5113 27.1021C25.0893 27.4586 23.6529 27.7608 22.2813 27.9799C21.6465 28.0813 20.9842 28.166 20.3068 28.2358C18.9139 28.3792 17.4572 28.4594 16.0412 28.4953C11.5613 28.6091 7.48896 28.2805 7.14484 28.1017C6.63904 27.8386 5.58673 26.2402 5.44501 25.815C5.30329 25.3899 4.73681 25.9364 3.54277 26.6446C2.34874 27.3528 1.03015 27.724 1.03015 27.724C1.37826 27.8714 2.14195 27.3815 2.4701 27.5652C5.76677 29.4091 9.97604 30.0902 14.424 30.0111C16.7438 29.97 19.1287 29.7217 21.4824 29.3241C23.8162 28.9297 26.1197 28.3879 28.2993 27.7548C31.5114 26.8218 34.456 25.6897 36.8332 24.5368Z" fill="#DD7B28"/>
</svg>
