<svg width="36" height="46" viewBox="0 0 36 46" fill="none" xmlns="http://www.w3.org/2000/svg">
<path d="M29.4444 21.3862H6.55568C4.68914 24.9172 3.57727 29.3338 3.57727 34.1295C3.57727 38.3226 4.42866 42.2245 5.88928 45.4999H15.6225V41.1367C15.6225 39.8237 16.6869 38.7593 17.9999 38.7593C19.313 38.7593 20.3774 39.8237 20.3774 41.1367V45.4999H30.1108C31.5714 42.2245 32.4226 38.3226 32.4226 34.1295C32.4228 29.3336 31.3107 24.9172 29.4444 21.3862Z" fill="#FB8C00"/>
<path d="M33.7728 10.152C31.7274 11.1839 28.6469 10.3318 27.6136 7.88494C26.5804 5.43811 29.0089 1.80678 31.0542 0.774905C33.0996 -0.256967 33.8411 1.77514 34.8744 4.22197C35.9077 6.66881 35.818 9.12013 33.7728 10.152Z" fill="#9E6621"/>
<path d="M2.22717 10.152C4.27258 11.1839 7.3531 10.3318 8.38641 7.88494C9.41972 5.43811 6.99123 1.80678 4.94582 0.774905C2.90041 -0.256967 2.15904 1.77514 1.12573 4.22197C0.0924202 6.66881 0.181757 9.12013 2.22717 10.152Z" fill="#9E6621"/>
<path d="M34.8743 4.22197C33.841 1.77514 33.0994 -0.256967 31.054 0.774905C30.7702 0.918181 30.4788 1.11161 30.1904 1.34495C28.6005 2.63174 26.5133 2.90103 24.6811 2.08632C22.8156 1.25687 20.5965 0.783713 17.9999 0.783713C15.3189 0.783713 13.0646 1.24698 11.1917 2.06043C9.38362 2.84566 7.33839 2.55857 5.76434 1.30864C5.49091 1.09148 5.21497 0.910631 4.94585 0.774905C2.90044 -0.256967 2.15908 1.77514 1.12577 4.22197C0.880381 4.80316 2.37821 1.43879 4.42362 2.47048C5.32642 2.92584 6.30256 3.88796 7.02362 5.03075C4.52357 7.80153 4.05977 11.6714 3.45629 15.5159C2.29498 22.9159 9.96787 25.3601 17.9999 25.3601C26.0324 25.3601 34.2453 23.4581 32.5436 15.5159C31.7408 11.7687 31.3893 7.90346 28.9067 5.14221C29.6337 3.9507 30.6443 2.94076 31.5763 2.47048C33.6218 1.43861 35.1199 4.80316 34.8743 4.22197Z" fill="#FFA726"/>
<path d="M15.7395 13.9604C15.7395 15.8402 14.2156 17.3641 12.3358 17.3641C10.456 17.3641 8.93207 15.8402 8.93207 13.9604C8.93207 12.0805 10.456 10.5566 12.3358 10.5566C14.2158 10.5566 15.7395 12.0805 15.7395 13.9604Z" fill="white"/>
<path d="M14.5408 14.9255C14.5408 15.7374 13.8827 16.3955 13.0707 16.3955C12.2588 16.3955 11.6007 15.7374 11.6007 14.9255C11.6007 14.1137 12.2588 13.4556 13.0707 13.4556C13.8827 13.4556 14.5408 14.1137 14.5408 14.9255Z" fill="#424242"/>
<path d="M26.8366 13.9604C26.8366 15.8402 25.3127 17.3641 23.4329 17.3641C21.553 17.3641 20.0289 15.8402 20.0289 13.9604C20.0289 12.0805 21.553 10.5566 23.4329 10.5566C25.3127 10.5566 26.8366 12.0805 26.8366 13.9604Z" fill="white"/>
<path d="M25.6379 14.9255C25.6379 15.7374 24.9798 16.3955 24.1678 16.3955C23.3559 16.3955 22.6978 15.7374 22.6978 14.9255C22.6978 14.1137 23.3559 13.4556 24.1678 13.4556C24.9796 13.4556 25.6379 14.1137 25.6379 14.9255Z" fill="#424242"/>
<path d="M20.4964 27.0736C20.4964 28.5804 19.3786 29.8021 17.9999 29.8021C16.6213 29.8021 15.5037 28.5806 15.5037 27.0736C15.5037 25.5667 16.6213 24.3452 17.9999 24.3452C19.3786 24.3452 20.4964 25.5667 20.4964 27.0736Z" fill="#FFAB91"/>
<path d="M18.7152 24.8855C18.7152 27.1387 17.0441 28.9654 14.9825 28.9654C12.9209 28.9654 11.2496 27.1387 11.2496 24.8855C11.2496 22.6323 12.9209 20.8057 14.9825 20.8057C17.0441 20.8057 18.7152 22.6321 18.7152 24.8855Z" fill="#FFE0B2"/>
<path d="M24.7502 24.8855C24.7502 27.1387 23.0789 28.9654 21.0174 28.9654C18.9559 28.9654 17.2845 27.1387 17.2845 24.8855C17.2845 22.6323 18.9559 20.8057 21.0174 20.8057C23.0789 20.8055 24.7502 22.6321 24.7502 24.8855Z" fill="#FFE0B2"/>
<path d="M17.9999 18.0173C15.747 18.0173 13.9206 19.3111 13.9206 20.5672C13.9206 21.4676 14.8595 21.5374 16.2211 21.5047C16.4311 21.4996 16.6324 21.6226 16.7678 21.8398L17.6335 23.2276C17.825 23.5346 18.1746 23.5346 18.3661 23.2276L19.2317 21.8398C19.3672 21.6226 19.5686 21.4996 19.7785 21.5047C21.1399 21.5374 22.0789 21.4676 22.0789 20.5672C22.0792 19.3111 20.2529 18.0173 17.9999 18.0173Z" fill="#9E6621"/>
<path opacity="0.37" d="M19.7929 3.17868C19.9461 3.69983 19.2671 4.4038 18.2769 4.75093C17.2866 5.09807 16.3599 4.95695 16.2069 4.43562C16.0539 3.91447 16.7327 3.2105 17.7231 2.86336C18.7132 2.51623 19.6399 2.65735 19.7929 3.17868Z" fill="#EF6C00"/>
<path opacity="0.45" d="M25.2257 31.9959C25.3789 32.517 24.6999 33.2212 23.7095 33.5681C22.7194 33.9153 21.7927 33.7742 21.6397 33.253C21.4867 32.7319 22.1655 32.0279 23.1559 31.6808C24.146 31.3336 25.0727 31.4747 25.2257 31.9959Z" fill="#EF6C00"/>
<path opacity="0.45" d="M8.51239 37.8829C8.24652 38.3564 7.26858 38.3627 6.32838 37.8971C5.38819 37.4313 4.84151 36.6696 5.10757 36.1961C5.37345 35.7224 6.3514 35.7161 7.29159 36.1819C8.23178 36.6477 8.77827 37.4092 8.51239 37.8829Z" fill="#EF6C00"/>
<path opacity="0.37" d="M26.8151 6.65171C26.6055 7.39559 25.3313 7.62713 23.969 7.16854C22.6067 6.71013 21.6722 5.73542 21.8819 4.99154C22.0913 4.24766 23.3657 4.0163 24.728 4.47471C26.0901 4.93312 27.0245 5.90782 26.8151 6.65171Z" fill="#EF6C00"/>
<path opacity="0.45" d="M31.159 37.3734C30.93 38.1173 29.5374 38.3486 28.0481 37.8902C26.5589 37.4318 25.5377 36.4571 25.7669 35.7132C25.9959 34.9693 27.3886 34.738 28.8778 35.1964C30.3666 35.6548 31.3881 36.6295 31.159 37.3734Z" fill="#EF6C00"/>
<path opacity="0.45" d="M16.4067 36.1985C15.6669 35.9561 15.4604 34.5595 15.9456 33.0789C16.4306 31.5984 17.4234 30.5945 18.1632 30.8369C18.9028 31.0792 19.1093 32.4758 18.6241 33.9564C18.1393 35.4371 17.1462 36.4408 16.4067 36.1985Z" fill="#EF6C00"/>
<path opacity="0.45" d="M13.8219 41.0638C14.1045 41.7891 13.1567 42.8354 11.7051 43.4009C10.2534 43.9665 8.84746 43.8371 8.56487 43.1117C8.28245 42.3863 9.23001 41.3401 10.6818 40.7745C12.1335 40.209 13.5394 40.3384 13.8219 41.0638Z" fill="#EF6C00"/>
<path opacity="0.45" d="M10.5745 27.5239C10.9721 28.1932 10.2088 29.3807 8.86955 30.1767C7.53028 30.9726 6.12215 31.0754 5.7245 30.4063C5.32685 29.7372 6.09015 28.5495 7.42943 27.7536C8.76871 26.9576 10.1768 26.8548 10.5745 27.5239Z" fill="#EF6C00"/>
<path opacity="0.45" d="M14.184 35.5707C13.955 36.3146 12.9197 36.6561 11.8718 36.3335C10.8239 36.0108 10.1599 35.1461 10.3891 34.4022C10.6181 33.6583 11.6534 33.3168 12.7012 33.6394C13.7491 33.9621 14.4128 34.8266 14.184 35.5707Z" fill="#EF6C00"/>
<path opacity="0.45" d="M24.2191 38.5963C23.9901 39.3402 22.955 39.6818 21.9069 39.3591C20.859 39.0364 20.1951 38.1719 20.4243 37.4278C20.6532 36.684 21.6885 36.3424 22.7364 36.6651C23.7844 36.9878 24.4481 37.8523 24.2191 38.5963Z" fill="#EF6C00"/>
<path opacity="0.45" d="M28.5652 41.0982C28.9534 41.7729 28.4975 42.7631 27.547 43.3099C26.5968 43.8566 25.5115 43.7529 25.1234 43.0782C24.7353 42.4035 25.191 41.4134 26.1414 40.8665C27.0919 40.3197 28.1771 40.4234 28.5652 41.0982Z" fill="#EF6C00"/>
<path opacity="0.45" d="M26.4809 26.791C27.081 26.2952 28.3719 26.8666 29.3644 28.0675C30.3569 29.2684 30.6751 30.644 30.0752 31.1398C29.4751 31.6356 28.184 31.0641 27.1917 29.8632C26.1992 28.6622 25.881 27.2868 26.4809 26.791Z" fill="#EF6C00"/>
<path opacity="0.37" d="M13.722 5.66075C13.5124 6.40463 12.4697 6.71401 11.3931 6.3516C10.3164 5.98918 9.61356 5.0925 9.82317 4.34861C10.0328 3.60473 11.0754 3.29535 12.1521 3.65776C13.2287 4.02 13.9316 4.91686 13.722 5.66075Z" fill="#EF6C00"/>
<path opacity="0.37" d="M19.4976 6.8899C19.8039 7.59262 19.009 8.70539 17.7222 9.37539C16.4352 10.0454 15.1438 10.019 14.8374 9.31606C14.5313 8.61335 15.3262 7.50058 16.613 6.83058C17.9 6.16058 19.1914 6.18719 19.4976 6.8899Z" fill="#EF6C00"/>
</svg>
