<svg width="54" height="72" viewBox="0 0 54 72" fill="none" xmlns="http://www.w3.org/2000/svg">
<path d="M53.9199 67.2055C53.9199 69.6233 51.9594 71.5832 49.5416 71.5832H4.45842C2.04061 71.5832 0.0801239 69.6233 0.0801239 67.2055V4.79417C0.0801239 2.37636 2.03999 0.416504 4.45842 0.416504H49.5416C51.9594 0.416504 53.9199 2.37636 53.9199 4.79417V67.2055Z" fill="#333333"/>
<path d="M49.588 5.36719H4.4126V60.444H49.588V5.36719Z" fill="#CCCCCC"/>
<path d="M29.5543 65.9603C29.5543 67.3713 28.4113 68.5137 27.0003 68.5137C25.5894 68.5137 24.4464 67.3713 24.4464 65.9603C24.4464 64.5494 25.5894 63.4058 27.0003 63.4058C28.4113 63.4058 29.5543 64.5494 29.5543 65.9603Z" fill="white"/>
</svg>
