<svg width="82" height="82" viewBox="0 0 82 82" fill="none" xmlns="http://www.w3.org/2000/svg">
<path fill-rule="evenodd" clip-rule="evenodd" d="M28.1333 4.66113H49.791C54.6186 4.66113 71.4487 12.7991 71.4487 17.6194L79.1624 44.4165L72.0421 60.1405C72.0421 64.9608 63.3556 70.2276 58.528 70.2276L42.9674 76.1613L23.4609 70.2276C18.6335 70.2276 5.58554 78.9051 5.58554 74.0846L9.44239 56.5803L5.58554 27.5056C5.58554 22.6852 23.3059 4.66113 28.1333 4.66113Z" fill="#1DAF7F"/>
<path fill-rule="evenodd" clip-rule="evenodd" d="M41.729 73.256C34.9077 73.256 28.5724 71.2374 23.2641 67.7425L10.3698 71.8349L14.5559 59.4823C10.5561 53.9872 8.18264 47.2406 8.18264 39.9524C8.18264 38.8683 8.23842 37.7848 8.33218 36.7192C9.97638 19.8623 24.3292 6.64936 41.7468 6.64936C59.3696 6.64936 73.8536 20.1988 75.1993 37.3546C75.2557 38.1954 75.3115 39.0742 75.3115 39.9524C75.3115 58.3235 60.249 73.256 41.729 73.256ZM81.6296 38.9431C81.0873 17.5263 63.4448 0.333008 41.7474 0.333008C20.2742 0.333008 2.78187 17.1341 1.86631 38.2144C1.82893 38.7942 1.80994 39.3733 1.80994 39.953C1.80994 47.4288 3.90332 54.4369 7.54716 60.3984L0.333649 81.6663L22.4423 74.6391C28.1606 77.7786 34.7392 79.5729 41.7474 79.5729C63.7807 79.5729 81.6664 61.8368 81.6664 39.9524C81.6664 39.6159 81.6474 39.2795 81.6296 38.9431Z" fill="#1DAF7F"/>
<path fill-rule="evenodd" clip-rule="evenodd" d="M60.0247 47.9522C59.0344 47.4479 54.2311 45.1112 53.3352 44.7944C52.438 44.4574 51.7841 44.3084 51.1296 45.2791C50.4752 46.2517 48.6067 48.4376 48.0275 49.0737C47.4668 49.7282 46.8871 49.8029 45.9152 49.3164C44.9243 48.831 41.7848 47.8027 38.0478 44.4947C35.132 41.935 33.1698 38.7575 32.5906 37.7856C32.0305 36.8131 32.5349 36.2903 33.0202 35.8044C33.4688 35.3558 34.0106 34.6639 34.4971 34.1038C34.6466 33.9358 34.7398 33.7863 34.8525 33.6368C35.0952 33.2814 35.2448 32.9271 35.4684 32.478C35.8049 31.8235 35.637 31.2628 35.3943 30.778C35.151 30.292 33.1893 25.5071 32.3853 23.5639C31.5629 21.6206 30.7411 21.9565 30.1798 21.9565C29.6007 21.9565 28.9462 21.8633 28.2923 21.8633C27.6379 21.8633 26.5917 22.106 25.6946 23.0785C24.7974 24.0504 22.2561 26.4043 22.2561 31.1892C22.2561 32.3106 22.4614 33.4315 22.7604 34.4782C23.7507 37.9173 25.8815 40.7393 26.2553 41.2253C26.7413 41.8602 33.0202 51.9895 42.9816 55.8766C52.924 59.7637 52.924 58.4738 54.7177 58.3058C56.5126 58.1569 60.5113 55.9698 61.3337 53.6906C62.1371 51.4282 62.1371 49.4849 61.8944 49.0743C61.6511 48.6803 60.9966 48.4376 60.0247 47.9522Z" fill="#FEFEFE"/>
</svg>
