<svg width="92" height="68" viewBox="0 0 92 68" fill="none" xmlns="http://www.w3.org/2000/svg">
<path fill-rule="evenodd" clip-rule="evenodd" d="M28.04 6.84766H63.9384C68.872 6.84766 72.9114 10.887 72.9114 15.8206V51.7189C72.9114 56.6525 68.8723 60.6919 63.9384 60.6919H28.04C23.1066 60.6919 19.0672 56.6528 19.0672 51.7189V15.8206C19.0674 10.887 23.1066 6.84766 28.04 6.84766Z" fill="#FEFEFE"/>
<path fill-rule="evenodd" clip-rule="evenodd" d="M61.2636 33.0224L36.5594 46.3731L36.5387 25.8103V19.5662L47.6812 25.6214L61.2636 33.0224ZM90.8255 14.9201C90.8255 14.9201 89.9216 8.33952 87.1881 5.43773C83.7189 1.65346 79.8084 1.63279 78.0207 1.40049C65.2174 0.454585 46.0223 0.45459 46.0223 0.45459H45.9796C45.9796 0.45459 26.7633 0.454585 13.9586 1.40049C12.1716 1.63279 8.28178 1.65346 4.79189 5.43773C2.059 8.33952 1.17585 14.9201 1.17585 14.9201C1.17585 14.9201 0.25 22.6362 0.25 30.3516V31.2768V37.5844C0.25 45.3218 1.17585 53.0372 1.17585 53.0372C1.17585 53.0372 2.059 59.6178 4.79189 62.4989C8.28178 66.3045 12.8651 66.1783 14.8844 66.5768C22.222 67.3131 46.0003 67.5447 46.0003 67.5447C46.0003 67.5447 65.2174 67.5014 78.0207 66.5348C79.8091 66.3245 83.7189 66.3038 87.1881 62.4982C89.9423 59.5964 90.8255 53.0365 90.8255 53.0365C90.8255 53.0365 91.75 45.3204 91.75 37.5837V31.6973V30.3509C91.7493 22.6362 90.8255 14.9201 90.8255 14.9201Z" fill="#F0594A"/>
</svg>
