<svg width="280" height="17" viewBox="0 0 280 17" fill="none" xmlns="http://www.w3.org/2000/svg">
<path d="M280 9.25464H0V29.6401H280V9.25464Z" fill="#7C4D29"/>
<path d="M22.8108 15.1506C22.8108 16.6408 21.6686 17.8483 20.2596 17.8483H14.9792C13.5702 17.8483 12.4283 16.6408 12.4283 15.1506C12.4283 13.66 13.5702 12.4524 14.9792 12.4524H20.2596C21.6686 12.4524 22.8108 13.6604 22.8108 15.1506Z" fill="#56331B"/>
<path d="M63.1672 15.1506C63.1672 16.6408 62.025 17.8483 60.6164 17.8483H55.3359C53.9273 17.8483 52.7851 16.6408 52.7851 15.1506C52.7851 13.66 53.9269 12.4524 55.3359 12.4524H60.6164C62.025 12.4524 63.1672 13.6604 63.1672 15.1506Z" fill="#56331B"/>
<path d="M191.999 15.1506C191.999 16.6408 190.857 17.8483 189.448 17.8483H184.167C182.758 17.8483 181.616 16.6408 181.616 15.1506C181.616 13.66 182.758 12.4524 184.167 12.4524H189.448C190.857 12.4524 191.999 13.6604 191.999 15.1506Z" fill="#56331B"/>
<path d="M141.689 15.1506C141.689 16.6408 140.546 17.8483 139.138 17.8483H129.322C127.913 17.8483 126.771 16.6408 126.771 15.1506C126.771 13.66 127.913 12.4524 129.322 12.4524H139.138C140.546 12.4524 141.689 13.6604 141.689 15.1506Z" fill="#56331B"/>
<path d="M96.5419 17.8488C96.5419 19.339 95.3997 20.5466 93.9911 20.5466H84.1752C82.7661 20.5466 81.6243 19.339 81.6243 17.8488C81.6243 16.3582 82.7661 15.1506 84.1752 15.1506H93.9911C95.3997 15.1506 96.5419 16.3586 96.5419 17.8488Z" fill="#56331B"/>
<path d="M226.823 15.1506C226.823 16.6408 225.681 17.8483 224.271 17.8483H218.991C217.582 17.8483 216.44 16.6408 216.44 15.1506C216.44 13.66 217.582 12.4524 218.991 12.4524H224.271C225.68 12.4524 226.823 13.6604 226.823 15.1506Z" fill="#56331B"/>
<path d="M260.197 17.8488C260.197 19.339 259.055 20.5466 257.646 20.5466H247.83C246.421 20.5466 245.279 19.339 245.279 17.8488C245.279 16.3582 246.421 15.1506 247.83 15.1506H257.646C259.055 15.1506 260.197 16.3586 260.197 17.8488Z" fill="#56331B"/>
<path d="M280 4.22754H0V9.25454H280V4.22754Z" fill="#56331B"/>
<path d="M280 0H0V5.02703H280V0Z" fill="#7FC62E"/>
</svg>
