<svg width="280" height="17" viewBox="0 0 280 17" fill="none" xmlns="http://www.w3.org/2000/svg">
<path d="M280 3.59632C278.411 6.55966 274.93 8.62261 270.876 8.62261C265.323 8.62261 260.825 4.76414 260.825 0C260.825 4.76414 256.327 8.62261 250.774 8.62261C245.44 8.62261 241.074 5.05526 240.747 0.549981C240.415 5.05526 236.048 8.62261 230.715 8.62261C225.162 8.62261 220.664 4.76414 220.664 0C220.664 4.76414 216.166 8.62261 210.613 8.62261C205.342 8.62261 201.026 5.14156 200.599 0.716638C200.172 5.1409 195.856 8.62261 190.585 8.62261C185.032 8.62261 180.534 4.76414 180.534 0C180.534 4.76414 176.036 8.62261 170.483 8.62261C165.294 8.62261 161.028 5.2542 160.494 0.926753C159.954 5.2542 155.688 8.62261 150.499 8.62261C144.946 8.62261 140.448 4.76414 140.448 0C140.448 4.76414 135.95 8.62261 130.397 8.62261C125.126 8.62261 120.811 5.14156 120.383 0.716638C119.956 5.1409 115.64 8.62261 110.37 8.62261C104.816 8.62261 100.318 4.76414 100.318 0C100.318 4.76414 95.8202 8.62261 90.267 8.62261C84.9338 8.62261 80.5675 5.05526 80.2408 0.549981C79.9082 5.05526 75.5419 8.62261 70.2086 8.62261C64.6554 8.62261 60.1574 4.76414 60.1574 0C60.1574 4.76414 55.6593 8.62261 50.1061 8.62261C44.8355 8.62261 40.5199 5.14156 40.0924 0.716638C39.6649 5.1409 35.3493 8.62261 30.0787 8.62261C24.5255 8.62261 20.0274 4.76414 20.0274 0C20.0274 4.76414 15.5294 8.62261 9.97617 8.62261C4.83725 8.62261 0.603339 5.31874 0 1.0565V29.64H279.999V3.59632H280Z" fill="#039EF5"/>
</svg>
