<svg width="110" height="110" viewBox="0 0 110 110" fill="none" xmlns="http://www.w3.org/2000/svg">
<rect width="110" height="110" fill="#398E3D" fill-opacity="0.1"/>
<path d="M63.2095 81.5385H46.7895V98.2505H63.2095V81.5385Z" fill="#FDCC9B"/>
<path d="M28.5765 55.8805C28.6005 59.7125 25.5105 62.8365 21.6805 62.8595C17.8465 62.8855 14.7215 59.7955 14.6985 55.9635C14.6765 52.1305 17.7645 49.0045 21.5975 48.9845C25.4305 48.9605 28.5535 52.0495 28.5765 55.8805Z" fill="#FDCC9B"/>
<path d="M25.6685 55.8966C25.6825 58.1236 23.8875 59.9386 21.6615 59.9536C19.4365 59.9646 17.6215 58.1716 17.6075 55.9446C17.5935 53.7166 19.3885 51.9036 21.6135 51.8926C23.8415 51.8766 25.6555 53.6716 25.6685 55.8966Z" fill="#F4B882"/>
<path d="M95.3015 55.4875C95.3245 59.3195 92.2355 62.4455 88.4035 62.4665C84.5705 62.4915 81.4445 59.4025 81.4225 55.5705C81.3995 51.7375 84.4885 48.6145 88.3215 48.5915C92.1535 48.5665 95.2765 51.6565 95.3015 55.4875Z" fill="#FDCC9B"/>
<path d="M92.3905 55.5055C92.4055 57.7325 90.6105 59.5465 88.3845 59.5605C86.1595 59.5715 84.3445 57.7785 84.3305 55.5515C84.3165 53.3265 86.1095 51.5115 88.3395 51.4975C90.5645 51.4855 92.3775 53.2785 92.3905 55.5055Z" fill="#F4B882"/>
<path d="M88.2015 57.9615C88.2905 72.7975 76.2235 85.0065 61.3875 85.0935L48.6145 85.1655C33.7785 85.2555 21.5685 73.1875 21.4795 58.3535L21.4135 46.7445C21.3245 31.9075 33.3925 19.6985 48.2265 19.6115L61.0015 19.5355C75.8375 19.4495 88.0495 31.5145 88.1365 46.3515L88.2015 57.9615Z" fill="#FDCC9B"/>
<path d="M58.7195 65.3125C58.7255 66.6045 57.0715 67.6635 55.0245 67.6765C52.9745 67.6885 51.3075 66.6505 51.2995 65.3555C51.2915 64.0635 52.9475 63.0065 54.9965 62.9965C57.0415 62.9825 58.7095 64.0225 58.7195 65.3125Z" fill="#F4B882"/>
<path d="M55.0065 70.0165H43.5725C43.5725 70.0165 44.5845 78.8635 55.0065 78.8635C65.4325 78.8635 66.4435 70.0165 66.4435 70.0165H55.0065Z" fill="white"/>
<path d="M71.0395 58.1985C71.0765 57.0725 71.5555 55.4645 72.9115 55.3795C74.2585 55.2955 74.7515 57.2045 74.7835 58.1985C74.8095 59.0025 76.0595 59.0055 76.0335 58.1985C75.9725 56.3215 75.0065 54.2605 72.9115 54.1295C70.8235 53.9995 69.8445 56.5275 69.7895 58.1985C69.7635 59.0055 71.0135 59.0025 71.0395 58.1985Z" fill="#352215"/>
<path d="M34.8465 58.1985C34.8835 57.0715 35.3635 55.4645 36.7195 55.3795C38.0665 55.2955 38.5595 57.2055 38.5915 58.1985C38.6175 59.0025 39.8675 59.0055 39.8415 58.1985C39.7805 56.3215 38.8145 54.2605 36.7195 54.1295C34.6315 53.9995 33.6515 56.5275 33.5965 58.1985C33.5705 59.0055 34.8205 59.0025 34.8465 58.1985Z" fill="#352215"/>
<path d="M68.2865 49.7644C71.0775 47.3714 74.7705 47.7354 77.5145 49.9934C78.1845 50.5434 79.0105 49.4874 78.3445 48.9394C75.1645 46.3244 70.7315 45.9074 67.4755 48.6974C66.8235 49.2554 67.6275 50.3304 68.2865 49.7644Z" fill="#964711"/>
<path d="M41.3445 49.7644C38.5535 47.3714 34.8615 47.7354 32.1165 49.9934C31.4465 50.5434 30.6205 49.4874 31.2865 48.9394C34.4665 46.3244 38.8985 45.9074 42.1545 48.6974C42.8085 49.2554 42.0025 50.3304 41.3445 49.7644Z" fill="#964711"/>
<path d="M63.2095 89.8946C60.4395 94.4596 49.5595 94.4596 46.7895 89.8946C46.7895 89.8946 20.6995 89.2906 14.6985 104.61H54.8165H54.9995H95.1175C89.1175 89.2906 63.2095 89.8946 63.2095 89.8946Z" fill="#398E3D"/>
<path d="M57.8655 14.0225C58.6435 11.6335 59.4225 9.24454 60.1995 6.85454C60.6745 5.39554 58.3865 4.76053 57.9145 6.21053C57.0765 8.78653 56.2385 11.3605 55.3995 13.9365C55.1055 13.9335 54.8075 13.9325 54.5065 13.9345C52.7595 12.4355 51.0125 10.9385 49.2655 9.43953C48.1115 8.45153 46.4165 10.1155 47.5825 11.1145C48.7225 12.0905 49.8595 13.0665 50.9995 14.0425C16.1355 16.1415 18.6785 46.6185 19.5785 50.8125C19.5785 50.8125 32.1105 49.8385 38.9715 40.8985C38.9715 40.8985 35.4595 47.5835 32.1115 49.8385C32.1115 49.8385 54.5025 46.7335 61.3575 33.1525C61.3575 33.1525 72.2325 47.7925 84.4435 49.2125L88.4785 50.0015C88.4785 50.0015 92.1715 16.0035 57.8655 14.0225Z" fill="#A86027"/>
</svg>
