<svg width="110" height="110" viewBox="0 0 110 110" fill="none" xmlns="http://www.w3.org/2000/svg">
<rect width="110" height="110" fill="#AC69B9" fill-opacity="0.1"/>
<path d="M88.289 56.3052C79.426 43.9492 78.137 35.2042 78.137 35.2042L73.072 33.2562L54.501 37.8002L35.932 33.2562L30.865 35.2042C30.865 35.2042 27.338 44.5232 20.712 56.3052C5.49004 83.3712 18.323 96.0162 36.42 100.577H51.881H57.124H74.628C92.723 96.0162 104.639 79.1002 88.289 56.3052Z" fill="#D76327"/>
<path d="M63.138 80.8391H46.718V97.5511H63.138V80.8391Z" fill="#FDCC9B"/>
<path d="M28.505 55.1812C28.528 59.0132 25.439 62.1372 21.609 62.1602C17.774 62.1862 14.65 59.0962 14.628 55.2642C14.605 51.4312 17.694 48.3052 21.527 48.2852C25.358 48.2612 28.481 51.3502 28.505 55.1812Z" fill="#FDCC9B"/>
<path d="M25.596 55.1972C25.611 57.4242 23.815 59.2392 21.59 59.2542C19.365 59.2652 17.549 57.4722 17.535 55.2452C17.522 53.0172 19.316 51.2042 21.542 51.1932C23.769 51.1772 25.582 52.9722 25.596 55.1972Z" fill="#F4B882"/>
<path d="M95.229 54.7881C95.252 58.6201 92.163 61.7461 88.331 61.7671C84.498 61.7921 81.372 58.7031 81.349 54.8711C81.327 51.0381 84.415 47.9151 88.249 47.8921C92.081 47.8671 95.204 50.9571 95.229 54.7881Z" fill="#FDCC9B"/>
<path d="M92.317 54.8062C92.333 57.0332 90.537 58.8472 88.312 58.8612C86.087 58.8722 84.271 57.0792 84.257 54.8522C84.243 52.6272 86.036 50.8122 88.267 50.7982C90.492 50.7862 92.305 52.5792 92.317 54.8062Z" fill="#F4B882"/>
<path d="M88.13 57.2621C88.219 72.0981 76.151 84.3072 61.316 84.3941L48.543 84.4662C33.706 84.5562 21.497 72.4882 21.408 57.6542L21.342 46.0452C21.253 31.2082 33.321 18.9991 48.155 18.9121L60.93 18.8362C75.766 18.7502 87.978 30.8151 88.064 45.6521L88.13 57.2621Z" fill="#FDCC9B"/>
<path d="M58.646 64.6131C58.653 65.9051 56.998 66.9641 54.951 66.9771C52.902 66.9891 51.235 65.9511 51.226 64.6561C51.219 63.3641 52.874 62.3071 54.923 62.2971C56.97 62.2831 58.637 63.3231 58.646 64.6131Z" fill="#F4B882"/>
<path d="M54.935 71.3171H45.751C45.751 71.3171 46.564 77.5771 54.935 77.5771C63.309 77.5771 64.122 71.3171 64.122 71.3171H54.935Z" fill="white"/>
<path d="M75.337 57.4992C75.337 59.3932 74.213 60.9432 72.84 60.9432C71.466 60.9432 70.342 59.3932 70.342 57.4992C70.342 55.6052 71.466 54.0552 72.84 54.0552C74.213 54.0562 75.337 55.6052 75.337 57.4992Z" fill="#352215"/>
<path d="M39.144 57.4992C39.144 59.3932 38.02 60.9432 36.646 60.9432C35.273 60.9432 34.149 59.3932 34.149 57.4992C34.149 55.6052 35.273 54.0552 36.646 54.0552C38.02 54.0562 39.144 55.6052 39.144 57.4992Z" fill="#352215"/>
<path d="M63.137 89.1952C61.705 91.5532 58.11 96.6302 54.586 96.5512C51.289 96.4782 48.056 91.4022 46.717 89.1952C46.717 89.1952 20.626 88.5912 14.626 103.91H54.743H54.927H95.045C89.045 88.5912 63.137 89.1952 63.137 89.1952Z" fill="#AC69B9"/>
<path d="M68.957 49.4682C71.331 48.2152 74.312 48.2722 76.437 49.9722C77.034 50.4472 77.883 49.6082 77.282 49.1262C74.715 47.0752 71.249 46.9092 68.356 48.4372C67.675 48.7962 68.278 49.8252 68.957 49.4682Z" fill="#6D4D42"/>
<path d="M40.512 49.4682C38.137 48.2152 35.157 48.2722 33.032 49.9722C32.437 50.4472 31.588 49.6082 32.187 49.1262C34.754 47.0752 38.22 46.9092 41.114 48.4372C41.793 48.7962 41.19 49.8252 40.512 49.4682Z" fill="#6D4D42"/>
<path d="M22.546 50.7972C22.546 50.7972 37.112 38.4172 41.412 30.0772C41.412 30.0772 57.609 38.5322 88.267 50.7972C88.267 50.7972 91.131 47.7932 93.372 50.1122C93.372 50.1122 96.426 4.66619 55.613 6.15919C55.683 6.16319 14.953 2.41819 17.664 49.4092C17.664 49.4092 20.697 49.3692 22.546 50.7972Z" fill="#D76327"/>
</svg>
