<svg width="110" height="110" viewBox="0 0 110 110" fill="none" xmlns="http://www.w3.org/2000/svg">
<rect width="110" height="110" fill="#A9BF52" fill-opacity="0.1"/>
<path d="M24.5729 59.408C24.5729 59.408 16.5129 67.735 19.2629 78.235C22.0129 88.735 15.5129 91.735 11.7629 92.235C11.7629 92.235 38.4219 96.645 39.7029 74.735C40.9849 52.825 29.6329 55.581 24.5729 59.408Z" fill="#966544"/>
<path d="M66.1439 79.825H49.7249V101.319H66.1439V79.825Z" fill="#FDCC9B"/>
<path d="M31.5129 54.1659C31.5349 57.9989 28.4469 61.1209 24.6159 61.1449C20.7819 61.1699 17.6579 58.0809 17.6349 54.2489C17.6129 50.4159 20.7009 47.2899 24.5339 47.2689C28.3649 47.2459 31.4889 50.3359 31.5129 54.1659Z" fill="#FDCC9B"/>
<path d="M28.603 54.182C28.618 56.409 26.822 58.225 24.597 58.239C22.372 58.251 20.556 56.458 20.542 54.23C20.528 52.002 22.323 50.189 24.548 50.178C26.777 50.162 28.59 51.957 28.603 54.182Z" fill="#F4B882"/>
<path d="M98.2369 53.773C98.2599 57.605 95.1709 60.731 91.3379 60.752C87.5059 60.777 84.3799 57.688 84.3579 53.856C84.3349 50.023 87.4239 46.9 91.2559 46.877C95.0889 46.853 98.2119 49.942 98.2369 53.773Z" fill="#FDCC9B"/>
<path d="M95.3249 53.791C95.3409 56.018 93.5449 57.831 91.3199 57.846C89.0949 57.857 87.2789 56.064 87.2649 53.836C87.2509 51.611 89.0439 49.795 91.2749 49.782C93.4999 49.771 95.3119 51.564 95.3249 53.791Z" fill="#F4B882"/>
<path d="M91.1369 56.247C91.2269 71.083 79.1589 83.292 64.3229 83.38L51.5499 83.452C36.7139 83.542 24.5049 71.474 24.4149 56.641L24.3489 45.032C24.2599 30.194 36.3259 17.985 51.1599 17.898L63.9359 17.822C78.7719 17.736 90.9839 29.801 91.0699 44.638L91.1369 56.247Z" fill="#FDCC9B"/>
<path d="M61.6539 63.598C61.6609 64.889 60.0059 65.948 57.9589 65.961C55.9099 65.973 54.2419 64.936 54.2339 63.641C54.2259 62.35 55.8829 61.292 57.9309 61.282C59.9769 61.268 61.6439 62.307 61.6539 63.598Z" fill="#F4B882"/>
<path d="M57.9429 70.302H48.7589C48.7589 70.302 49.5719 76.562 57.9429 76.562C66.3169 76.562 67.1289 70.302 67.1289 70.302H57.9429Z" fill="white"/>
<path d="M73.974 56.485C74.011 55.358 74.49 53.75 75.847 53.666C77.194 53.582 77.686 55.492 77.719 56.485C77.745 57.289 78.995 57.292 78.969 56.485C78.907 54.609 77.942 52.546 75.847 52.416C73.759 52.286 72.779 54.814 72.724 56.485C72.698 57.292 73.948 57.289 73.974 56.485Z" fill="#352215"/>
<path d="M37.7809 56.485C37.8179 55.359 38.2979 53.751 39.6539 53.666C41.0009 53.582 41.494 55.491 41.527 56.485C41.553 57.289 42.803 57.292 42.777 56.485C42.715 54.608 41.7489 52.546 39.6539 52.416C37.5659 52.286 36.5859 54.815 36.5309 56.485C36.5049 57.292 37.7549 57.289 37.7809 56.485Z" fill="#352215"/>
<path d="M66.1439 88.18C64.7129 90.538 57.5939 100.319 57.5939 100.319C57.5939 100.319 51.0639 90.387 49.7249 88.18C49.7249 88.18 23.6339 87.576 17.6339 102.895H57.7509H57.9349H98.0529C92.0529 87.577 66.1439 88.18 66.1439 88.18Z" fill="#A9BF52"/>
<path d="M71.9649 48.453C74.3389 47.2 77.3189 47.257 79.4439 48.957C80.0409 49.432 80.8899 48.593 80.2889 48.111C77.7219 46.06 74.2559 45.894 71.3629 47.421C70.6819 47.781 71.2859 48.81 71.9649 48.453Z" fill="#6D4D42"/>
<path d="M43.5189 48.453C41.1439 47.2 38.1639 47.257 36.0389 48.957C35.4439 49.432 34.5949 48.593 35.1939 48.111C37.7609 46.06 41.2269 45.894 44.1209 47.421C44.8009 47.781 44.1979 48.81 43.5189 48.453Z" fill="#6D4D42"/>
<path d="M92.254 52.411C92.254 52.411 99.896 7.10498 58.997 7.10498C15.357 7.10498 23.216 51.219 23.216 51.219C23.216 51.219 29.493 46.179 36.354 44.284L38.6639 34.713L39.237 44.16L47.138 43.402L48.902 30.431L51.603 43.15C51.603 43.15 86.031 42.269 92.254 52.411Z" fill="#8C5438"/>
</svg>
