<svg width="110" height="110" viewBox="0 0 110 110" fill="none" xmlns="http://www.w3.org/2000/svg">
<rect width="110" height="110" fill="#1A9BDC" fill-opacity="0.1"/>
<path d="M42.2445 78.9979C41.1475 78.9979 40.1025 79.2119 39.1405 79.5889C37.6605 77.5809 35.4015 76.1879 32.8055 75.8569C33.3735 74.8999 33.7055 73.7869 33.7055 72.5929C33.7055 69.0559 30.8385 66.1889 27.3015 66.1889C26.4825 66.1889 25.7015 66.3479 24.9825 66.6279C25.0905 66.1719 25.1535 65.6989 25.1535 65.2099C25.1535 61.8089 22.3955 59.0509 18.9945 59.0509C15.5935 59.0509 12.8355 61.8089 12.8355 65.2099C12.8355 66.8259 13.4635 68.2929 14.4815 69.3919C12.2105 70.6149 10.6685 73.0129 10.6685 75.7719C10.6685 79.0619 12.8635 81.8349 15.8685 82.7169C14.9105 84.1039 14.3465 85.7819 14.3465 87.5949C14.3465 92.3419 18.1955 96.1909 22.9435 96.1909C25.1385 96.1909 27.1355 95.3609 28.6555 94.0069C29.5855 94.3159 30.5765 94.4899 31.6105 94.4899C33.2095 94.4899 34.7145 94.0869 36.0305 93.3809C37.5885 95.0359 39.7925 96.0759 42.2455 96.0759C46.9615 96.0759 50.7845 92.2539 50.7845 87.5379C50.7845 82.8219 46.9595 78.9979 42.2445 78.9979Z" fill="#0B0B0B"/>
<path d="M56.9855 87.5369C56.9855 92.2529 60.8085 96.0749 65.5245 96.0749C67.9775 96.0749 70.1815 95.0349 71.7395 93.3799C73.0555 94.0859 74.5605 94.4889 76.1595 94.4889C77.1935 94.4889 78.1845 94.3149 79.1145 94.0059C80.6345 95.3599 82.6315 96.1899 84.8265 96.1899C89.5745 96.1899 93.4235 92.3409 93.4235 87.5939C93.4235 85.7809 92.8605 84.1029 91.9015 82.7159C94.9065 81.8329 97.1015 79.0609 97.1015 75.7709C97.1015 73.0119 95.5585 70.6139 93.2885 69.3909C94.3065 68.2919 94.9345 66.8259 94.9345 65.2089C94.9345 61.8079 92.1765 59.0499 88.7755 59.0499C85.3745 59.0499 82.6165 61.8079 82.6165 65.2089C82.6165 65.6979 82.6795 66.1709 82.7875 66.6269C82.0675 66.3469 81.2875 66.1879 80.4685 66.1879C76.9315 66.1879 74.0645 69.0549 74.0645 72.5919C74.0645 73.7849 74.3965 74.8989 74.9645 75.8559C72.3685 76.1869 70.1105 77.5809 68.6295 79.5879C67.6665 79.2109 66.6215 78.9969 65.5255 78.9969C60.8085 78.9979 56.9855 82.8209 56.9855 87.5369Z" fill="#0B0B0B"/>
<path d="M62.6935 82.3899H46.2745V99.1029H62.6935V82.3899Z" fill="#BF8158"/>
<path d="M28.0615 56.7318C28.0835 60.5638 24.9955 63.6878 21.1635 63.7098C17.3295 63.7348 14.2055 60.6468 14.1835 56.8138C14.1605 52.9818 17.2495 49.8548 21.0815 49.8348C24.9135 49.8118 28.0385 52.9018 28.0615 56.7318Z" fill="#BF8158"/>
<path d="M25.1525 56.7479C25.1675 58.9759 23.3715 60.7909 21.1465 60.8049C18.9215 60.8169 17.1055 59.0239 17.0915 56.7969C17.0775 54.5689 18.8725 52.7559 21.0975 52.7439C23.3265 52.7279 25.1385 54.5229 25.1525 56.7479Z" fill="#AA6944"/>
<path d="M94.7865 56.3399C94.8095 60.1719 91.7205 63.2969 87.8875 63.3189C84.0555 63.3439 80.9295 60.2539 80.9075 56.4219C80.8845 52.5889 83.9735 49.4649 87.8055 49.4429C91.6375 49.4189 94.7605 52.5079 94.7865 56.3399Z" fill="#BF8158"/>
<path d="M91.8745 56.357C91.8905 58.584 90.0945 60.3979 87.8695 60.4119C85.6445 60.4239 83.8285 58.6309 83.8145 56.4019C83.8005 54.1769 85.5935 52.362 87.8245 52.348C90.0485 52.337 91.8615 54.13 91.8745 56.357Z" fill="#AA6944"/>
<path d="M87.6855 58.8129C87.7755 73.6489 75.7075 85.8579 60.8715 85.9449L48.0985 86.0169C33.2625 86.1069 21.0535 74.0399 20.9635 59.2059L20.8975 47.5969C20.8095 32.7589 32.8755 20.5499 47.7105 20.4629L60.4865 20.3869C75.3225 20.2999 87.5345 32.3669 87.6205 47.2019L87.6855 58.8129Z" fill="#BF8158"/>
<path d="M58.2035 66.1639C58.2105 67.4559 56.5555 68.5139 54.5085 68.5279C52.4595 68.5399 50.7915 67.5019 50.7835 66.2069C50.7755 64.9159 52.4315 63.8589 54.4805 63.8479C56.5265 63.8339 58.1935 64.8739 58.2035 66.1639Z" fill="#AA6944"/>
<path d="M74.8935 59.0509C74.8935 60.9459 73.7695 62.4949 72.3965 62.4949C71.0215 62.4949 69.8985 60.9449 69.8985 59.0509C69.8985 57.1559 71.0215 55.6079 72.3965 55.6079C73.7695 55.6069 74.8935 57.1559 74.8935 59.0509Z" fill="#352215"/>
<path d="M38.7015 59.0509C38.7015 60.9459 37.5775 62.4949 36.2035 62.4949C34.8305 62.4949 33.7055 60.9449 33.7055 59.0509C33.7055 57.1559 34.8305 55.6079 36.2035 55.6079C37.5775 55.6069 38.7015 57.1559 38.7015 59.0509Z" fill="#352215"/>
<path d="M46.0105 73.7059C48.5115 79.4979 60.8805 79.5619 63.1185 73.5229C63.4635 72.5949 61.9835 72.2009 61.6435 73.1169C59.8435 77.9699 49.2685 77.4199 47.3305 72.9329C46.9395 72.0309 45.6215 72.8099 46.0105 73.7059Z" fill="#A9703B"/>
<path d="M62.6935 90.7459C61.2625 93.1049 57.6675 98.1809 54.1435 98.1019C50.8465 98.0289 47.6135 92.9529 46.2745 90.7459C46.2745 90.7459 20.1835 90.1419 14.1835 105.462H54.3005H54.4845H94.6025C88.6015 90.1419 62.6935 90.7459 62.6935 90.7459Z" fill="#BF8158"/>
<path d="M68.5135 51.0189C70.8875 49.7649 73.8675 49.8219 75.9925 51.5229C76.5895 51.9979 77.4385 51.1579 76.8375 50.6769C74.2705 48.6259 70.8045 48.4599 67.9115 49.9879C67.2315 50.3469 67.8345 51.3769 68.5135 51.0189Z" fill="#350304"/>
<path d="M40.0685 51.0189C37.6935 49.7649 34.7135 49.8219 32.5885 51.5229C31.9935 51.9979 31.1445 51.1579 31.7435 50.6769C34.3105 48.6259 37.7765 48.4599 40.6705 49.9879C41.3495 50.3469 40.7465 51.3769 40.0685 51.0189Z" fill="#350304"/>
<path d="M80.2075 93.6689C80.2075 93.6689 75.8585 91.707 69.5675 91.231C69.5675 91.231 67.3165 96.283 54.1335 96.375C40.9505 96.283 38.6995 91.231 38.6995 91.231C32.4085 91.708 28.0595 93.6689 28.0595 93.6689C29.1205 101.459 22.2475 105.462 22.2475 105.462H53.7735H54.4905H86.0165C86.0195 105.462 79.1465 101.459 80.2075 93.6689Z" fill="#1A9BDC"/>
<path d="M94.3845 37.832C97.2985 36.722 99.3335 34.229 99.3335 31.325C99.3335 27.39 95.6015 24.2 90.9995 24.2C90.4355 24.2 89.8835 24.25 89.3505 24.3419C89.4555 23.82 89.5225 23.2849 89.5225 22.7379C89.5225 17.5639 84.6185 13.3719 78.5685 13.3719C78.0235 13.3719 77.4915 13.417 76.9665 13.483C75.7825 8.38297 70.5255 4.53796 64.2125 4.53796C60.5745 4.53796 57.2905 5.81696 54.9295 7.87396C52.9415 6.25196 50.2535 5.24997 47.2865 5.24997C42.5955 5.24997 38.5945 7.74595 36.9755 11.265C36.1605 11.064 35.3005 10.951 34.4095 10.951C29.4875 10.951 25.4745 14.2359 25.1795 18.3799C22.2455 19.1429 20.0175 21.275 19.4935 23.903C15.6585 24.785 12.8325 27.769 12.8325 31.326C12.8325 32.584 13.1925 33.766 13.8175 34.815C11.9245 35.853 10.6665 37.6639 10.6665 39.7289C10.6665 41.7939 11.9245 43.606 13.8175 44.644C12.5385 45.809 11.7495 47.3719 11.7495 49.0959C11.7495 52.6929 15.1605 55.6089 19.3675 55.6089C23.5745 55.6089 26.9855 52.6929 26.9855 49.0959C26.9855 48.8569 26.9675 48.6209 26.9385 48.3889C27.0585 48.3949 27.1775 48.405 27.2995 48.405C30.8365 48.405 33.7035 45.9539 33.7035 42.9279C33.7035 42.7779 33.6905 42.63 33.6775 42.483C36.6955 41.99 39.0365 39.883 39.4325 37.252C40.1115 37.381 40.8145 37.4539 41.5375 37.4539C44.9695 37.4539 47.9765 35.92 49.6905 33.615C51.0225 34.525 52.6565 35.1249 54.4475 35.2769C56.0695 38.6439 59.9415 41.016 64.4655 41.016C65.0335 41.016 65.5875 40.967 66.1325 40.895C67.6165 44.451 71.5785 47 76.2485 47C76.3765 47 76.5005 46.987 76.6275 46.983C77.8875 50.873 82.0485 53.732 86.9985 53.732C92.9475 53.732 97.7705 49.609 97.7705 44.524C97.7715 41.885 96.4655 39.511 94.3845 37.832Z" fill="#0B0B0B"/>
</svg>
