<svg width="25" height="25" viewBox="0 0 25 25" fill="none" xmlns="http://www.w3.org/2000/svg">
<path d="M21.0938 9.37498C21.0946 7.92674 20.7295 6.50177 20.0322 5.23242C19.3349 3.96308 18.3282 2.89053 17.1055 2.1144C15.8828 1.33827 14.4838 0.883731 13.0384 0.793005C11.593 0.702278 10.1481 0.978305 8.83792 1.59545C7.52776 2.21259 6.39481 3.15083 5.5443 4.32302C4.69379 5.49522 4.15331 6.86334 3.97307 8.30032C3.79283 9.7373 3.97866 11.1965 4.51331 12.5425C5.04797 13.8884 5.91409 15.0774 7.03125 15.999V23.4375C7.03116 23.5707 7.06514 23.7018 7.12997 23.8182C7.19479 23.9346 7.28832 24.0325 7.40164 24.1025C7.51497 24.1726 7.64433 24.2125 7.77743 24.2185C7.91054 24.2245 8.04296 24.1963 8.16211 24.1367L12.5 21.9726L16.8389 24.1416C16.9476 24.1936 17.0669 24.22 17.1875 24.2187C17.3947 24.2187 17.5934 24.1364 17.7399 23.9899C17.8864 23.8434 17.9688 23.6447 17.9688 23.4375V15.999C18.9462 15.1939 19.7334 14.1825 20.2737 13.0372C20.8139 11.892 21.094 10.6413 21.0938 9.37498ZM5.46875 9.37498C5.46875 7.98433 5.88113 6.62491 6.65373 5.46862C7.42633 4.31234 8.52447 3.41113 9.80926 2.87895C11.0941 2.34677 12.5078 2.20753 13.8717 2.47883C15.2357 2.75013 16.4885 3.41979 17.4718 4.40313C18.4552 5.38647 19.1248 6.63932 19.3961 8.00325C19.6674 9.36718 19.5282 10.7809 18.996 12.0657C18.4639 13.3505 17.5626 14.4486 16.4064 15.2212C15.2501 15.9939 13.8906 16.4062 12.5 16.4062C10.6358 16.4042 8.84861 15.6627 7.53044 14.3445C6.21227 13.0264 5.47082 11.2391 5.46875 9.37498ZM7.03125 9.37498C7.03125 8.29336 7.35199 7.23603 7.9529 6.3367C8.55381 5.43737 9.40792 4.73643 10.4072 4.32251C11.4065 3.90859 12.5061 3.80029 13.5669 4.01131C14.6277 4.22232 15.6022 4.74317 16.367 5.50799C17.1318 6.2728 17.6527 7.24724 17.8637 8.30808C18.0747 9.36891 17.9664 10.4685 17.5525 11.4678C17.1386 12.4671 16.4376 13.3212 15.5383 13.9221C14.6389 14.523 13.5816 14.8437 12.5 14.8437C11.0501 14.8422 9.65998 14.2655 8.63472 13.2403C7.60947 12.215 7.0328 10.8249 7.03125 9.37498Z" fill="#CD7F32"/>
<path d="M10.7909 11.538C10.7909 11.4073 10.8235 11.2603 10.8889 11.097C10.9542 10.929 11.0172 10.796 11.0779 10.698C11.1385 10.5953 11.1735 10.544 11.1829 10.544C11.4535 10.7073 11.7382 10.789 12.0369 10.789C12.2235 10.789 12.3729 10.7517 12.4849 10.677C12.6015 10.6023 12.6599 10.4997 12.6599 10.369C12.6599 10.2337 12.6062 10.1473 12.4989 10.11C12.3962 10.0727 12.2305 10.047 12.0019 10.033H11.7499C11.6939 10.033 11.6402 9.96533 11.5889 9.83C11.5422 9.69 11.5189 9.55467 11.5189 9.424C11.5189 9.20467 11.5842 9.09267 11.7149 9.088L11.9179 9.081C12.0439 9.081 12.1745 9.046 12.3099 8.976C12.4499 8.90133 12.5199 8.808 12.5199 8.696C12.5199 8.5 12.3449 8.402 11.9949 8.402C11.7335 8.402 11.4815 8.45333 11.2389 8.556C11.0289 8.178 10.9239 7.884 10.9239 7.674C10.9239 7.45933 11.0709 7.29833 11.3649 7.191C11.6635 7.08367 12.0369 7.03 12.4849 7.03C12.9329 7.03 13.2829 7.12333 13.5349 7.31C13.7869 7.49667 13.9129 7.751 13.9129 8.073C13.9129 8.63767 13.6702 9.07167 13.1849 9.375C13.7729 9.613 14.0669 10.0167 14.0669 10.586C14.0669 11.0293 13.9105 11.3887 13.5979 11.664C13.2852 11.9347 12.8372 12.07 12.2539 12.07C11.8852 12.07 11.5492 12.0187 11.2459 11.916C10.9425 11.8087 10.7909 11.6827 10.7909 11.538Z" fill="white"/>
</svg>
