<svg width="194" height="160" viewBox="0 0 194 160" fill="none" xmlns="http://www.w3.org/2000/svg">
<path d="M142.231 90.6113H51.5642C50.8479 95.5364 50.4584 100.648 50.4584 105.9C50.4584 127.629 56.926 147.056 67.0908 160H89.7236V148.493C89.7236 144.531 92.9356 141.319 96.8975 141.319C100.86 141.319 104.072 144.531 104.072 148.493V160H126.705C136.869 147.055 143.337 127.629 143.337 105.9C143.336 100.648 142.946 95.5371 142.231 90.6113Z" fill="#546E7A"/>
<path d="M189.779 95.87C204.498 71.7161 172.999 66.1603 186.599 17.299C191.657 -0.871729 140.972 -12.7589 118.036 23.9614C103.247 47.6365 102.5 70.6038 112.125 86.6105C123.283 105.164 175.232 119.742 189.779 95.87Z" fill="#B0BEC5"/>
<path d="M4.01575 95.87C-10.7024 71.7161 20.7966 66.1603 7.195 17.299C2.1372 -0.871729 52.8229 -12.7589 75.7596 23.9614C90.5477 47.6365 91.2947 70.6038 81.6693 86.6105C70.512 105.164 18.5627 119.742 4.01575 95.87Z" fill="#B0BEC5"/>
<path d="M185.719 10.2382C179.064 -1.63756 146.881 -6.50057 125.814 14.2251C120.715 19.2422 113.735 21.7957 106.611 21.1521C103.484 20.8696 100.235 20.7441 96.8977 20.7441C92.3564 20.7441 87.9757 20.9767 83.8512 21.521C78.7027 22.2003 73.5822 20.3067 70.1076 16.4483C49.1522 -6.82446 14.9598 -2.04421 8.0769 10.2389C22.7937 4.71023 48.1219 7.41426 63.4416 28.7863C56.6201 33.8427 52.4791 41.7251 52.4791 53.6536C52.4791 68.3704 58.7691 85.64 68.6378 97.9359C68.4359 98.1592 68.2368 98.384 68.0249 98.6059C68.2903 98.4547 68.5507 98.3012 68.8112 98.1478C76.4653 107.599 86.2434 114.06 96.8977 114.06C107.553 114.06 117.331 107.599 124.985 98.1478C125.245 98.3012 125.506 98.4547 125.772 98.6059C125.559 98.384 125.361 98.1592 125.159 97.9359C135.028 85.64 141.318 68.3704 141.318 53.6536C141.318 41.7251 137.176 33.8427 130.355 28.7863C145.674 7.41355 171.002 4.70949 185.719 10.2382Z" fill="#78909C"/>
<path d="M88.6584 63.0401C88.6584 69.8923 83.104 75.4474 76.2511 75.4474C69.399 75.4474 63.8446 69.8923 63.8446 63.0401C63.8446 56.1886 69.399 50.6328 76.2511 50.6328C83.1033 50.6328 88.6584 56.1879 88.6584 63.0401Z" fill="white"/>
<path d="M59.2319 59.181C59.2319 50.8519 65.9835 44.0996 74.3126 44.0996" stroke="#B0BEC5" stroke-width="4" stroke-miterlimit="10" stroke-linecap="round" stroke-linejoin="round"/>
<path d="M134.463 58.615C134.463 47.9037 125.78 39.2207 115.069 39.2207" stroke="#B0BEC5" stroke-width="4" stroke-miterlimit="10" stroke-linecap="round" stroke-linejoin="round"/>
<path d="M84.2891 66.5581C84.2891 69.5169 81.8904 71.9163 78.9302 71.9163C75.9714 71.9163 73.572 69.5176 73.572 66.5581C73.572 63.5986 75.9707 61.1992 78.9302 61.1992C81.8897 61.1992 84.2891 63.5979 84.2891 66.5581Z" fill="#424242"/>
<path d="M124.68 63.0401C124.68 69.8923 119.125 75.4474 112.272 75.4474C105.42 75.4474 99.8657 69.8923 99.8657 63.0401C99.8657 56.1886 105.42 50.6328 112.272 50.6328C119.125 50.6328 124.68 56.1879 124.68 63.0401Z" fill="white"/>
<path d="M120.31 66.5581C120.31 69.5169 117.912 71.9163 114.951 71.9163C111.993 71.9163 109.593 69.5176 109.593 66.5581C109.593 63.5986 111.992 61.1992 114.951 61.1992C117.912 61.1992 120.31 63.5979 120.31 66.5581Z" fill="#424242"/>
<path d="M24.0445 125.528L24.6781 121.165C24.9585 119.234 26.7279 117.88 28.665 118.114C53.8941 121.157 74.1402 102.123 83.3811 81.6504C91.8643 86.7246 104.933 94.6726 113.416 99.7468C92.8168 129.13 56.9198 139.635 26.4575 129.472C24.8065 128.92 23.7948 127.251 24.0445 125.528Z" fill="#78909C"/>
<path d="M76.5809 102.511C76.5802 102.505 76.6144 102.597 76.6708 102.708C76.7286 102.832 76.8128 103.012 76.9212 103.241C77.1503 103.709 77.4578 104.382 77.8744 105.16C78.0835 105.544 78.3097 105.961 78.5494 106.402C78.8134 106.828 79.0681 107.285 79.3606 107.739C79.661 108.189 79.9435 108.668 80.2867 109.117C80.5985 109.588 80.9545 110.034 81.3105 110.482C81.6451 110.949 82.0618 111.343 82.4207 111.779C82.7831 112.214 83.209 112.574 83.585 112.964C83.9603 113.356 84.3792 113.674 84.7487 114.014C85.1133 114.361 85.5029 114.635 85.851 114.908C86.2099 115.163 86.501 115.47 86.8142 115.652C87.1182 115.85 87.3743 116.046 87.5926 116.197C88.0228 116.509 88.2669 116.705 88.2669 116.705L88.3425 116.765C88.7378 117.082 88.8013 117.659 88.4838 118.054C88.254 118.341 87.8866 118.453 87.5512 118.372C87.5512 118.372 87.2316 118.294 86.6751 118.126C86.399 118.038 86.0565 117.942 85.6727 117.808C85.2817 117.688 84.8736 117.479 84.4177 117.266C83.9703 117.039 83.4531 116.836 82.9765 116.506C82.497 116.184 81.9527 115.888 81.4546 115.491C80.9716 115.08 80.4329 114.691 79.9563 114.22C79.489 113.742 78.9768 113.283 78.5651 112.739L77.9223 111.946C77.7175 111.675 77.5391 111.387 77.3493 111.111C76.9662 110.559 76.658 109.975 76.364 109.411C76.0765 108.844 75.8418 108.273 75.6398 107.729C75.4565 107.176 75.2645 106.664 75.1625 106.164C74.9085 105.183 74.8172 104.336 74.7858 103.741C74.7687 103.445 74.7701 103.204 74.773 103.027C74.7723 102.85 74.7894 102.786 74.7872 102.781L74.8129 102.656C74.9157 102.156 75.4044 101.834 75.9038 101.937C76.222 102.003 76.4703 102.23 76.5809 102.511Z" fill="#B0BEC5"/>
<path d="M68.8039 109.458C68.8046 109.452 68.8131 109.542 68.841 109.647C68.8631 109.751 68.9152 109.924 68.9609 110.151C69.0686 110.602 69.2205 111.247 69.4446 112.004C69.5438 112.385 69.6957 112.786 69.8184 113.214C69.9675 113.637 70.1302 114.079 70.3 114.532C70.4798 114.982 70.6703 115.442 70.8872 115.898C71.0798 116.366 71.3217 116.817 71.5714 117.264C71.7819 117.732 72.0794 118.15 72.3299 118.587C72.5917 119.018 72.8849 119.419 73.1489 119.824C73.4201 120.223 73.729 120.577 73.9894 120.941C74.2484 121.309 74.5466 121.611 74.7977 121.918C75.066 122.207 75.2715 122.522 75.5083 122.743C75.7374 122.973 75.9293 123.188 76.0898 123.363C76.4087 123.719 76.5871 123.938 76.5871 123.938L76.6571 124.023C77.0095 124.456 76.9432 125.094 76.5101 125.446C76.2033 125.695 75.7952 125.734 75.4577 125.584C75.4577 125.584 75.1837 125.46 74.7121 125.217C74.4781 125.094 74.1899 124.946 73.8681 124.759C73.5335 124.59 73.2103 124.324 72.8378 124.055C72.4718 123.779 72.0509 123.5 71.6841 123.118C71.3089 122.748 70.8708 122.387 70.5083 121.934C70.1516 121.478 69.7221 121.047 69.3996 120.526C69.0764 120.007 68.7018 119.506 68.4293 118.946C68.1439 118.394 67.8713 117.836 67.6545 117.265C67.4033 116.707 67.2578 116.121 67.0894 115.569C66.9246 115.014 66.834 114.458 66.7405 113.939C66.6635 113.416 66.6021 112.92 66.5878 112.458C66.55 112 66.5657 111.575 66.575 111.201C66.5871 110.826 66.6228 110.499 66.6549 110.228C66.6856 109.96 66.7305 109.744 66.7605 109.583C66.789 109.421 66.809 109.37 66.8083 109.364L66.8511 109.237C67.0309 108.712 67.6024 108.431 68.1275 108.611C68.5099 108.744 68.7625 109.082 68.8039 109.458Z" fill="#B0BEC5"/>
<path d="M59.4698 116.192C59.4705 116.186 59.479 116.263 59.5054 116.333C59.529 116.403 59.5711 116.529 59.6132 116.701C59.6603 116.869 59.7174 117.074 59.7837 117.309C59.8608 117.543 59.92 117.808 60.0206 118.093C60.1055 118.378 60.2075 118.685 60.3167 119.006C60.4373 119.323 60.5407 119.664 60.6841 120.002C60.829 120.339 60.9438 120.7 61.12 121.041C61.2749 121.392 61.4368 121.744 61.6216 122.086C61.7836 122.442 62.019 122.753 62.1974 123.094C62.3829 123.431 62.6283 123.721 62.8231 124.033C63.0215 124.345 63.2654 124.607 63.4688 124.881C63.6621 125.165 63.8947 125.392 64.0924 125.618C64.2986 125.838 64.457 126.076 64.6439 126.238C64.8194 126.416 64.9721 126.572 65.0984 126.699C65.3467 126.969 65.4887 127.123 65.4887 127.123L65.5842 127.227C66.0259 127.708 65.9945 128.456 65.5136 128.898C65.1397 129.241 64.6011 129.297 64.173 129.079C64.173 129.079 63.959 128.97 63.5844 128.777C63.3982 128.674 63.1734 128.549 62.9152 128.405C62.6533 128.265 62.3936 128.053 62.094 127.84C61.805 127.615 61.4696 127.393 61.1685 127.095C60.8689 126.797 60.5243 126.506 60.2189 126.156C59.9235 125.798 59.5961 125.441 59.3178 125.039C59.041 124.636 58.7435 124.232 58.5187 123.787C58.2783 123.352 58.0307 122.917 57.8581 122.458C57.6604 122.009 57.5049 121.553 57.3693 121.108C57.2438 120.66 57.1424 120.222 57.0661 119.805C57.0119 119.381 56.9391 118.988 56.9306 118.615C56.8813 117.876 56.9249 117.253 56.9826 116.815C57.0098 116.598 57.0433 116.42 57.0711 116.283C57.0968 116.145 57.1139 116.112 57.1132 116.106L57.2038 115.89C57.4557 115.287 58.1484 115.002 58.7513 115.254C59.1551 115.421 59.4156 115.789 59.4698 116.192Z" fill="#B0BEC5"/>
<path d="M50.1416 120.496C50.143 120.489 50.1423 120.551 50.1601 120.592C50.1751 120.633 50.2008 120.718 50.2201 120.834C50.2664 121.062 50.3328 121.388 50.4127 121.779C50.4905 122.167 50.5968 122.611 50.7166 123.076C50.8422 123.539 50.9735 124.028 51.144 124.502C51.2146 124.746 51.3252 124.972 51.4087 125.208C51.4922 125.443 51.6142 125.657 51.702 125.881C51.794 126.105 51.9131 126.306 52.0101 126.508C52.1043 126.712 52.2156 126.896 52.3141 127.069C52.4204 127.237 52.4839 127.421 52.5831 127.554C52.6758 127.691 52.7457 127.823 52.8085 127.927C52.9298 128.143 52.9955 128.275 52.9955 128.275L53.074 128.433C53.3729 129.035 53.1282 129.765 52.5267 130.064C52.1507 130.251 51.7169 130.222 51.3773 130.029C51.3773 130.029 51.2268 129.942 50.9699 129.775C50.8444 129.688 50.6852 129.588 50.514 129.459C50.3364 129.337 50.1609 129.168 49.9668 128.987C49.7792 128.799 49.5494 128.614 49.366 128.368C49.1784 128.126 48.953 127.885 48.7703 127.601C48.5919 127.315 48.39 127.026 48.2345 126.705C48.0853 126.382 47.9063 126.063 47.7971 125.716C47.5338 125.041 47.3741 124.329 47.2984 123.658C47.2292 122.987 47.2385 122.357 47.312 121.823C47.3726 121.289 47.4961 120.85 47.5995 120.544C47.6487 120.392 47.7022 120.268 47.7415 120.167C47.7807 120.064 47.7971 120.051 47.7978 120.045L48.0661 119.735C48.4949 119.242 49.2412 119.19 49.7342 119.618C49.9982 119.847 50.1366 120.172 50.1416 120.496Z" fill="#B0BEC5"/>
<path d="M107.225 93.5582C107.753 99.7704 107.681 112.778 100.067 124.764C99.4726 125.699 100.619 126.744 101.49 126.06C106.865 121.835 115.729 112.421 120.173 94.1154C120.693 91.9707 119.064 89.9002 116.858 89.8909L110.651 89.8653C108.647 89.8581 107.056 91.5626 107.225 93.5582Z" fill="white"/>
</svg>
